{"glyphs":{"0":{"ha":612,"x_min":42,"x_max":570,"o":"m 185 0 l 42 143 l 42 829 l 185 972 l 427 972 l 570 829 l 570 143 l 427 0 l 185 0 m 308 197 l 345 197 l 388 239 l 388 480 l 308 197 m 239 122 l 206 158 l 422 781 l 456 753 l 456 203 l 374 122 l 239 122 m 217 80 l 390 80 l 496 185 l 496 792 l 390 897 l 217 897 l 112 792 l 112 185 l 217 80 m 153 226 l 153 774 l 234 855 l 367 855 l 399 820 l 185 199 l 153 226 m 224 507 l 294 776 l 267 776 l 224 733 l 224 507 z "},"1":{"ha":503,"x_min":42,"x_max":461,"o":"m 42 0 l 42 197 l 152 197 l 152 742 l 42 690 l 42 906 l 217 972 l 348 972 l 348 197 l 461 197 l 461 0 l 42 0 m 126 74 l 375 74 l 375 117 l 272 117 l 272 895 l 238 895 l 118 847 l 118 801 l 229 849 l 229 117 l 126 117 l 126 74 z "},"2":{"ha":581,"x_min":42,"x_max":539,"o":"m 42 0 l 42 401 l 185 544 l 301 544 l 343 586 l 343 733 l 301 776 l 280 776 l 238 733 l 238 634 l 42 634 l 42 829 l 185 972 l 396 972 l 539 829 l 539 490 l 396 347 l 280 347 l 238 305 l 238 197 l 539 197 l 539 0 l 42 0 m 122 76 l 453 76 l 453 119 l 165 119 l 165 347 l 247 428 l 356 428 l 463 535 l 463 795 l 358 900 l 228 900 l 122 795 l 122 709 l 165 709 l 165 777 l 247 858 l 338 858 l 420 777 l 420 553 l 336 471 l 228 471 l 122 365 l 122 76 z "},"3":{"ha":594,"x_min":42,"x_max":553,"o":"m 185 0 l 42 143 l 42 331 l 238 331 l 238 239 l 280 197 l 315 197 l 357 239 l 357 345 l 315 388 l 239 388 l 239 583 l 314 583 l 357 630 l 357 733 l 315 776 l 280 776 l 238 733 l 238 641 l 42 641 l 42 829 l 185 972 l 410 972 l 553 829 l 553 530 l 509 486 l 553 441 l 553 143 l 410 0 l 185 0 m 223 80 l 372 80 l 477 185 l 477 400 l 390 486 l 477 572 l 477 792 l 372 897 l 223 897 l 117 792 l 117 707 l 160 707 l 160 774 l 242 855 l 352 855 l 434 774 l 434 591 l 350 508 l 301 508 l 301 465 l 350 465 l 434 382 l 434 203 l 352 122 l 242 122 l 160 203 l 160 266 l 117 266 l 117 185 l 223 80 z "},"4":{"ha":610,"x_min":35,"x_max":575,"o":"m 319 0 l 319 223 l 35 223 l 35 450 l 185 972 l 515 972 l 515 419 l 575 419 l 575 223 l 515 223 l 515 0 l 319 0 m 399 68 l 442 68 l 442 292 l 513 292 l 513 335 l 442 335 l 442 897 l 238 897 l 115 446 l 115 292 l 399 292 l 399 68 m 160 335 l 160 447 l 265 852 l 399 852 l 399 335 l 160 335 m 251 419 l 319 419 l 319 758 l 313 758 l 251 451 l 251 419 z "},"5":{"ha":585,"x_min":42,"x_max":543,"o":"m 185 0 l 42 143 l 42 318 l 238 318 l 238 239 l 280 197 l 305 197 l 347 239 l 347 447 l 305 489 l 287 489 l 227 422 l 42 422 l 42 972 l 540 972 l 540 776 l 238 776 l 238 665 l 258 685 l 400 685 l 543 542 l 543 143 l 400 0 l 185 0 m 229 75 l 360 75 l 467 181 l 467 505 l 360 612 l 263 612 l 197 546 l 163 546 l 163 855 l 463 855 l 463 897 l 120 897 l 120 499 l 201 499 l 271 569 l 342 569 l 424 488 l 424 199 l 342 117 l 249 117 l 160 206 l 160 260 l 117 260 l 117 188 l 229 75 z "},"6":{"ha":592,"x_min":42,"x_max":550,"o":"m 185 0 l 42 143 l 42 829 l 185 972 l 403 972 l 547 829 l 547 681 l 350 681 l 350 733 l 308 776 l 280 776 l 238 733 l 238 638 l 258 658 l 407 658 l 550 515 l 550 143 l 407 0 l 185 0 m 247 121 l 161 206 l 161 423 l 280 540 l 349 540 l 431 458 l 431 202 l 349 121 l 247 121 m 280 197 l 312 197 l 354 239 l 354 419 l 312 462 l 294 462 l 238 406 l 238 239 l 280 197 m 228 78 l 367 78 l 474 184 l 474 476 l 367 583 l 271 583 l 161 474 l 161 774 l 244 855 l 344 855 l 426 774 l 426 737 l 468 737 l 468 792 l 363 897 l 225 897 l 118 792 l 118 188 l 228 78 z "},"7":{"ha":535,"x_min":28,"x_max":493,"o":"m 65 0 l 297 663 l 297 776 l 28 776 l 28 972 l 493 972 l 493 635 l 287 0 l 65 0 m 178 68 l 224 68 l 417 646 l 417 895 l 102 895 l 102 852 l 374 852 l 374 648 l 178 68 z "},"8":{"ha":581,"x_min":42,"x_max":539,"o":"m 185 0 l 42 143 l 42 440 l 104 499 l 42 561 l 42 829 l 185 972 l 396 972 l 539 829 l 539 561 l 476 498 l 539 440 l 539 143 l 396 0 l 185 0 m 244 121 l 163 202 l 163 396 l 247 478 l 336 478 l 420 396 l 420 202 l 338 121 l 244 121 m 226 78 l 358 78 l 463 184 l 463 412 l 374 500 l 463 589 l 463 789 l 358 894 l 226 894 l 120 789 l 120 589 l 209 500 l 120 412 l 120 184 l 226 78 m 247 522 l 163 605 l 163 771 l 244 852 l 338 852 l 420 771 l 420 605 l 336 522 l 247 522 m 280 197 l 301 197 l 343 239 l 343 358 l 301 401 l 280 401 l 238 358 l 238 239 l 280 197 m 281 597 l 300 597 l 343 643 l 343 733 l 301 776 l 280 776 l 238 733 l 238 643 l 281 597 z "},"9":{"ha":592,"x_min":42,"x_max":550,"o":"m 407 972 l 550 829 l 550 143 l 407 0 l 189 0 l 45 143 l 45 291 l 242 291 l 242 239 l 284 197 l 312 197 l 354 239 l 354 335 l 333 314 l 185 314 l 42 457 l 42 829 l 185 972 l 407 972 m 344 851 l 431 767 l 431 549 l 312 433 l 243 433 l 160 515 l 160 770 l 243 851 l 344 851 m 312 776 l 280 776 l 238 733 l 238 553 l 280 510 l 298 510 l 354 566 l 354 733 l 312 776 m 363 894 l 224 894 l 117 788 l 117 497 l 224 390 l 321 390 l 431 498 l 431 198 l 348 117 l 248 117 l 166 198 l 166 235 l 124 235 l 124 180 l 229 75 l 367 75 l 474 180 l 474 785 l 363 894 z "},"A":{"ha":651,"x_min":69,"x_max":582,"o":"m 69 0 l 69 829 l 213 972 l 439 972 l 582 829 l 582 0 l 386 0 l 386 286 l 265 286 l 265 0 l 69 0 m 149 83 l 192 83 l 192 361 l 463 361 l 463 83 l 506 83 l 506 795 l 400 900 l 254 900 l 149 795 l 149 83 m 265 482 l 386 482 l 386 733 l 344 776 l 308 776 l 265 733 l 265 482 m 192 403 l 192 777 l 274 858 l 381 858 l 463 777 l 463 403 l 192 403 z "},"Á":{"ha":678,"x_min":35,"x_max":643,"o":"m 35 0 l 163 972 l 508 972 l 643 0 l 419 0 l 399 206 l 278 206 l 258 0 l 35 0 m 131 73 l 177 73 l 201 276 l 474 276 l 497 73 l 544 73 l 445 895 l 228 895 l 131 73 m 203 315 l 263 853 l 410 853 l 472 315 l 203 315 m 289 383 l 388 383 l 348 775 l 320 775 l 289 383 m 250 994 l 419 1178 l 619 1178 l 422 994 l 250 994 m 361 1037 l 399 1037 l 495 1134 l 453 1134 l 361 1037 z "},"Ă":{"ha":678,"x_min":35,"x_max":643,"o":"m 35 0 l 163 972 l 508 972 l 643 0 l 419 0 l 399 206 l 278 206 l 258 0 l 35 0 m 131 73 l 177 73 l 201 276 l 474 276 l 497 73 l 544 73 l 445 895 l 228 895 l 131 73 m 203 315 l 263 853 l 410 853 l 472 315 l 203 315 m 289 383 l 388 383 l 348 775 l 320 775 l 289 383 m 253 994 l 175 1072 l 175 1181 l 308 1181 l 308 1128 l 363 1128 l 363 1181 l 496 1181 l 496 1072 l 418 994 l 253 994 m 284 1043 l 388 1043 l 443 1101 l 443 1130 l 411 1130 l 411 1110 l 378 1074 l 294 1074 l 261 1110 l 261 1130 l 229 1130 l 229 1101 l 284 1043 z "},"Ắ":{"ha":651,"x_min":69,"x_max":610,"o":"m 69 0 l 69 829 l 213 972 l 439 972 l 582 829 l 582 0 l 386 0 l 386 286 l 265 286 l 265 0 l 69 0 m 149 83 l 192 83 l 192 361 l 463 361 l 463 83 l 506 83 l 506 795 l 400 900 l 254 900 l 149 795 l 149 83 m 265 482 l 386 482 l 386 733 l 344 776 l 308 776 l 265 733 l 265 482 m 192 403 l 192 777 l 274 858 l 381 858 l 463 777 l 463 403 l 192 403 m 244 994 l 166 1072 l 166 1181 l 299 1181 l 299 1128 l 353 1128 l 353 1181 l 487 1181 l 487 1072 l 409 994 l 244 994 m 275 1043 l 378 1043 l 434 1101 l 434 1130 l 402 1130 l 402 1110 l 369 1074 l 285 1074 l 252 1110 l 252 1130 l 220 1130 l 220 1101 l 275 1043 m 241 1203 l 410 1386 l 610 1386 l 413 1203 l 241 1203 m 352 1245 l 390 1245 l 486 1342 l 444 1342 l 352 1245 z "},"Ặ":{"ha":651,"x_min":69,"x_max":582,"o":"m 69 0 l 69 829 l 213 972 l 439 972 l 582 829 l 582 0 l 386 0 l 386 286 l 265 286 l 265 0 l 69 0 m 149 83 l 192 83 l 192 361 l 463 361 l 463 83 l 506 83 l 506 795 l 400 900 l 254 900 l 149 795 l 149 83 m 265 482 l 386 482 l 386 733 l 344 776 l 308 776 l 265 733 l 265 482 m 192 403 l 192 777 l 274 858 l 381 858 l 463 777 l 463 403 l 192 403 m 253 -188 l 253 -42 l 400 -42 l 400 -188 l 253 -188 m 310 -133 l 340 -133 l 340 -99 l 310 -99 l 310 -133 m 244 994 l 166 1072 l 166 1181 l 299 1181 l 299 1128 l 353 1128 l 353 1181 l 487 1181 l 487 1072 l 409 994 l 244 994 m 275 1043 l 378 1043 l 434 1101 l 434 1130 l 402 1130 l 402 1110 l 369 1074 l 285 1074 l 252 1110 l 252 1130 l 220 1130 l 220 1101 l 275 1043 z "},"Ằ":{"ha":651,"x_min":58,"x_max":582,"o":"m 69 0 l 69 829 l 213 972 l 439 972 l 582 829 l 582 0 l 386 0 l 386 286 l 265 286 l 265 0 l 69 0 m 149 83 l 192 83 l 192 361 l 463 361 l 463 83 l 506 83 l 506 795 l 400 900 l 254 900 l 149 795 l 149 83 m 265 482 l 386 482 l 386 733 l 344 776 l 308 776 l 265 733 l 265 482 m 192 403 l 192 777 l 274 858 l 381 858 l 463 777 l 463 403 l 192 403 m 244 994 l 166 1072 l 166 1181 l 299 1181 l 299 1128 l 353 1128 l 353 1181 l 487 1181 l 487 1072 l 409 994 l 244 994 m 275 1043 l 378 1043 l 434 1101 l 434 1130 l 402 1130 l 402 1110 l 369 1074 l 285 1074 l 252 1110 l 252 1130 l 220 1130 l 220 1101 l 275 1043 m 427 1203 l 256 1203 l 58 1386 l 258 1386 l 427 1203 m 316 1245 l 224 1342 l 183 1342 l 279 1245 l 316 1245 z "},"Ẳ":{"ha":651,"x_min":69,"x_max":582,"o":"m 69 0 l 69 829 l 213 972 l 439 972 l 582 829 l 582 0 l 386 0 l 386 286 l 265 286 l 265 0 l 69 0 m 149 83 l 192 83 l 192 361 l 463 361 l 463 83 l 506 83 l 506 795 l 400 900 l 254 900 l 149 795 l 149 83 m 265 482 l 386 482 l 386 733 l 344 776 l 308 776 l 265 733 l 265 482 m 192 403 l 192 777 l 274 858 l 381 858 l 463 777 l 463 403 l 192 403 m 244 994 l 166 1072 l 166 1181 l 299 1181 l 299 1128 l 353 1128 l 353 1181 l 487 1181 l 487 1072 l 409 994 l 244 994 m 275 1043 l 378 1043 l 434 1101 l 434 1130 l 402 1130 l 402 1110 l 369 1074 l 285 1074 l 252 1110 l 252 1130 l 220 1130 l 220 1101 l 275 1043 m 160 1492 l 379 1492 l 492 1361 l 379 1231 l 210 1231 l 210 1340 l 303 1340 l 324 1361 l 303 1383 l 160 1383 l 160 1492 m 213 1451 l 213 1424 l 333 1424 l 390 1361 l 333 1299 l 263 1299 l 263 1272 l 350 1272 l 431 1361 l 350 1451 l 213 1451 z "},"Ẵ":{"ha":651,"x_min":69,"x_max":582,"o":"m 69 0 l 69 829 l 213 972 l 439 972 l 582 829 l 582 0 l 386 0 l 386 286 l 265 286 l 265 0 l 69 0 m 149 83 l 192 83 l 192 361 l 463 361 l 463 83 l 506 83 l 506 795 l 400 900 l 254 900 l 149 795 l 149 83 m 265 482 l 386 482 l 386 733 l 344 776 l 308 776 l 265 733 l 265 482 m 192 403 l 192 777 l 274 858 l 381 858 l 463 777 l 463 403 l 192 403 m 244 994 l 166 1072 l 166 1181 l 299 1181 l 299 1128 l 353 1128 l 353 1181 l 487 1181 l 487 1072 l 409 994 l 244 994 m 275 1043 l 378 1043 l 434 1101 l 434 1130 l 402 1130 l 402 1110 l 369 1074 l 285 1074 l 252 1110 l 252 1130 l 220 1130 l 220 1101 l 275 1043 m 133 1203 l 133 1297 l 210 1375 l 334 1375 l 373 1336 l 385 1336 l 385 1375 l 519 1375 l 519 1281 l 441 1203 l 317 1203 l 278 1242 l 266 1242 l 266 1203 l 133 1203 m 187 1247 l 219 1247 l 219 1260 l 252 1297 l 297 1297 l 344 1251 l 413 1251 l 468 1310 l 468 1333 l 436 1333 l 436 1319 l 403 1283 l 353 1283 l 307 1328 l 242 1328 l 187 1269 l 187 1247 z "},"Ǎ":{"ha":678,"x_min":35,"x_max":643,"o":"m 35 0 l 163 972 l 508 972 l 643 0 l 419 0 l 399 206 l 278 206 l 258 0 l 35 0 m 131 73 l 177 73 l 201 276 l 474 276 l 497 73 l 544 73 l 445 895 l 228 895 l 131 73 m 203 315 l 263 853 l 410 853 l 472 315 l 203 315 m 289 383 l 388 383 l 348 775 l 320 775 l 289 383 m 248 994 l 92 1192 l 285 1192 l 335 1117 l 386 1192 l 578 1192 l 423 994 l 248 994 m 285 1043 l 383 1043 l 453 1136 l 412 1136 l 362 1067 l 306 1067 l 257 1136 l 215 1136 l 285 1043 z "},"Â":{"ha":678,"x_min":35,"x_max":643,"o":"m 35 0 l 163 972 l 508 972 l 643 0 l 419 0 l 399 206 l 278 206 l 258 0 l 35 0 m 131 73 l 177 73 l 201 276 l 474 276 l 497 73 l 544 73 l 445 895 l 228 895 l 131 73 m 203 315 l 263 853 l 410 853 l 472 315 l 203 315 m 289 383 l 388 383 l 348 775 l 320 775 l 289 383 m 248 1192 l 423 1192 l 578 994 l 386 994 l 335 1069 l 285 994 l 92 994 l 248 1192 m 285 1143 l 215 1050 l 257 1050 l 306 1119 l 362 1119 l 412 1050 l 453 1050 l 383 1143 l 285 1143 z "},"Ấ":{"ha":651,"x_min":69,"x_max":831,"o":"m 69 0 l 69 829 l 213 972 l 439 972 l 582 829 l 582 0 l 386 0 l 386 286 l 265 286 l 265 0 l 69 0 m 149 83 l 192 83 l 192 361 l 463 361 l 463 83 l 506 83 l 506 795 l 400 900 l 254 900 l 149 795 l 149 83 m 265 482 l 386 482 l 386 733 l 344 776 l 308 776 l 265 733 l 265 482 m 192 403 l 192 777 l 274 858 l 381 858 l 463 777 l 463 403 l 192 403 m 239 1192 l 414 1192 l 569 994 l 377 994 l 326 1069 l 276 994 l 83 994 l 239 1192 m 276 1143 l 206 1050 l 248 1050 l 297 1119 l 353 1119 l 403 1050 l 444 1050 l 374 1143 l 276 1143 m 463 1153 l 632 1336 l 831 1336 l 634 1153 l 463 1153 m 574 1195 l 611 1195 l 708 1292 l 665 1292 l 574 1195 z "},"Ậ":{"ha":651,"x_min":69,"x_max":582,"o":"m 69 0 l 69 829 l 213 972 l 439 972 l 582 829 l 582 0 l 386 0 l 386 286 l 265 286 l 265 0 l 69 0 m 149 83 l 192 83 l 192 361 l 463 361 l 463 83 l 506 83 l 506 795 l 400 900 l 254 900 l 149 795 l 149 83 m 265 482 l 386 482 l 386 733 l 344 776 l 308 776 l 265 733 l 265 482 m 192 403 l 192 777 l 274 858 l 381 858 l 463 777 l 463 403 l 192 403 m 253 -188 l 253 -42 l 400 -42 l 400 -188 l 253 -188 m 310 -133 l 340 -133 l 340 -99 l 310 -99 l 310 -133 m 239 1192 l 414 1192 l 569 994 l 377 994 l 326 1069 l 276 994 l 83 994 l 239 1192 m 276 1143 l 206 1050 l 248 1050 l 297 1119 l 353 1119 l 403 1050 l 444 1050 l 374 1143 l 276 1143 z "},"Ầ":{"ha":651,"x_min":69,"x_max":665,"o":"m 69 0 l 69 829 l 213 972 l 439 972 l 582 829 l 582 0 l 386 0 l 386 286 l 265 286 l 265 0 l 69 0 m 149 83 l 192 83 l 192 361 l 463 361 l 463 83 l 506 83 l 506 795 l 400 900 l 254 900 l 149 795 l 149 83 m 265 482 l 386 482 l 386 733 l 344 776 l 308 776 l 265 733 l 265 482 m 192 403 l 192 777 l 274 858 l 381 858 l 463 777 l 463 403 l 192 403 m 239 1192 l 414 1192 l 569 994 l 377 994 l 326 1069 l 276 994 l 83 994 l 239 1192 m 276 1143 l 206 1050 l 248 1050 l 297 1119 l 353 1119 l 403 1050 l 444 1050 l 374 1143 l 276 1143 m 665 1153 l 494 1153 l 297 1336 l 496 1336 l 665 1153 m 554 1195 l 463 1292 l 421 1292 l 517 1195 l 554 1195 z "},"Ẩ":{"ha":651,"x_min":69,"x_max":756,"o":"m 69 0 l 69 829 l 213 972 l 439 972 l 582 829 l 582 0 l 386 0 l 386 286 l 265 286 l 265 0 l 69 0 m 149 83 l 192 83 l 192 361 l 463 361 l 463 83 l 506 83 l 506 795 l 400 900 l 254 900 l 149 795 l 149 83 m 265 482 l 386 482 l 386 733 l 344 776 l 308 776 l 265 733 l 265 482 m 192 403 l 192 777 l 274 858 l 381 858 l 463 777 l 463 403 l 192 403 m 239 1192 l 414 1192 l 569 994 l 377 994 l 326 1069 l 276 994 l 83 994 l 239 1192 m 276 1143 l 206 1050 l 248 1050 l 297 1119 l 353 1119 l 403 1050 l 444 1050 l 374 1143 l 276 1143 m 424 1388 l 642 1388 l 756 1257 l 642 1127 l 473 1127 l 473 1236 l 566 1236 l 587 1257 l 566 1279 l 424 1279 l 424 1388 m 476 1347 l 476 1320 l 596 1320 l 653 1257 l 596 1195 l 526 1195 l 526 1168 l 613 1168 l 694 1257 l 613 1347 l 476 1347 z "},"Ẫ":{"ha":651,"x_min":69,"x_max":582,"o":"m 69 0 l 69 829 l 213 972 l 439 972 l 582 829 l 582 0 l 386 0 l 386 286 l 265 286 l 265 0 l 69 0 m 149 83 l 192 83 l 192 361 l 463 361 l 463 83 l 506 83 l 506 795 l 400 900 l 254 900 l 149 795 l 149 83 m 265 482 l 386 482 l 386 733 l 344 776 l 308 776 l 265 733 l 265 482 m 192 403 l 192 777 l 274 858 l 381 858 l 463 777 l 463 403 l 192 403 m 239 1192 l 414 1192 l 569 994 l 377 994 l 326 1069 l 276 994 l 83 994 l 239 1192 m 276 1143 l 206 1050 l 248 1050 l 297 1119 l 353 1119 l 403 1050 l 444 1050 l 374 1143 l 276 1143 m 133 1214 l 133 1308 l 210 1386 l 334 1386 l 373 1347 l 385 1347 l 385 1386 l 519 1386 l 519 1292 l 441 1214 l 317 1214 l 278 1253 l 266 1253 l 266 1214 l 133 1214 m 187 1258 l 219 1258 l 219 1272 l 252 1308 l 297 1308 l 344 1263 l 413 1263 l 468 1321 l 468 1344 l 436 1344 l 436 1330 l 403 1294 l 353 1294 l 307 1339 l 242 1339 l 187 1281 l 187 1258 z "},"Ȁ":{"ha":651,"x_min":-87,"x_max":582,"o":"m 69 0 l 69 829 l 213 972 l 439 972 l 582 829 l 582 0 l 386 0 l 386 286 l 265 286 l 265 0 l 69 0 m 149 83 l 192 83 l 192 361 l 463 361 l 463 83 l 506 83 l 506 795 l 400 900 l 254 900 l 149 795 l 149 83 m 265 482 l 386 482 l 386 733 l 344 776 l 308 776 l 265 733 l 265 482 m 192 403 l 192 777 l 274 858 l 381 858 l 463 777 l 463 403 l 192 403 m 554 994 l 383 994 l 185 1178 l 385 1178 l 554 994 m 443 1037 l 351 1134 l 310 1134 l 406 1037 l 443 1037 m 282 994 l 110 994 l -87 1178 l 113 1178 l 282 994 m 171 1037 l 79 1134 l 38 1134 l 134 1037 l 171 1037 z "},"Ä":{"ha":651,"x_min":69,"x_max":582,"o":"m 69 0 l 69 829 l 213 972 l 439 972 l 582 829 l 582 0 l 386 0 l 386 286 l 265 286 l 265 0 l 69 0 m 149 83 l 192 83 l 192 361 l 463 361 l 463 83 l 506 83 l 506 795 l 400 900 l 254 900 l 149 795 l 149 83 m 265 482 l 386 482 l 386 733 l 344 776 l 308 776 l 265 733 l 265 482 m 192 403 l 192 777 l 274 858 l 381 858 l 463 777 l 463 403 l 192 403 m 398 1008 l 398 1154 l 545 1154 l 545 1008 l 398 1008 m 109 1008 l 109 1154 l 256 1154 l 256 1008 l 109 1008 m 167 1064 l 197 1064 l 197 1098 l 167 1098 l 167 1064 m 457 1064 l 486 1064 l 486 1098 l 457 1098 l 457 1064 z "},"Ạ":{"ha":651,"x_min":69,"x_max":582,"o":"m 69 0 l 69 829 l 213 972 l 439 972 l 582 829 l 582 0 l 386 0 l 386 286 l 265 286 l 265 0 l 69 0 m 149 83 l 192 83 l 192 361 l 463 361 l 463 83 l 506 83 l 506 795 l 400 900 l 254 900 l 149 795 l 149 83 m 265 482 l 386 482 l 386 733 l 344 776 l 308 776 l 265 733 l 265 482 m 192 403 l 192 777 l 274 858 l 381 858 l 463 777 l 463 403 l 192 403 m 253 -188 l 253 -42 l 400 -42 l 400 -188 l 253 -188 m 310 -133 l 340 -133 l 340 -99 l 310 -99 l 310 -133 z "},"À":{"ha":651,"x_min":58,"x_max":582,"o":"m 69 0 l 69 829 l 213 972 l 439 972 l 582 829 l 582 0 l 386 0 l 386 286 l 265 286 l 265 0 l 69 0 m 149 83 l 192 83 l 192 361 l 463 361 l 463 83 l 506 83 l 506 795 l 400 900 l 254 900 l 149 795 l 149 83 m 265 482 l 386 482 l 386 733 l 344 776 l 308 776 l 265 733 l 265 482 m 192 403 l 192 777 l 274 858 l 381 858 l 463 777 l 463 403 l 192 403 m 427 994 l 256 994 l 58 1178 l 258 1178 l 427 994 m 316 1037 l 224 1134 l 183 1134 l 279 1037 l 316 1037 z "},"Ả":{"ha":651,"x_min":69,"x_max":582,"o":"m 69 0 l 69 829 l 213 972 l 439 972 l 582 829 l 582 0 l 386 0 l 386 286 l 265 286 l 265 0 l 69 0 m 149 83 l 192 83 l 192 361 l 463 361 l 463 83 l 506 83 l 506 795 l 400 900 l 254 900 l 149 795 l 149 83 m 265 482 l 386 482 l 386 733 l 344 776 l 308 776 l 265 733 l 265 482 m 192 403 l 192 777 l 274 858 l 381 858 l 463 777 l 463 403 l 192 403 m 160 1251 l 379 1251 l 492 1120 l 379 990 l 210 990 l 210 1099 l 303 1099 l 324 1120 l 303 1142 l 160 1142 l 160 1251 m 213 1210 l 213 1183 l 333 1183 l 390 1120 l 333 1058 l 263 1058 l 263 1031 l 350 1031 l 431 1120 l 350 1210 l 213 1210 z "},"Ȃ":{"ha":651,"x_min":69,"x_max":582,"o":"m 69 0 l 69 829 l 213 972 l 439 972 l 582 829 l 582 0 l 386 0 l 386 286 l 265 286 l 265 0 l 69 0 m 149 83 l 192 83 l 192 361 l 463 361 l 463 83 l 506 83 l 506 795 l 400 900 l 254 900 l 149 795 l 149 83 m 265 482 l 386 482 l 386 733 l 344 776 l 308 776 l 265 733 l 265 482 m 192 403 l 192 777 l 274 858 l 381 858 l 463 777 l 463 403 l 192 403 m 409 1180 l 487 1102 l 487 994 l 353 994 l 353 1047 l 299 1047 l 299 994 l 166 994 l 166 1102 l 244 1180 l 409 1180 m 378 1131 l 274 1131 l 219 1073 l 219 1044 l 251 1044 l 251 1064 l 284 1100 l 367 1100 l 401 1064 l 401 1044 l 433 1044 l 433 1073 l 378 1131 z "},"Ā":{"ha":651,"x_min":69,"x_max":582,"o":"m 69 0 l 69 829 l 213 972 l 439 972 l 582 829 l 582 0 l 386 0 l 386 286 l 265 286 l 265 0 l 69 0 m 149 83 l 192 83 l 192 361 l 463 361 l 463 83 l 506 83 l 506 795 l 400 900 l 254 900 l 149 795 l 149 83 m 265 482 l 386 482 l 386 733 l 344 776 l 308 776 l 265 733 l 265 482 m 192 403 l 192 777 l 274 858 l 381 858 l 463 777 l 463 403 l 192 403 m 107 994 l 107 1172 l 546 1172 l 546 994 l 107 994 m 185 1060 l 474 1060 l 474 1100 l 185 1100 l 185 1060 z "},"Ą":{"ha":788,"x_min":3,"x_max":794,"o":"m 583 -256 l 469 -125 l 582 0 l 564 0 l 522 206 l 252 206 l 211 0 l 3 0 l 215 972 l 560 972 l 772 0 l 735 0 l 610 -125 l 631 -147 l 794 -147 l 794 -256 l 583 -256 m 603 -215 l 757 -215 l 757 -188 l 616 -188 l 559 -125 l 689 11 l 692 11 l 502 903 l 276 903 l 99 73 l 144 73 l 185 276 l 592 276 l 646 13 l 653 13 l 524 -125 l 603 -215 m 193 315 l 307 863 l 470 863 l 584 315 l 193 315 m 288 383 l 486 383 l 407 775 l 365 775 l 288 383 z "},"Å":{"ha":651,"x_min":69,"x_max":582,"o":"m 69 0 l 69 829 l 213 972 l 439 972 l 582 829 l 582 0 l 386 0 l 386 286 l 265 286 l 265 0 l 69 0 m 149 83 l 192 83 l 192 361 l 463 361 l 463 83 l 506 83 l 506 795 l 400 900 l 254 900 l 149 795 l 149 83 m 265 482 l 386 482 l 386 733 l 344 776 l 308 776 l 265 733 l 265 482 m 192 403 l 192 777 l 274 858 l 381 858 l 463 777 l 463 403 l 192 403 m 263 993 l 194 1060 l 194 1181 l 263 1249 l 390 1249 l 458 1181 l 458 1060 l 390 993 l 263 993 m 286 1040 l 367 1040 l 413 1085 l 413 1160 l 367 1205 l 286 1205 l 240 1160 l 240 1085 l 286 1040 m 299 1069 l 272 1097 l 272 1148 l 299 1174 l 354 1174 l 381 1148 l 381 1097 l 354 1069 l 299 1069 m 320 1109 l 332 1109 l 338 1116 l 338 1126 l 332 1133 l 320 1133 l 314 1126 l 314 1116 l 320 1109 z "},"Ǻ":{"ha":651,"x_min":69,"x_max":610,"o":"m 69 0 l 69 829 l 213 972 l 439 972 l 582 829 l 582 0 l 386 0 l 386 286 l 265 286 l 265 0 l 69 0 m 149 83 l 192 83 l 192 361 l 463 361 l 463 83 l 506 83 l 506 795 l 400 900 l 254 900 l 149 795 l 149 83 m 265 482 l 386 482 l 386 733 l 344 776 l 308 776 l 265 733 l 265 482 m 192 403 l 192 777 l 274 858 l 381 858 l 463 777 l 463 403 l 192 403 m 263 993 l 194 1060 l 194 1181 l 263 1249 l 390 1249 l 458 1181 l 458 1060 l 390 993 l 263 993 m 286 1040 l 367 1040 l 413 1085 l 413 1160 l 367 1205 l 286 1205 l 240 1160 l 240 1085 l 286 1040 m 299 1069 l 272 1097 l 272 1148 l 299 1174 l 354 1174 l 381 1148 l 381 1097 l 354 1069 l 299 1069 m 320 1109 l 332 1109 l 338 1116 l 338 1126 l 332 1133 l 320 1133 l 314 1126 l 314 1116 l 320 1109 m 242 1272 l 411 1455 l 610 1455 l 413 1272 l 242 1272 m 353 1314 l 390 1314 l 487 1411 l 444 1411 l 353 1314 z "},"Ã":{"ha":651,"x_min":69,"x_max":582,"o":"m 69 0 l 69 829 l 213 972 l 439 972 l 582 829 l 582 0 l 386 0 l 386 286 l 265 286 l 265 0 l 69 0 m 149 83 l 192 83 l 192 361 l 463 361 l 463 83 l 506 83 l 506 795 l 400 900 l 254 900 l 149 795 l 149 83 m 265 482 l 386 482 l 386 733 l 344 776 l 308 776 l 265 733 l 265 482 m 192 403 l 192 777 l 274 858 l 381 858 l 463 777 l 463 403 l 192 403 m 133 994 l 133 1089 l 210 1167 l 334 1167 l 373 1128 l 385 1128 l 385 1167 l 519 1167 l 519 1072 l 441 994 l 317 994 l 278 1033 l 266 1033 l 266 994 l 133 994 m 187 1038 l 219 1038 l 219 1052 l 252 1088 l 297 1088 l 344 1043 l 413 1043 l 468 1101 l 468 1124 l 436 1124 l 436 1110 l 403 1074 l 353 1074 l 307 1119 l 242 1119 l 187 1061 l 187 1038 z "},"Æ":{"ha":1322,"x_min":10,"x_max":1220,"o":"m 10 0 l 424 972 l 1220 972 l 1220 776 l 838 776 l 838 589 l 1194 589 l 1194 392 l 838 392 l 838 197 l 1220 197 l 1220 0 l 642 0 l 642 286 l 344 286 l 224 0 l 10 0 m 107 68 l 153 68 l 281 358 l 719 358 l 719 68 l 1161 68 l 1161 110 l 763 110 l 763 472 l 1133 472 l 1133 514 l 763 514 l 763 866 l 1161 866 l 1161 909 l 476 909 l 107 68 m 299 401 l 503 866 l 719 866 l 719 401 l 299 401 m 424 482 l 642 482 l 642 776 l 549 776 l 424 482 z "},"Ǽ":{"ha":1322,"x_min":10,"x_max":1220,"o":"m 10 0 l 424 972 l 1220 972 l 1220 776 l 838 776 l 838 589 l 1194 589 l 1194 392 l 838 392 l 838 197 l 1220 197 l 1220 0 l 642 0 l 642 286 l 344 286 l 224 0 l 10 0 m 107 68 l 153 68 l 281 358 l 719 358 l 719 68 l 1161 68 l 1161 110 l 763 110 l 763 472 l 1133 472 l 1133 514 l 763 514 l 763 866 l 1161 866 l 1161 909 l 476 909 l 107 68 m 299 401 l 503 866 l 719 866 l 719 401 l 299 401 m 424 482 l 642 482 l 642 776 l 549 776 l 424 482 m 576 994 l 745 1178 l 944 1178 l 747 994 l 576 994 m 687 1037 l 724 1037 l 821 1134 l 778 1134 l 687 1037 z "},"B":{"ha":678,"x_min":76,"x_max":608,"o":"m 76 0 l 76 972 l 434 972 l 577 829 l 577 581 l 515 519 l 608 426 l 608 143 l 465 0 l 76 0 m 157 75 l 424 75 l 532 183 l 532 397 l 419 510 l 398 510 l 499 611 l 499 794 l 394 900 l 157 900 l 157 75 m 200 117 l 200 477 l 392 477 l 489 381 l 489 201 l 405 117 l 200 117 m 200 519 l 200 857 l 374 857 l 456 776 l 456 626 l 348 519 l 200 519 m 273 197 l 369 197 l 412 239 l 412 337 l 351 398 l 273 398 l 273 197 m 273 594 l 312 594 l 381 663 l 381 733 l 339 776 l 273 776 l 273 594 z "},"C":{"ha":639,"x_min":63,"x_max":576,"o":"m 206 0 l 63 143 l 63 829 l 206 972 l 433 972 l 576 829 l 576 606 l 380 606 l 380 733 l 338 776 l 301 776 l 259 733 l 259 239 l 301 197 l 338 197 l 380 239 l 380 367 l 576 367 l 576 143 l 433 0 l 206 0 m 244 77 l 394 77 l 500 183 l 500 299 l 457 299 l 457 201 l 375 120 l 263 120 l 181 201 l 181 774 l 263 855 l 375 855 l 457 774 l 457 676 l 500 676 l 500 792 l 394 897 l 244 897 l 139 792 l 139 183 l 244 77 z "},"Ć":{"ha":639,"x_min":63,"x_max":597,"o":"m 206 0 l 63 143 l 63 829 l 206 972 l 433 972 l 576 829 l 576 606 l 380 606 l 380 733 l 338 776 l 301 776 l 259 733 l 259 239 l 301 197 l 338 197 l 380 239 l 380 367 l 576 367 l 576 143 l 433 0 l 206 0 m 244 77 l 394 77 l 500 183 l 500 299 l 457 299 l 457 201 l 375 120 l 263 120 l 181 201 l 181 774 l 263 855 l 375 855 l 457 774 l 457 676 l 500 676 l 500 792 l 394 897 l 244 897 l 139 792 l 139 183 l 244 77 m 228 994 l 397 1178 l 597 1178 l 399 994 l 228 994 m 339 1037 l 376 1037 l 473 1134 l 431 1134 l 339 1037 z "},"Č":{"ha":639,"x_min":63,"x_max":576,"o":"m 206 0 l 63 143 l 63 829 l 206 972 l 433 972 l 576 829 l 576 606 l 380 606 l 380 733 l 338 776 l 301 776 l 259 733 l 259 239 l 301 197 l 338 197 l 380 239 l 380 367 l 576 367 l 576 143 l 433 0 l 206 0 m 244 77 l 394 77 l 500 183 l 500 299 l 457 299 l 457 201 l 375 120 l 263 120 l 181 201 l 181 774 l 263 855 l 375 855 l 457 774 l 457 676 l 500 676 l 500 792 l 394 897 l 244 897 l 139 792 l 139 183 l 244 77 m 226 994 l 70 1192 l 263 1192 l 313 1117 l 364 1192 l 556 1192 l 401 994 l 226 994 m 263 1043 l 361 1043 l 431 1136 l 390 1136 l 340 1067 l 284 1067 l 235 1136 l 193 1136 l 263 1043 z "},"Ç":{"ha":820,"x_min":76,"x_max":743,"o":"m 279 -242 l 279 -133 l 422 -133 l 442 -111 l 422 -90 l 328 -90 l 328 0 l 219 0 l 76 143 l 76 829 l 219 972 l 599 972 l 743 829 l 743 606 l 547 606 l 547 733 l 504 776 l 315 776 l 273 733 l 273 239 l 315 197 l 504 197 l 547 239 l 547 367 l 743 367 l 743 143 l 599 0 l 515 0 l 611 -111 l 498 -242 l 279 -242 m 332 -201 l 469 -201 l 549 -111 l 469 -22 l 422 -22 l 422 77 l 561 77 l 667 183 l 667 299 l 624 299 l 624 201 l 542 120 l 277 120 l 195 201 l 195 774 l 277 855 l 542 855 l 624 774 l 624 676 l 667 676 l 667 792 l 561 897 l 258 897 l 153 792 l 153 183 l 258 77 l 382 77 l 382 -49 l 451 -49 l 508 -111 l 451 -174 l 332 -174 l 332 -201 z "},"Ḉ":{"ha":639,"x_min":63,"x_max":597,"o":"m 206 0 l 63 143 l 63 829 l 206 972 l 433 972 l 576 829 l 576 606 l 380 606 l 380 733 l 338 776 l 301 776 l 259 733 l 259 239 l 301 197 l 338 197 l 380 239 l 380 367 l 576 367 l 576 143 l 433 0 l 206 0 m 244 77 l 394 77 l 500 183 l 500 299 l 457 299 l 457 201 l 375 120 l 263 120 l 181 201 l 181 774 l 263 855 l 375 855 l 457 774 l 457 676 l 500 676 l 500 792 l 394 897 l 244 897 l 139 792 l 139 183 l 244 77 m 166 -278 l 166 -169 l 308 -169 l 329 -147 l 308 -126 l 215 -126 l 215 -17 l 385 -17 l 498 -147 l 385 -278 l 166 -278 m 219 -237 l 356 -237 l 436 -147 l 356 -58 l 269 -58 l 269 -85 l 338 -85 l 395 -147 l 338 -210 l 219 -210 l 219 -237 m 228 994 l 397 1178 l 597 1178 l 399 994 l 228 994 m 339 1037 l 376 1037 l 473 1134 l 431 1134 l 339 1037 z "},"Ĉ":{"ha":639,"x_min":63,"x_max":576,"o":"m 206 0 l 63 143 l 63 829 l 206 972 l 433 972 l 576 829 l 576 606 l 380 606 l 380 733 l 338 776 l 301 776 l 259 733 l 259 239 l 301 197 l 338 197 l 380 239 l 380 367 l 576 367 l 576 143 l 433 0 l 206 0 m 244 77 l 394 77 l 500 183 l 500 299 l 457 299 l 457 201 l 375 120 l 263 120 l 181 201 l 181 774 l 263 855 l 375 855 l 457 774 l 457 676 l 500 676 l 500 792 l 394 897 l 244 897 l 139 792 l 139 183 l 244 77 m 226 1192 l 401 1192 l 556 994 l 364 994 l 313 1069 l 263 994 l 70 994 l 226 1192 m 263 1143 l 193 1050 l 235 1050 l 284 1119 l 340 1119 l 390 1050 l 431 1050 l 361 1143 l 263 1143 z "},"Ċ":{"ha":639,"x_min":63,"x_max":576,"o":"m 206 0 l 63 143 l 63 829 l 206 972 l 433 972 l 576 829 l 576 606 l 380 606 l 380 733 l 338 776 l 301 776 l 259 733 l 259 239 l 301 197 l 338 197 l 380 239 l 380 367 l 576 367 l 576 143 l 433 0 l 206 0 m 244 77 l 394 77 l 500 183 l 500 299 l 457 299 l 457 201 l 375 120 l 263 120 l 181 201 l 181 774 l 263 855 l 375 855 l 457 774 l 457 676 l 500 676 l 500 792 l 394 897 l 244 897 l 139 792 l 139 183 l 244 77 m 240 1008 l 240 1154 l 388 1154 l 388 1008 l 240 1008 m 298 1064 l 328 1064 l 328 1098 l 298 1098 l 298 1064 z "},"D":{"ha":670,"x_min":76,"x_max":594,"o":"m 76 0 l 76 972 l 451 972 l 594 829 l 594 143 l 451 0 l 76 0 m 273 197 l 356 197 l 398 239 l 398 733 l 356 776 l 273 776 l 273 197 m 154 76 l 410 76 l 515 182 l 515 789 l 410 894 l 154 894 l 154 76 m 197 119 l 197 852 l 391 852 l 473 771 l 473 200 l 391 119 l 197 119 z "},"Ǆ":{"ha":1244,"x_min":76,"x_max":1200,"o":"m 76 0 l 76 972 l 451 972 l 594 829 l 594 143 l 451 0 l 76 0 m 273 197 l 356 197 l 398 239 l 398 733 l 356 776 l 273 776 l 273 197 m 154 76 l 410 76 l 515 182 l 515 789 l 410 894 l 154 894 l 154 76 m 197 119 l 197 852 l 391 852 l 473 771 l 473 200 l 391 119 l 197 119 m 817 77 l 1107 77 l 1107 120 l 867 120 l 867 278 l 1103 693 l 1103 897 l 823 897 l 823 855 l 1056 855 l 1056 702 l 817 286 l 817 77 m 733 0 l 733 308 l 971 728 l 971 776 l 746 776 l 746 972 l 1181 972 l 1181 667 l 947 253 l 947 197 l 1181 197 l 1181 0 l 733 0 m 869 994 l 714 1192 l 906 1192 l 957 1117 l 1008 1192 l 1200 1192 l 1044 994 l 869 994 m 907 1043 l 1005 1043 l 1075 1136 l 1033 1136 l 983 1067 l 928 1067 l 878 1136 l 837 1136 l 907 1043 z "},"Ð":{"ha":828,"x_min":-7,"x_max":783,"o":"m 113 0 l 113 390 l -7 390 l -7 568 l 113 568 l 113 972 l 640 972 l 783 829 l 783 143 l 640 0 l 113 0 m 191 76 l 600 76 l 705 182 l 705 789 l 600 894 l 191 894 l 191 497 l 72 497 l 72 457 l 191 457 l 191 76 m 234 119 l 234 457 l 416 457 l 416 497 l 234 497 l 234 852 l 581 852 l 663 771 l 663 200 l 581 119 l 234 119 m 310 197 l 545 197 l 588 239 l 588 733 l 545 776 l 310 776 l 310 568 l 488 568 l 488 390 l 310 390 l 310 197 z "},"Ď":{"ha":670,"x_min":76,"x_max":594,"o":"m 76 0 l 76 972 l 451 972 l 594 829 l 594 143 l 451 0 l 76 0 m 273 197 l 356 197 l 398 239 l 398 733 l 356 776 l 273 776 l 273 197 m 154 76 l 410 76 l 515 182 l 515 789 l 410 894 l 154 894 l 154 76 m 197 119 l 197 852 l 391 852 l 473 771 l 473 200 l 391 119 l 197 119 m 248 994 l 92 1192 l 285 1192 l 335 1117 l 386 1192 l 578 1192 l 423 994 l 248 994 m 285 1043 l 383 1043 l 453 1136 l 412 1136 l 362 1067 l 306 1067 l 257 1136 l 215 1136 l 285 1043 z "},"Đ":{"ha":828,"x_min":-7,"x_max":783,"o":"m 113 0 l 113 390 l -7 390 l -7 568 l 113 568 l 113 972 l 640 972 l 783 829 l 783 143 l 640 0 l 113 0 m 191 76 l 600 76 l 705 182 l 705 789 l 600 894 l 191 894 l 191 497 l 72 497 l 72 457 l 191 457 l 191 76 m 234 119 l 234 457 l 416 457 l 416 497 l 234 497 l 234 852 l 581 852 l 663 771 l 663 200 l 581 119 l 234 119 m 310 197 l 545 197 l 588 239 l 588 733 l 545 776 l 310 776 l 310 568 l 488 568 l 488 390 l 310 390 l 310 197 z "},"Ḍ":{"ha":670,"x_min":76,"x_max":594,"o":"m 76 0 l 76 972 l 451 972 l 594 829 l 594 143 l 451 0 l 76 0 m 273 197 l 356 197 l 398 239 l 398 733 l 356 776 l 273 776 l 273 197 m 154 76 l 410 76 l 515 182 l 515 789 l 410 894 l 154 894 l 154 76 m 197 119 l 197 852 l 391 852 l 473 771 l 473 200 l 391 119 l 197 119 m 262 -188 l 262 -42 l 409 -42 l 409 -188 l 262 -188 m 319 -133 l 349 -133 l 349 -99 l 319 -99 l 319 -133 z "},"Ḏ":{"ha":670,"x_min":76,"x_max":594,"o":"m 76 0 l 76 972 l 451 972 l 594 829 l 594 143 l 451 0 l 76 0 m 273 197 l 356 197 l 398 239 l 398 733 l 356 776 l 273 776 l 273 197 m 154 76 l 410 76 l 515 182 l 515 789 l 410 894 l 154 894 l 154 76 m 197 119 l 197 852 l 391 852 l 473 771 l 473 200 l 391 119 l 197 119 m 116 -226 l 116 -49 l 555 -49 l 555 -226 l 116 -226 m 194 -160 l 483 -160 l 483 -120 l 194 -120 l 194 -160 z "},"ǅ":{"ha":1240,"x_min":76,"x_max":1198,"o":"m 76 0 l 76 972 l 451 972 l 594 829 l 594 143 l 451 0 l 76 0 m 273 197 l 356 197 l 398 239 l 398 733 l 356 776 l 273 776 l 273 197 m 154 76 l 410 76 l 515 182 l 515 789 l 410 894 l 154 894 l 154 76 m 197 119 l 197 852 l 391 852 l 473 771 l 473 200 l 391 119 l 197 119 m 829 78 l 1101 78 l 1101 121 l 882 121 l 882 246 l 1084 495 l 1084 674 l 822 674 l 822 631 l 1032 631 l 1032 500 l 829 250 l 829 78 m 736 0 l 736 267 l 941 526 l 941 553 l 749 553 l 749 750 l 1174 750 l 1174 478 l 974 226 l 974 197 l 1174 197 l 1174 0 l 736 0 m 867 772 l 712 969 l 904 969 l 955 894 l 1006 969 l 1198 969 l 1042 772 l 867 772 m 905 821 l 1003 821 l 1073 914 l 1031 914 l 981 844 l 926 844 l 876 914 l 835 914 l 905 821 z "},"E":{"ha":558,"x_min":69,"x_max":488,"o":"m 69 0 l 69 972 l 488 972 l 488 776 l 266 776 l 266 589 l 440 589 l 440 392 l 266 392 l 266 197 l 488 197 l 488 0 l 69 0 m 149 80 l 422 80 l 422 122 l 191 122 l 191 469 l 373 469 l 373 513 l 191 513 l 191 855 l 422 855 l 422 897 l 149 897 l 149 80 z "},"É":{"ha":558,"x_min":69,"x_max":580,"o":"m 69 0 l 69 972 l 488 972 l 488 776 l 266 776 l 266 589 l 440 589 l 440 392 l 266 392 l 266 197 l 488 197 l 488 0 l 69 0 m 149 80 l 422 80 l 422 122 l 191 122 l 191 469 l 373 469 l 373 513 l 191 513 l 191 855 l 422 855 l 422 897 l 149 897 l 149 80 m 211 994 l 381 1178 l 580 1178 l 383 994 l 211 994 m 322 1037 l 360 1037 l 456 1134 l 414 1134 l 322 1037 z "},"Ĕ":{"ha":558,"x_min":69,"x_max":488,"o":"m 69 0 l 69 972 l 488 972 l 488 776 l 266 776 l 266 589 l 440 589 l 440 392 l 266 392 l 266 197 l 488 197 l 488 0 l 69 0 m 149 80 l 422 80 l 422 122 l 191 122 l 191 469 l 373 469 l 373 513 l 191 513 l 191 855 l 422 855 l 422 897 l 149 897 l 149 80 m 214 994 l 136 1072 l 136 1181 l 269 1181 l 269 1128 l 324 1128 l 324 1181 l 457 1181 l 457 1072 l 379 994 l 214 994 m 245 1043 l 349 1043 l 404 1101 l 404 1130 l 372 1130 l 372 1110 l 339 1074 l 256 1074 l 222 1110 l 222 1130 l 190 1130 l 190 1101 l 245 1043 z "},"Ě":{"ha":558,"x_min":53,"x_max":540,"o":"m 69 0 l 69 972 l 488 972 l 488 776 l 266 776 l 266 589 l 440 589 l 440 392 l 266 392 l 266 197 l 488 197 l 488 0 l 69 0 m 149 80 l 422 80 l 422 122 l 191 122 l 191 469 l 373 469 l 373 513 l 191 513 l 191 855 l 422 855 l 422 897 l 149 897 l 149 80 m 209 994 l 53 1192 l 246 1192 l 297 1117 l 347 1192 l 540 1192 l 384 994 l 209 994 m 247 1043 l 344 1043 l 415 1136 l 373 1136 l 323 1067 l 267 1067 l 218 1136 l 176 1136 l 247 1043 z "},"Ḝ":{"ha":558,"x_min":69,"x_max":488,"o":"m 69 0 l 69 972 l 488 972 l 488 776 l 266 776 l 266 589 l 440 589 l 440 392 l 266 392 l 266 197 l 488 197 l 488 0 l 69 0 m 149 80 l 422 80 l 422 122 l 191 122 l 191 469 l 373 469 l 373 513 l 191 513 l 191 855 l 422 855 l 422 897 l 149 897 l 149 80 m 149 -278 l 149 -169 l 292 -169 l 313 -147 l 292 -126 l 199 -126 l 199 -17 l 368 -17 l 481 -147 l 368 -278 l 149 -278 m 202 -237 l 339 -237 l 419 -147 l 339 -58 l 252 -58 l 252 -85 l 322 -85 l 378 -147 l 322 -210 l 202 -210 l 202 -237 m 214 994 l 136 1072 l 136 1181 l 269 1181 l 269 1128 l 324 1128 l 324 1181 l 457 1181 l 457 1072 l 379 994 l 214 994 m 245 1043 l 349 1043 l 404 1101 l 404 1130 l 372 1130 l 372 1110 l 339 1074 l 256 1074 l 222 1110 l 222 1130 l 190 1130 l 190 1101 l 245 1043 z "},"Ê":{"ha":558,"x_min":53,"x_max":540,"o":"m 69 0 l 69 972 l 488 972 l 488 776 l 266 776 l 266 589 l 440 589 l 440 392 l 266 392 l 266 197 l 488 197 l 488 0 l 69 0 m 149 80 l 422 80 l 422 122 l 191 122 l 191 469 l 373 469 l 373 513 l 191 513 l 191 855 l 422 855 l 422 897 l 149 897 l 149 80 m 209 1192 l 384 1192 l 540 994 l 347 994 l 297 1069 l 246 994 l 53 994 l 209 1192 m 247 1143 l 176 1050 l 218 1050 l 267 1119 l 323 1119 l 373 1050 l 415 1050 l 344 1143 l 247 1143 z "},"Ế":{"ha":558,"x_min":53,"x_max":801,"o":"m 69 0 l 69 972 l 488 972 l 488 776 l 266 776 l 266 589 l 440 589 l 440 392 l 266 392 l 266 197 l 488 197 l 488 0 l 69 0 m 149 80 l 422 80 l 422 122 l 191 122 l 191 469 l 373 469 l 373 513 l 191 513 l 191 855 l 422 855 l 422 897 l 149 897 l 149 80 m 209 1192 l 384 1192 l 540 994 l 347 994 l 297 1069 l 246 994 l 53 994 l 209 1192 m 247 1143 l 176 1050 l 218 1050 l 267 1119 l 323 1119 l 373 1050 l 415 1050 l 344 1143 l 247 1143 m 433 1153 l 602 1336 l 801 1336 l 604 1153 l 433 1153 m 544 1195 l 581 1195 l 678 1292 l 635 1292 l 544 1195 z "},"Ệ":{"ha":558,"x_min":53,"x_max":540,"o":"m 69 0 l 69 972 l 488 972 l 488 776 l 266 776 l 266 589 l 440 589 l 440 392 l 266 392 l 266 197 l 488 197 l 488 0 l 69 0 m 149 80 l 422 80 l 422 122 l 191 122 l 191 469 l 373 469 l 373 513 l 191 513 l 191 855 l 422 855 l 422 897 l 149 897 l 149 80 m 223 -188 l 223 -42 l 370 -42 l 370 -188 l 223 -188 m 281 -133 l 310 -133 l 310 -99 l 281 -99 l 281 -133 m 209 1192 l 384 1192 l 540 994 l 347 994 l 297 1069 l 246 994 l 53 994 l 209 1192 m 247 1143 l 176 1050 l 218 1050 l 267 1119 l 323 1119 l 373 1050 l 415 1050 l 344 1143 l 247 1143 z "},"Ề":{"ha":558,"x_min":53,"x_max":635,"o":"m 69 0 l 69 972 l 488 972 l 488 776 l 266 776 l 266 589 l 440 589 l 440 392 l 266 392 l 266 197 l 488 197 l 488 0 l 69 0 m 149 80 l 422 80 l 422 122 l 191 122 l 191 469 l 373 469 l 373 513 l 191 513 l 191 855 l 422 855 l 422 897 l 149 897 l 149 80 m 209 1192 l 384 1192 l 540 994 l 347 994 l 297 1069 l 246 994 l 53 994 l 209 1192 m 247 1143 l 176 1050 l 218 1050 l 267 1119 l 323 1119 l 373 1050 l 415 1050 l 344 1143 l 247 1143 m 635 1153 l 464 1153 l 267 1336 l 466 1336 l 635 1153 m 524 1195 l 433 1292 l 391 1292 l 488 1195 l 524 1195 z "},"Ể":{"ha":558,"x_min":53,"x_max":726,"o":"m 69 0 l 69 972 l 488 972 l 488 776 l 266 776 l 266 589 l 440 589 l 440 392 l 266 392 l 266 197 l 488 197 l 488 0 l 69 0 m 149 80 l 422 80 l 422 122 l 191 122 l 191 469 l 373 469 l 373 513 l 191 513 l 191 855 l 422 855 l 422 897 l 149 897 l 149 80 m 209 1192 l 384 1192 l 540 994 l 347 994 l 297 1069 l 246 994 l 53 994 l 209 1192 m 247 1143 l 176 1050 l 218 1050 l 267 1119 l 323 1119 l 373 1050 l 415 1050 l 344 1143 l 247 1143 m 394 1388 l 613 1388 l 726 1257 l 613 1127 l 443 1127 l 443 1236 l 536 1236 l 557 1257 l 536 1279 l 394 1279 l 394 1388 m 447 1347 l 447 1320 l 566 1320 l 623 1257 l 566 1195 l 497 1195 l 497 1168 l 583 1168 l 664 1257 l 583 1347 l 447 1347 z "},"Ễ":{"ha":558,"x_min":53,"x_max":540,"o":"m 69 0 l 69 972 l 488 972 l 488 776 l 266 776 l 266 589 l 440 589 l 440 392 l 266 392 l 266 197 l 488 197 l 488 0 l 69 0 m 149 80 l 422 80 l 422 122 l 191 122 l 191 469 l 373 469 l 373 513 l 191 513 l 191 855 l 422 855 l 422 897 l 149 897 l 149 80 m 209 1192 l 384 1192 l 540 994 l 347 994 l 297 1069 l 246 994 l 53 994 l 209 1192 m 247 1143 l 176 1050 l 218 1050 l 267 1119 l 323 1119 l 373 1050 l 415 1050 l 344 1143 l 247 1143 m 103 1214 l 103 1308 l 181 1386 l 304 1386 l 343 1347 l 356 1347 l 356 1386 l 489 1386 l 489 1292 l 411 1214 l 288 1214 l 249 1253 l 236 1253 l 236 1214 l 103 1214 m 157 1258 l 189 1258 l 189 1272 l 222 1308 l 267 1308 l 315 1263 l 383 1263 l 438 1321 l 438 1344 l 406 1344 l 406 1330 l 373 1294 l 323 1294 l 277 1339 l 212 1339 l 157 1281 l 157 1258 z "},"Ȅ":{"ha":558,"x_min":-117,"x_max":524,"o":"m 69 0 l 69 972 l 488 972 l 488 776 l 266 776 l 266 589 l 440 589 l 440 392 l 266 392 l 266 197 l 488 197 l 488 0 l 69 0 m 149 80 l 422 80 l 422 122 l 191 122 l 191 469 l 373 469 l 373 513 l 191 513 l 191 855 l 422 855 l 422 897 l 149 897 l 149 80 m 524 994 l 353 994 l 156 1178 l 355 1178 l 524 994 m 413 1037 l 322 1134 l 280 1134 l 376 1037 l 413 1037 m 252 994 l 81 994 l -117 1178 l 83 1178 l 252 994 m 141 1037 l 49 1134 l 8 1134 l 104 1037 l 141 1037 z "},"Ë":{"ha":558,"x_min":69,"x_max":515,"o":"m 69 0 l 69 972 l 488 972 l 488 776 l 266 776 l 266 589 l 440 589 l 440 392 l 266 392 l 266 197 l 488 197 l 488 0 l 69 0 m 149 80 l 422 80 l 422 122 l 191 122 l 191 469 l 373 469 l 373 513 l 191 513 l 191 855 l 422 855 l 422 897 l 149 897 l 149 80 m 368 1008 l 368 1154 l 515 1154 l 515 1008 l 368 1008 m 79 1008 l 79 1154 l 226 1154 l 226 1008 l 79 1008 m 137 1064 l 167 1064 l 167 1098 l 137 1098 l 137 1064 m 427 1064 l 456 1064 l 456 1098 l 427 1098 l 427 1064 z "},"Ė":{"ha":558,"x_min":69,"x_max":488,"o":"m 69 0 l 69 972 l 488 972 l 488 776 l 266 776 l 266 589 l 440 589 l 440 392 l 266 392 l 266 197 l 488 197 l 488 0 l 69 0 m 149 80 l 422 80 l 422 122 l 191 122 l 191 469 l 373 469 l 373 513 l 191 513 l 191 855 l 422 855 l 422 897 l 149 897 l 149 80 m 224 1008 l 224 1154 l 371 1154 l 371 1008 l 224 1008 m 281 1064 l 311 1064 l 311 1098 l 281 1098 l 281 1064 z "},"Ẹ":{"ha":558,"x_min":69,"x_max":488,"o":"m 69 0 l 69 972 l 488 972 l 488 776 l 266 776 l 266 589 l 440 589 l 440 392 l 266 392 l 266 197 l 488 197 l 488 0 l 69 0 m 149 80 l 422 80 l 422 122 l 191 122 l 191 469 l 373 469 l 373 513 l 191 513 l 191 855 l 422 855 l 422 897 l 149 897 l 149 80 m 223 -188 l 223 -42 l 370 -42 l 370 -188 l 223 -188 m 281 -133 l 310 -133 l 310 -99 l 281 -99 l 281 -133 z "},"È":{"ha":558,"x_min":28,"x_max":488,"o":"m 69 0 l 69 972 l 488 972 l 488 776 l 266 776 l 266 589 l 440 589 l 440 392 l 266 392 l 266 197 l 488 197 l 488 0 l 69 0 m 149 80 l 422 80 l 422 122 l 191 122 l 191 469 l 373 469 l 373 513 l 191 513 l 191 855 l 422 855 l 422 897 l 149 897 l 149 80 m 397 994 l 226 994 l 28 1178 l 228 1178 l 397 994 m 286 1037 l 194 1134 l 153 1134 l 249 1037 l 286 1037 z "},"Ẻ":{"ha":558,"x_min":69,"x_max":488,"o":"m 69 0 l 69 972 l 488 972 l 488 776 l 266 776 l 266 589 l 440 589 l 440 392 l 266 392 l 266 197 l 488 197 l 488 0 l 69 0 m 149 80 l 422 80 l 422 122 l 191 122 l 191 469 l 373 469 l 373 513 l 191 513 l 191 855 l 422 855 l 422 897 l 149 897 l 149 80 m 131 1251 l 349 1251 l 463 1120 l 349 990 l 180 990 l 180 1099 l 273 1099 l 294 1120 l 273 1142 l 131 1142 l 131 1251 m 183 1210 l 183 1183 l 303 1183 l 360 1120 l 303 1058 l 233 1058 l 233 1031 l 320 1031 l 401 1120 l 320 1210 l 183 1210 z "},"Ȇ":{"ha":558,"x_min":69,"x_max":488,"o":"m 69 0 l 69 972 l 488 972 l 488 776 l 266 776 l 266 589 l 440 589 l 440 392 l 266 392 l 266 197 l 488 197 l 488 0 l 69 0 m 149 80 l 422 80 l 422 122 l 191 122 l 191 469 l 373 469 l 373 513 l 191 513 l 191 855 l 422 855 l 422 897 l 149 897 l 149 80 m 379 1180 l 457 1102 l 457 994 l 324 994 l 324 1047 l 269 1047 l 269 994 l 136 994 l 136 1102 l 214 1180 l 379 1180 m 348 1131 l 244 1131 l 189 1073 l 189 1044 l 221 1044 l 221 1064 l 254 1100 l 338 1100 l 371 1064 l 371 1044 l 403 1044 l 403 1073 l 348 1131 z "},"Ē":{"ha":558,"x_min":69,"x_max":516,"o":"m 69 0 l 69 972 l 488 972 l 488 776 l 266 776 l 266 589 l 440 589 l 440 392 l 266 392 l 266 197 l 488 197 l 488 0 l 69 0 m 149 80 l 422 80 l 422 122 l 191 122 l 191 469 l 373 469 l 373 513 l 191 513 l 191 855 l 422 855 l 422 897 l 149 897 l 149 80 m 77 994 l 77 1172 l 516 1172 l 516 994 l 77 994 m 156 1060 l 444 1060 l 444 1100 l 156 1100 l 156 1060 z "},"Ḗ":{"ha":558,"x_min":69,"x_max":580,"o":"m 69 0 l 69 972 l 488 972 l 488 776 l 266 776 l 266 589 l 440 589 l 440 392 l 266 392 l 266 197 l 488 197 l 488 0 l 69 0 m 149 80 l 422 80 l 422 122 l 191 122 l 191 469 l 373 469 l 373 513 l 191 513 l 191 855 l 422 855 l 422 897 l 149 897 l 149 80 m 77 994 l 77 1172 l 516 1172 l 516 994 l 77 994 m 156 1060 l 444 1060 l 444 1100 l 156 1100 l 156 1060 m 211 1194 l 381 1377 l 580 1377 l 383 1194 l 211 1194 m 322 1236 l 360 1236 l 456 1333 l 414 1333 l 322 1236 z "},"Ḕ":{"ha":558,"x_min":28,"x_max":516,"o":"m 69 0 l 69 972 l 488 972 l 488 776 l 266 776 l 266 589 l 440 589 l 440 392 l 266 392 l 266 197 l 488 197 l 488 0 l 69 0 m 149 80 l 422 80 l 422 122 l 191 122 l 191 469 l 373 469 l 373 513 l 191 513 l 191 855 l 422 855 l 422 897 l 149 897 l 149 80 m 77 994 l 77 1172 l 516 1172 l 516 994 l 77 994 m 156 1060 l 444 1060 l 444 1100 l 156 1100 l 156 1060 m 397 1194 l 226 1194 l 28 1377 l 228 1377 l 397 1194 m 286 1236 l 194 1333 l 153 1333 l 249 1236 l 286 1236 z "},"Ę":{"ha":717,"x_min":69,"x_max":648,"o":"m 403 -256 l 290 -125 l 402 0 l 69 0 l 69 972 l 648 972 l 648 776 l 266 776 l 266 589 l 600 589 l 600 392 l 266 392 l 266 197 l 648 197 l 648 0 l 556 0 l 431 -125 l 451 -147 l 615 -147 l 615 -256 l 403 -256 m 419 -215 l 573 -215 l 573 -188 l 432 -188 l 375 -125 l 567 80 l 581 80 l 581 122 l 191 122 l 191 469 l 533 469 l 533 513 l 191 513 l 191 855 l 581 855 l 581 897 l 149 897 l 149 80 l 529 80 l 529 76 l 340 -125 l 419 -215 z "},"Ẽ":{"ha":558,"x_min":69,"x_max":489,"o":"m 69 0 l 69 972 l 488 972 l 488 776 l 266 776 l 266 589 l 440 589 l 440 392 l 266 392 l 266 197 l 488 197 l 488 0 l 69 0 m 149 80 l 422 80 l 422 122 l 191 122 l 191 469 l 373 469 l 373 513 l 191 513 l 191 855 l 422 855 l 422 897 l 149 897 l 149 80 m 103 994 l 103 1089 l 181 1167 l 304 1167 l 343 1128 l 356 1128 l 356 1167 l 489 1167 l 489 1072 l 411 994 l 288 994 l 249 1033 l 236 1033 l 236 994 l 103 994 m 157 1038 l 189 1038 l 189 1052 l 222 1088 l 267 1088 l 315 1043 l 383 1043 l 438 1101 l 438 1124 l 406 1124 l 406 1110 l 373 1074 l 323 1074 l 277 1119 l 212 1119 l 157 1061 l 157 1038 z "},"F":{"ha":516,"x_min":69,"x_max":474,"o":"m 69 0 l 69 972 l 474 972 l 474 776 l 266 776 l 266 589 l 448 589 l 448 392 l 266 392 l 266 0 l 69 0 m 146 74 l 189 74 l 189 472 l 372 472 l 372 514 l 189 514 l 189 855 l 399 855 l 399 897 l 146 897 l 146 74 z "},"G":{"ha":672,"x_min":69,"x_max":603,"o":"m 213 0 l 69 143 l 69 829 l 213 972 l 460 972 l 603 829 l 603 654 l 407 654 l 407 733 l 365 776 l 307 776 l 265 732 l 265 238 l 307 197 l 365 197 l 407 239 l 407 335 l 316 335 l 316 531 l 603 531 l 603 143 l 460 0 l 213 0 m 253 80 l 421 80 l 526 185 l 526 452 l 393 452 l 393 410 l 483 410 l 483 203 l 402 122 l 272 122 l 190 203 l 190 774 l 272 855 l 402 855 l 483 774 l 483 727 l 526 727 l 526 792 l 421 897 l 253 897 l 147 792 l 147 185 l 253 80 z "},"Ğ":{"ha":672,"x_min":69,"x_max":603,"o":"m 213 0 l 69 143 l 69 829 l 213 972 l 460 972 l 603 829 l 603 654 l 407 654 l 407 733 l 365 776 l 307 776 l 265 732 l 265 238 l 307 197 l 365 197 l 407 239 l 407 335 l 316 335 l 316 531 l 603 531 l 603 143 l 460 0 l 213 0 m 253 80 l 421 80 l 526 185 l 526 452 l 393 452 l 393 410 l 483 410 l 483 203 l 402 122 l 272 122 l 190 203 l 190 774 l 272 855 l 402 855 l 483 774 l 483 727 l 526 727 l 526 792 l 421 897 l 253 897 l 147 792 l 147 185 l 253 80 m 258 994 l 180 1072 l 180 1181 l 313 1181 l 313 1128 l 367 1128 l 367 1181 l 501 1181 l 501 1072 l 423 994 l 258 994 m 289 1043 l 392 1043 l 448 1101 l 448 1130 l 416 1130 l 416 1110 l 383 1074 l 299 1074 l 266 1110 l 266 1130 l 234 1130 l 234 1101 l 289 1043 z "},"Ǧ":{"ha":672,"x_min":69,"x_max":603,"o":"m 213 0 l 69 143 l 69 829 l 213 972 l 460 972 l 603 829 l 603 654 l 407 654 l 407 733 l 365 776 l 307 776 l 265 732 l 265 238 l 307 197 l 365 197 l 407 239 l 407 335 l 316 335 l 316 531 l 603 531 l 603 143 l 460 0 l 213 0 m 253 80 l 421 80 l 526 185 l 526 452 l 393 452 l 393 410 l 483 410 l 483 203 l 402 122 l 272 122 l 190 203 l 190 774 l 272 855 l 402 855 l 483 774 l 483 727 l 526 727 l 526 792 l 421 897 l 253 897 l 147 792 l 147 185 l 253 80 m 253 994 l 97 1192 l 290 1192 l 340 1117 l 391 1192 l 583 1192 l 428 994 l 253 994 m 290 1043 l 388 1043 l 458 1136 l 417 1136 l 367 1067 l 311 1067 l 262 1136 l 220 1136 l 290 1043 z "},"Ĝ":{"ha":672,"x_min":69,"x_max":603,"o":"m 213 0 l 69 143 l 69 829 l 213 972 l 460 972 l 603 829 l 603 654 l 407 654 l 407 733 l 365 776 l 307 776 l 265 732 l 265 238 l 307 197 l 365 197 l 407 239 l 407 335 l 316 335 l 316 531 l 603 531 l 603 143 l 460 0 l 213 0 m 253 80 l 421 80 l 526 185 l 526 452 l 393 452 l 393 410 l 483 410 l 483 203 l 402 122 l 272 122 l 190 203 l 190 774 l 272 855 l 402 855 l 483 774 l 483 727 l 526 727 l 526 792 l 421 897 l 253 897 l 147 792 l 147 185 l 253 80 m 253 1192 l 428 1192 l 583 994 l 391 994 l 340 1069 l 290 994 l 97 994 l 253 1192 m 290 1143 l 220 1050 l 262 1050 l 311 1119 l 367 1119 l 417 1050 l 458 1050 l 388 1143 l 290 1143 z "},"Ģ":{"ha":672,"x_min":69,"x_max":603,"o":"m 213 0 l 69 143 l 69 829 l 213 972 l 460 972 l 603 829 l 603 654 l 407 654 l 407 733 l 365 776 l 307 776 l 265 732 l 265 238 l 307 197 l 365 197 l 407 239 l 407 335 l 316 335 l 316 531 l 603 531 l 603 143 l 460 0 l 213 0 m 253 80 l 421 80 l 526 185 l 526 452 l 393 452 l 393 410 l 483 410 l 483 203 l 402 122 l 272 122 l 190 203 l 190 774 l 272 855 l 402 855 l 483 774 l 483 727 l 526 727 l 526 792 l 421 897 l 253 897 l 147 792 l 147 185 l 253 80 m 168 -368 l 247 -50 l 435 -50 l 325 -368 l 168 -368 m 250 -303 l 278 -303 l 341 -130 l 295 -130 l 250 -303 z "},"Ġ":{"ha":672,"x_min":69,"x_max":603,"o":"m 213 0 l 69 143 l 69 829 l 213 972 l 460 972 l 603 829 l 603 654 l 407 654 l 407 733 l 365 776 l 307 776 l 265 732 l 265 238 l 307 197 l 365 197 l 407 239 l 407 335 l 316 335 l 316 531 l 603 531 l 603 143 l 460 0 l 213 0 m 253 80 l 421 80 l 526 185 l 526 452 l 393 452 l 393 410 l 483 410 l 483 203 l 402 122 l 272 122 l 190 203 l 190 774 l 272 855 l 402 855 l 483 774 l 483 727 l 526 727 l 526 792 l 421 897 l 253 897 l 147 792 l 147 185 l 253 80 m 267 1008 l 267 1154 l 415 1154 l 415 1008 l 267 1008 m 325 1064 l 355 1064 l 355 1098 l 325 1098 l 325 1064 z "},"Ḡ":{"ha":672,"x_min":69,"x_max":603,"o":"m 213 0 l 69 143 l 69 829 l 213 972 l 460 972 l 603 829 l 603 654 l 407 654 l 407 733 l 365 776 l 307 776 l 265 732 l 265 238 l 307 197 l 365 197 l 407 239 l 407 335 l 316 335 l 316 531 l 603 531 l 603 143 l 460 0 l 213 0 m 253 80 l 421 80 l 526 185 l 526 452 l 393 452 l 393 410 l 483 410 l 483 203 l 402 122 l 272 122 l 190 203 l 190 774 l 272 855 l 402 855 l 483 774 l 483 727 l 526 727 l 526 792 l 421 897 l 253 897 l 147 792 l 147 185 l 253 80 m 121 994 l 121 1172 l 560 1172 l 560 994 l 121 994 m 199 1060 l 488 1060 l 488 1100 l 199 1100 l 199 1060 z "},"H":{"ha":656,"x_min":76,"x_max":580,"o":"m 76 0 l 76 972 l 273 972 l 273 589 l 384 589 l 384 972 l 580 972 l 580 0 l 384 0 l 384 392 l 273 392 l 273 0 l 76 0 m 153 75 l 197 75 l 197 472 l 461 472 l 461 75 l 504 75 l 504 897 l 461 897 l 461 514 l 197 514 l 197 897 l 153 897 l 153 75 z "},"Ħ":{"ha":861,"x_min":13,"x_max":828,"o":"m 88 0 l 88 680 l 13 680 l 13 851 l 88 851 l 88 972 l 285 972 l 285 851 l 563 851 l 563 972 l 759 972 l 759 851 l 828 851 l 828 680 l 759 680 l 759 0 l 563 0 l 563 392 l 285 392 l 285 0 l 88 0 m 165 74 l 208 74 l 208 472 l 639 472 l 639 74 l 682 74 l 682 753 l 768 753 l 768 792 l 682 792 l 682 903 l 639 903 l 639 792 l 208 792 l 208 903 l 165 903 l 165 792 l 78 792 l 78 753 l 165 753 l 165 74 m 208 514 l 208 753 l 639 753 l 639 514 l 208 514 m 285 589 l 563 589 l 563 680 l 285 680 l 285 589 z "},"Ḫ":{"ha":656,"x_min":76,"x_max":580,"o":"m 76 0 l 76 972 l 273 972 l 273 589 l 384 589 l 384 972 l 580 972 l 580 0 l 384 0 l 384 392 l 273 392 l 273 0 l 76 0 m 153 75 l 197 75 l 197 472 l 461 472 l 461 75 l 504 75 l 504 897 l 461 897 l 461 514 l 197 514 l 197 897 l 153 897 l 153 75 m 246 -236 l 168 -158 l 168 -50 l 301 -50 l 301 -103 l 356 -103 l 356 -50 l 489 -50 l 489 -158 l 411 -236 l 246 -236 m 277 -187 l 381 -187 l 436 -129 l 436 -101 l 404 -101 l 404 -120 l 371 -156 l 288 -156 l 254 -120 l 254 -101 l 222 -101 l 222 -129 l 277 -187 z "},"Ĥ":{"ha":656,"x_min":76,"x_max":580,"o":"m 76 0 l 76 972 l 273 972 l 273 589 l 384 589 l 384 972 l 580 972 l 580 0 l 384 0 l 384 392 l 273 392 l 273 0 l 76 0 m 153 75 l 197 75 l 197 472 l 461 472 l 461 75 l 504 75 l 504 897 l 461 897 l 461 514 l 197 514 l 197 897 l 153 897 l 153 75 m 241 1192 l 416 1192 l 572 994 l 379 994 l 328 1069 l 278 994 l 85 994 l 241 1192 m 278 1143 l 208 1050 l 250 1050 l 299 1119 l 355 1119 l 405 1050 l 447 1050 l 376 1143 l 278 1143 z "},"Ḥ":{"ha":656,"x_min":76,"x_max":580,"o":"m 76 0 l 76 972 l 273 972 l 273 589 l 384 589 l 384 972 l 580 972 l 580 0 l 384 0 l 384 392 l 273 392 l 273 0 l 76 0 m 153 75 l 197 75 l 197 472 l 461 472 l 461 75 l 504 75 l 504 897 l 461 897 l 461 514 l 197 514 l 197 897 l 153 897 l 153 75 m 255 -188 l 255 -42 l 402 -42 l 402 -188 l 255 -188 m 313 -133 l 342 -133 l 342 -99 l 313 -99 l 313 -133 z "},"I":{"ha":529,"x_min":69,"x_max":460,"o":"m 69 0 l 69 197 l 167 197 l 167 776 l 69 776 l 69 972 l 460 972 l 460 776 l 363 776 l 363 197 l 460 197 l 460 0 l 69 0 m 146 76 l 384 76 l 384 119 l 280 119 l 280 855 l 384 855 l 384 897 l 146 897 l 146 855 l 238 855 l 238 119 l 146 119 l 146 76 z "},"Í":{"ha":529,"x_min":69,"x_max":548,"o":"m 69 0 l 69 197 l 167 197 l 167 776 l 69 776 l 69 972 l 460 972 l 460 776 l 363 776 l 363 197 l 460 197 l 460 0 l 69 0 m 146 76 l 384 76 l 384 119 l 280 119 l 280 855 l 384 855 l 384 897 l 146 897 l 146 855 l 238 855 l 238 119 l 146 119 l 146 76 m 179 994 l 349 1178 l 548 1178 l 351 994 l 179 994 m 290 1037 l 328 1037 l 424 1134 l 382 1134 l 290 1037 z "},"Ĭ":{"ha":529,"x_min":69,"x_max":460,"o":"m 69 0 l 69 197 l 167 197 l 167 776 l 69 776 l 69 972 l 460 972 l 460 776 l 363 776 l 363 197 l 460 197 l 460 0 l 69 0 m 146 76 l 384 76 l 384 119 l 280 119 l 280 855 l 384 855 l 384 897 l 146 897 l 146 855 l 238 855 l 238 119 l 146 119 l 146 76 m 182 994 l 104 1072 l 104 1181 l 238 1181 l 238 1128 l 292 1128 l 292 1181 l 425 1181 l 425 1072 l 347 994 l 182 994 m 213 1043 l 317 1043 l 372 1101 l 372 1130 l 340 1130 l 340 1110 l 307 1074 l 224 1074 l 190 1110 l 190 1130 l 158 1130 l 158 1101 l 213 1043 z "},"Ǐ":{"ha":529,"x_min":22,"x_max":508,"o":"m 69 0 l 69 197 l 167 197 l 167 776 l 69 776 l 69 972 l 460 972 l 460 776 l 363 776 l 363 197 l 460 197 l 460 0 l 69 0 m 146 76 l 384 76 l 384 119 l 280 119 l 280 855 l 384 855 l 384 897 l 146 897 l 146 855 l 238 855 l 238 119 l 146 119 l 146 76 m 177 994 l 22 1192 l 214 1192 l 265 1117 l 315 1192 l 508 1192 l 352 994 l 177 994 m 215 1043 l 313 1043 l 383 1136 l 341 1136 l 291 1067 l 235 1067 l 186 1136 l 144 1136 l 215 1043 z "},"Î":{"ha":529,"x_min":22,"x_max":508,"o":"m 69 0 l 69 197 l 167 197 l 167 776 l 69 776 l 69 972 l 460 972 l 460 776 l 363 776 l 363 197 l 460 197 l 460 0 l 69 0 m 146 76 l 384 76 l 384 119 l 280 119 l 280 855 l 384 855 l 384 897 l 146 897 l 146 855 l 238 855 l 238 119 l 146 119 l 146 76 m 177 1192 l 352 1192 l 508 994 l 315 994 l 265 1069 l 214 994 l 22 994 l 177 1192 m 215 1143 l 144 1050 l 186 1050 l 235 1119 l 291 1119 l 341 1050 l 383 1050 l 313 1143 l 215 1143 z "},"Ȉ":{"ha":529,"x_min":-149,"x_max":492,"o":"m 69 0 l 69 197 l 167 197 l 167 776 l 69 776 l 69 972 l 460 972 l 460 776 l 363 776 l 363 197 l 460 197 l 460 0 l 69 0 m 146 76 l 384 76 l 384 119 l 280 119 l 280 855 l 384 855 l 384 897 l 146 897 l 146 855 l 238 855 l 238 119 l 146 119 l 146 76 m 492 994 l 321 994 l 124 1178 l 323 1178 l 492 994 m 381 1037 l 290 1134 l 248 1134 l 344 1037 l 381 1037 m 220 994 l 49 994 l -149 1178 l 51 1178 l 220 994 m 109 1037 l 17 1134 l -24 1134 l 72 1037 l 109 1037 z "},"Ï":{"ha":529,"x_min":47,"x_max":483,"o":"m 69 0 l 69 197 l 167 197 l 167 776 l 69 776 l 69 972 l 460 972 l 460 776 l 363 776 l 363 197 l 460 197 l 460 0 l 69 0 m 146 76 l 384 76 l 384 119 l 280 119 l 280 855 l 384 855 l 384 897 l 146 897 l 146 855 l 238 855 l 238 119 l 146 119 l 146 76 m 336 1008 l 336 1154 l 483 1154 l 483 1008 l 336 1008 m 47 1008 l 47 1154 l 194 1154 l 194 1008 l 47 1008 m 105 1064 l 135 1064 l 135 1098 l 105 1098 l 105 1064 m 395 1064 l 424 1064 l 424 1098 l 395 1098 l 395 1064 z "},"Ḯ":{"ha":529,"x_min":47,"x_max":548,"o":"m 69 0 l 69 197 l 167 197 l 167 776 l 69 776 l 69 972 l 460 972 l 460 776 l 363 776 l 363 197 l 460 197 l 460 0 l 69 0 m 146 76 l 384 76 l 384 119 l 280 119 l 280 855 l 384 855 l 384 897 l 146 897 l 146 855 l 238 855 l 238 119 l 146 119 l 146 76 m 336 1008 l 336 1154 l 483 1154 l 483 1008 l 336 1008 m 47 1008 l 47 1154 l 194 1154 l 194 1008 l 47 1008 m 105 1064 l 135 1064 l 135 1098 l 105 1098 l 105 1064 m 395 1064 l 424 1064 l 424 1098 l 395 1098 l 395 1064 m 179 1176 l 349 1360 l 548 1360 l 351 1176 l 179 1176 m 290 1219 l 328 1219 l 424 1316 l 382 1316 l 290 1219 z "},"İ":{"ha":529,"x_min":69,"x_max":460,"o":"m 69 0 l 69 197 l 167 197 l 167 776 l 69 776 l 69 972 l 460 972 l 460 776 l 363 776 l 363 197 l 460 197 l 460 0 l 69 0 m 146 76 l 384 76 l 384 119 l 280 119 l 280 855 l 384 855 l 384 897 l 146 897 l 146 855 l 238 855 l 238 119 l 146 119 l 146 76 m 192 1008 l 192 1154 l 339 1154 l 339 1008 l 192 1008 m 249 1064 l 279 1064 l 279 1098 l 249 1098 l 249 1064 z "},"Ị":{"ha":529,"x_min":69,"x_max":460,"o":"m 69 0 l 69 197 l 167 197 l 167 776 l 69 776 l 69 972 l 460 972 l 460 776 l 363 776 l 363 197 l 460 197 l 460 0 l 69 0 m 146 76 l 384 76 l 384 119 l 280 119 l 280 855 l 384 855 l 384 897 l 146 897 l 146 855 l 238 855 l 238 119 l 146 119 l 146 76 m 191 -188 l 191 -42 l 338 -42 l 338 -188 l 191 -188 m 249 -133 l 278 -133 l 278 -99 l 249 -99 l 249 -133 z "},"Ì":{"ha":529,"x_min":-3,"x_max":460,"o":"m 69 0 l 69 197 l 167 197 l 167 776 l 69 776 l 69 972 l 460 972 l 460 776 l 363 776 l 363 197 l 460 197 l 460 0 l 69 0 m 146 76 l 384 76 l 384 119 l 280 119 l 280 855 l 384 855 l 384 897 l 146 897 l 146 855 l 238 855 l 238 119 l 146 119 l 146 76 m 365 994 l 194 994 l -3 1178 l 196 1178 l 365 994 m 254 1037 l 163 1134 l 121 1134 l 217 1037 l 254 1037 z "},"Ỉ":{"ha":529,"x_min":69,"x_max":460,"o":"m 69 0 l 69 197 l 167 197 l 167 776 l 69 776 l 69 972 l 460 972 l 460 776 l 363 776 l 363 197 l 460 197 l 460 0 l 69 0 m 146 76 l 384 76 l 384 119 l 280 119 l 280 855 l 384 855 l 384 897 l 146 897 l 146 855 l 238 855 l 238 119 l 146 119 l 146 76 m 99 1251 l 317 1251 l 431 1120 l 317 990 l 148 990 l 148 1099 l 241 1099 l 262 1120 l 241 1142 l 99 1142 l 99 1251 m 151 1210 l 151 1183 l 271 1183 l 328 1120 l 271 1058 l 201 1058 l 201 1031 l 288 1031 l 369 1120 l 288 1210 l 151 1210 z "},"Ȋ":{"ha":529,"x_min":69,"x_max":460,"o":"m 69 0 l 69 197 l 167 197 l 167 776 l 69 776 l 69 972 l 460 972 l 460 776 l 363 776 l 363 197 l 460 197 l 460 0 l 69 0 m 146 76 l 384 76 l 384 119 l 280 119 l 280 855 l 384 855 l 384 897 l 146 897 l 146 855 l 238 855 l 238 119 l 146 119 l 146 76 m 347 1180 l 425 1102 l 425 994 l 292 994 l 292 1047 l 238 1047 l 238 994 l 104 994 l 104 1102 l 182 1180 l 347 1180 m 316 1131 l 213 1131 l 157 1073 l 157 1044 l 189 1044 l 189 1064 l 222 1100 l 306 1100 l 339 1064 l 339 1044 l 371 1044 l 371 1073 l 316 1131 z "},"Ī":{"ha":529,"x_min":45,"x_max":484,"o":"m 69 0 l 69 197 l 167 197 l 167 776 l 69 776 l 69 972 l 460 972 l 460 776 l 363 776 l 363 197 l 460 197 l 460 0 l 69 0 m 146 76 l 384 76 l 384 119 l 280 119 l 280 855 l 384 855 l 384 897 l 146 897 l 146 855 l 238 855 l 238 119 l 146 119 l 146 76 m 45 994 l 45 1172 l 484 1172 l 484 994 l 45 994 m 124 1060 l 413 1060 l 413 1100 l 124 1100 l 124 1060 z "},"Į":{"ha":667,"x_min":69,"x_max":598,"o":"m 255 -256 l 142 -124 l 253 0 l 69 0 l 69 197 l 235 197 l 235 776 l 69 776 l 69 972 l 598 972 l 598 776 l 431 776 l 431 197 l 598 197 l 598 0 l 407 0 l 283 -124 l 303 -147 l 467 -147 l 467 -256 l 255 -256 m 276 -215 l 430 -215 l 430 -187 l 289 -187 l 232 -125 l 422 76 l 528 76 l 528 119 l 349 119 l 349 855 l 528 855 l 528 897 l 139 897 l 139 855 l 306 855 l 306 119 l 139 119 l 139 76 l 384 76 l 197 -125 l 276 -215 z "},"Ĩ":{"ha":529,"x_min":69,"x_max":460,"o":"m 69 0 l 69 197 l 167 197 l 167 776 l 69 776 l 69 972 l 460 972 l 460 776 l 363 776 l 363 197 l 460 197 l 460 0 l 69 0 m 146 76 l 384 76 l 384 119 l 280 119 l 280 855 l 384 855 l 384 897 l 146 897 l 146 855 l 238 855 l 238 119 l 146 119 l 146 76 m 71 994 l 71 1089 l 149 1167 l 272 1167 l 311 1128 l 324 1128 l 324 1167 l 457 1167 l 457 1072 l 379 994 l 256 994 l 217 1033 l 204 1033 l 204 994 l 71 994 m 125 1038 l 157 1038 l 157 1052 l 190 1088 l 235 1088 l 283 1043 l 351 1043 l 406 1101 l 406 1124 l 374 1124 l 374 1110 l 341 1074 l 291 1074 l 245 1119 l 180 1119 l 125 1061 l 125 1038 z "},"J":{"ha":647,"x_min":69,"x_max":578,"o":"m 213 0 l 69 143 l 69 391 l 266 391 l 266 239 l 308 197 l 339 197 l 381 239 l 381 776 l 202 776 l 202 972 l 578 972 l 578 143 l 434 0 l 213 0 m 252 81 l 399 81 l 504 186 l 504 897 l 275 897 l 275 855 l 461 855 l 461 205 l 380 124 l 272 124 l 190 205 l 190 316 l 147 316 l 147 186 l 252 81 z "},"Ĵ":{"ha":647,"x_min":69,"x_max":622,"o":"m 213 0 l 69 143 l 69 391 l 266 391 l 266 239 l 308 197 l 339 197 l 381 239 l 381 776 l 202 776 l 202 972 l 578 972 l 578 143 l 434 0 l 213 0 m 252 81 l 399 81 l 504 186 l 504 897 l 275 897 l 275 855 l 461 855 l 461 205 l 380 124 l 272 124 l 190 205 l 190 316 l 147 316 l 147 186 l 252 81 m 292 1192 l 467 1192 l 622 994 l 430 994 l 379 1069 l 328 994 l 136 994 l 292 1192 m 329 1143 l 259 1050 l 301 1050 l 350 1119 l 406 1119 l 456 1050 l 497 1050 l 427 1143 l 329 1143 z "},"K":{"ha":674,"x_min":76,"x_max":590,"o":"m 76 0 l 76 972 l 273 972 l 273 589 l 311 589 l 394 672 l 394 972 l 590 972 l 590 589 l 492 492 l 590 392 l 590 0 l 394 0 l 394 310 l 311 392 l 273 392 l 273 0 l 76 0 m 153 77 l 196 77 l 196 476 l 351 476 l 471 353 l 471 77 l 514 77 l 514 369 l 391 497 l 514 619 l 514 897 l 471 897 l 471 635 l 353 519 l 196 519 l 196 897 l 153 897 l 153 77 z "},"Ķ":{"ha":674,"x_min":76,"x_max":590,"o":"m 76 0 l 76 972 l 273 972 l 273 589 l 311 589 l 394 672 l 394 972 l 590 972 l 590 589 l 492 492 l 590 392 l 590 0 l 394 0 l 394 310 l 311 392 l 273 392 l 273 0 l 76 0 m 153 77 l 196 77 l 196 476 l 351 476 l 471 353 l 471 77 l 514 77 l 514 369 l 391 497 l 514 619 l 514 897 l 471 897 l 471 635 l 353 519 l 196 519 l 196 897 l 153 897 l 153 77 m 162 -368 l 241 -50 l 429 -50 l 319 -368 l 162 -368 m 244 -303 l 272 -303 l 335 -130 l 289 -130 l 244 -303 z "},"L":{"ha":524,"x_min":76,"x_max":482,"o":"m 76 0 l 76 972 l 273 972 l 273 197 l 482 197 l 482 0 l 76 0 m 153 76 l 406 76 l 406 118 l 197 118 l 197 897 l 153 897 l 153 76 z "},"Ǉ":{"ha":1171,"x_min":76,"x_max":1101,"o":"m 76 0 l 76 972 l 273 972 l 273 197 l 482 197 l 482 0 l 76 0 m 153 76 l 406 76 l 406 118 l 197 118 l 197 897 l 153 897 l 153 76 m 737 0 l 593 143 l 593 391 l 790 391 l 790 239 l 832 197 l 863 197 l 905 239 l 905 776 l 726 776 l 726 972 l 1101 972 l 1101 143 l 958 0 l 737 0 m 776 81 l 922 81 l 1028 186 l 1028 897 l 799 897 l 799 855 l 985 855 l 985 205 l 903 124 l 795 124 l 713 205 l 713 316 l 670 316 l 670 186 l 776 81 z "},"Ĺ":{"ha":524,"x_min":76,"x_max":482,"o":"m 76 0 l 76 972 l 273 972 l 273 197 l 482 197 l 482 0 l 76 0 m 153 76 l 406 76 l 406 118 l 197 118 l 197 897 l 153 897 l 153 76 m 97 994 l 267 1178 l 466 1178 l 269 994 l 97 994 m 208 1037 l 246 1037 l 342 1134 l 300 1134 l 208 1037 z "},"Ľ":{"ha":524,"x_min":76,"x_max":551,"o":"m 76 0 l 76 972 l 273 972 l 273 197 l 482 197 l 482 0 l 76 0 m 153 76 l 406 76 l 406 118 l 197 118 l 197 897 l 153 897 l 153 76 m 374 657 l 342 776 l 342 972 l 551 972 l 551 776 l 518 657 l 374 657 m 435 723 l 460 723 l 471 776 l 471 892 l 426 892 l 426 776 l 435 723 z "},"Ļ":{"ha":524,"x_min":76,"x_max":482,"o":"m 76 0 l 76 972 l 273 972 l 273 197 l 482 197 l 482 0 l 76 0 m 153 76 l 406 76 l 406 118 l 197 118 l 197 897 l 153 897 l 153 76 m 110 -368 l 190 -50 l 378 -50 l 267 -368 l 110 -368 m 192 -303 l 220 -303 l 283 -130 l 238 -130 l 192 -303 z "},"Ŀ":{"ha":743,"x_min":76,"x_max":658,"o":"m 76 0 l 76 972 l 273 972 l 273 197 l 482 197 l 482 0 l 76 0 m 153 76 l 406 76 l 406 118 l 197 118 l 197 897 l 153 897 l 153 76 m 440 408 l 440 613 l 658 613 l 658 408 l 440 408 m 520 488 l 578 488 l 578 533 l 520 533 l 520 488 z "},"Ḷ":{"ha":524,"x_min":76,"x_max":482,"o":"m 76 0 l 76 972 l 273 972 l 273 197 l 482 197 l 482 0 l 76 0 m 153 76 l 406 76 l 406 118 l 197 118 l 197 897 l 153 897 l 153 76 m 209 -188 l 209 -42 l 356 -42 l 356 -188 l 209 -188 m 267 -133 l 297 -133 l 297 -99 l 267 -99 l 267 -133 z "},"ǈ":{"ha":950,"x_min":76,"x_max":874,"o":"m 76 0 l 76 972 l 273 972 l 273 197 l 482 197 l 482 0 l 76 0 m 153 76 l 406 76 l 406 118 l 197 118 l 197 897 l 153 897 l 153 76 m 538 -278 l 538 -82 l 622 -82 l 677 -26 l 677 554 l 538 554 l 538 750 l 874 750 l 874 -135 l 731 -278 l 538 -278 m 617 -197 l 693 -197 l 797 -90 l 797 674 l 611 674 l 611 631 l 754 631 l 754 -69 l 672 -154 l 617 -154 l 617 -197 m 677 858 l 677 1042 l 874 1042 l 874 858 l 677 858 m 754 928 l 797 928 l 797 981 l 754 981 l 754 928 z "},"Ḻ":{"ha":524,"x_min":63,"x_max":502,"o":"m 76 0 l 76 972 l 273 972 l 273 197 l 482 197 l 482 0 l 76 0 m 153 76 l 406 76 l 406 118 l 197 118 l 197 897 l 153 897 l 153 76 m 63 -226 l 63 -49 l 502 -49 l 502 -226 l 63 -226 m 142 -160 l 431 -160 l 431 -120 l 142 -120 l 142 -160 z "},"Ł":{"ha":743,"x_min":34,"x_max":680,"o":"m 115 0 l 115 339 l 34 306 l 34 480 l 115 513 l 115 972 l 312 972 l 312 588 l 549 682 l 549 508 l 312 415 l 312 197 l 680 197 l 680 0 l 115 0 m 191 76 l 623 76 l 623 119 l 233 119 l 233 450 l 473 545 l 473 583 l 233 489 l 233 909 l 191 909 l 191 472 l 98 437 l 98 399 l 191 434 l 191 76 z "},"M":{"ha":1008,"x_min":76,"x_max":931,"o":"m 76 0 l 76 972 l 451 972 l 497 283 l 511 283 l 557 972 l 931 972 l 931 0 l 735 0 l 735 775 l 717 775 l 669 83 l 339 83 l 292 775 l 273 775 l 273 0 l 76 0 m 153 76 l 195 76 l 195 851 l 347 851 l 404 169 l 603 169 l 660 851 l 811 851 l 811 76 l 854 76 l 854 897 l 623 897 l 566 213 l 441 213 l 383 897 l 153 897 l 153 76 z "},"Ṃ":{"ha":1008,"x_min":76,"x_max":931,"o":"m 76 0 l 76 972 l 451 972 l 497 283 l 511 283 l 557 972 l 931 972 l 931 0 l 735 0 l 735 775 l 717 775 l 669 83 l 339 83 l 292 775 l 273 775 l 273 0 l 76 0 m 153 76 l 195 76 l 195 851 l 347 851 l 404 169 l 603 169 l 660 851 l 811 851 l 811 76 l 854 76 l 854 897 l 623 897 l 566 213 l 441 213 l 383 897 l 153 897 l 153 76 m 431 -188 l 431 -42 l 578 -42 l 578 -188 l 431 -188 m 489 -133 l 519 -133 l 519 -99 l 489 -99 l 489 -133 z "},"N":{"ha":799,"x_min":76,"x_max":723,"o":"m 153 74 l 195 74 l 195 849 l 341 849 l 424 76 l 647 76 l 647 897 l 605 897 l 605 121 l 459 121 l 376 894 l 153 894 l 153 74 m 76 0 l 76 972 l 444 972 l 513 199 l 526 199 l 526 972 l 723 972 l 723 0 l 356 0 l 285 775 l 273 775 l 273 0 l 76 0 z "},"Ǌ":{"ha":1447,"x_min":76,"x_max":1377,"o":"m 153 74 l 195 74 l 195 849 l 341 849 l 424 76 l 647 76 l 647 897 l 605 897 l 605 121 l 459 121 l 376 894 l 153 894 l 153 74 m 76 0 l 76 972 l 444 972 l 513 199 l 526 199 l 526 972 l 723 972 l 723 0 l 356 0 l 285 775 l 273 775 l 273 0 l 76 0 m 1013 0 l 869 143 l 869 391 l 1065 391 l 1065 239 l 1108 197 l 1138 197 l 1181 239 l 1181 776 l 1001 776 l 1001 972 l 1377 972 l 1377 143 l 1233 0 l 1013 0 m 1051 81 l 1198 81 l 1303 186 l 1303 897 l 1074 897 l 1074 855 l 1260 855 l 1260 205 l 1179 124 l 1071 124 l 989 205 l 989 316 l 946 316 l 946 186 l 1051 81 z "},"Ń":{"ha":799,"x_min":76,"x_max":723,"o":"m 153 74 l 195 74 l 195 849 l 341 849 l 424 76 l 647 76 l 647 897 l 605 897 l 605 121 l 459 121 l 376 894 l 153 894 l 153 74 m 76 0 l 76 972 l 444 972 l 513 199 l 526 199 l 526 972 l 723 972 l 723 0 l 356 0 l 285 775 l 273 775 l 273 0 l 76 0 m 317 994 l 486 1178 l 685 1178 l 488 994 l 317 994 m 428 1037 l 465 1037 l 562 1134 l 519 1134 l 428 1037 z "},"Ň":{"ha":799,"x_min":76,"x_max":723,"o":"m 153 74 l 195 74 l 195 849 l 341 849 l 424 76 l 647 76 l 647 897 l 605 897 l 605 121 l 459 121 l 376 894 l 153 894 l 153 74 m 76 0 l 76 972 l 444 972 l 513 199 l 526 199 l 526 972 l 723 972 l 723 0 l 356 0 l 285 775 l 273 775 l 273 0 l 76 0 m 315 994 l 159 1192 l 351 1192 l 402 1117 l 453 1192 l 645 1192 l 490 994 l 315 994 m 352 1043 l 450 1043 l 520 1136 l 478 1136 l 428 1067 l 373 1067 l 324 1136 l 282 1136 l 352 1043 z "},"Ņ":{"ha":799,"x_min":76,"x_max":723,"o":"m 153 74 l 195 74 l 195 849 l 341 849 l 424 76 l 647 76 l 647 897 l 605 897 l 605 121 l 459 121 l 376 894 l 153 894 l 153 74 m 76 0 l 76 972 l 444 972 l 513 199 l 526 199 l 526 972 l 723 972 l 723 0 l 356 0 l 285 775 l 273 775 l 273 0 l 76 0 m 230 -368 l 309 -50 l 497 -50 l 387 -368 l 230 -368 m 312 -303 l 340 -303 l 403 -130 l 357 -130 l 312 -303 z "},"Ṅ":{"ha":799,"x_min":76,"x_max":723,"o":"m 153 74 l 195 74 l 195 849 l 341 849 l 424 76 l 647 76 l 647 897 l 605 897 l 605 121 l 459 121 l 376 894 l 153 894 l 153 74 m 76 0 l 76 972 l 444 972 l 513 199 l 526 199 l 526 972 l 723 972 l 723 0 l 356 0 l 285 775 l 273 775 l 273 0 l 76 0 m 329 1008 l 329 1154 l 476 1154 l 476 1008 l 329 1008 m 387 1064 l 417 1064 l 417 1098 l 387 1098 l 387 1064 z "},"Ṇ":{"ha":799,"x_min":76,"x_max":723,"o":"m 153 74 l 195 74 l 195 849 l 341 849 l 424 76 l 647 76 l 647 897 l 605 897 l 605 121 l 459 121 l 376 894 l 153 894 l 153 74 m 76 0 l 76 972 l 444 972 l 513 199 l 526 199 l 526 972 l 723 972 l 723 0 l 356 0 l 285 775 l 273 775 l 273 0 l 76 0 m 328 -188 l 328 -42 l 476 -42 l 476 -188 l 328 -188 m 386 -133 l 416 -133 l 416 -99 l 386 -99 l 386 -133 z "},"ǋ":{"ha":1226,"x_min":76,"x_max":1149,"o":"m 153 74 l 195 74 l 195 849 l 341 849 l 424 76 l 647 76 l 647 897 l 605 897 l 605 121 l 459 121 l 376 894 l 153 894 l 153 74 m 76 0 l 76 972 l 444 972 l 513 199 l 526 199 l 526 972 l 723 972 l 723 0 l 356 0 l 285 775 l 273 775 l 273 0 l 76 0 m 813 -278 l 813 -82 l 897 -82 l 953 -26 l 953 554 l 813 554 l 813 750 l 1149 750 l 1149 -135 l 1006 -278 l 813 -278 m 893 -197 l 969 -197 l 1073 -90 l 1073 674 l 887 674 l 887 631 l 1030 631 l 1030 -69 l 947 -154 l 893 -154 l 893 -197 m 953 858 l 953 1042 l 1149 1042 l 1149 858 l 953 858 m 1030 928 l 1073 928 l 1073 981 l 1030 981 l 1030 928 z "},"Ṉ":{"ha":799,"x_min":76,"x_max":723,"o":"m 153 74 l 195 74 l 195 849 l 341 849 l 424 76 l 647 76 l 647 897 l 605 897 l 605 121 l 459 121 l 376 894 l 153 894 l 153 74 m 76 0 l 76 972 l 444 972 l 513 199 l 526 199 l 526 972 l 723 972 l 723 0 l 356 0 l 285 775 l 273 775 l 273 0 l 76 0 m 183 -226 l 183 -49 l 622 -49 l 622 -226 l 183 -226 m 261 -160 l 550 -160 l 550 -120 l 261 -120 l 261 -160 z "},"Ñ":{"ha":799,"x_min":76,"x_max":723,"o":"m 153 74 l 195 74 l 195 849 l 341 849 l 424 76 l 647 76 l 647 897 l 605 897 l 605 121 l 459 121 l 376 894 l 153 894 l 153 74 m 76 0 l 76 972 l 444 972 l 513 199 l 526 199 l 526 972 l 723 972 l 723 0 l 356 0 l 285 775 l 273 775 l 273 0 l 76 0 m 208 994 l 208 1089 l 286 1167 l 410 1167 l 449 1128 l 461 1128 l 461 1167 l 594 1167 l 594 1072 l 517 994 l 393 994 l 354 1033 l 342 1033 l 342 994 l 208 994 m 263 1038 l 294 1038 l 294 1052 l 328 1088 l 373 1088 l 420 1043 l 489 1043 l 544 1101 l 544 1124 l 512 1124 l 512 1110 l 478 1074 l 428 1074 l 383 1119 l 317 1119 l 263 1061 l 263 1038 z "},"Ŋ":{"ha":847,"x_min":65,"x_max":781,"o":"m 403 -278 l 403 -82 l 529 -82 l 585 -26 l 585 7 l 262 563 l 262 0 l 65 0 l 65 972 l 258 972 l 585 410 l 585 972 l 781 972 l 781 -135 l 638 -278 l 403 -278 m 502 -197 l 601 -197 l 706 -90 l 706 909 l 663 909 l 663 124 l 203 909 l 142 909 l 142 68 l 184 68 l 184 838 l 193 838 l 663 38 l 663 -69 l 581 -154 l 502 -154 l 502 -197 z "},"O":{"ha":682,"x_min":69,"x_max":613,"o":"m 213 0 l 69 143 l 69 829 l 213 972 l 469 972 l 613 829 l 613 143 l 469 0 l 213 0 m 308 197 l 374 197 l 416 239 l 416 733 l 374 776 l 308 776 l 266 733 l 266 239 l 308 197 m 253 80 l 430 80 l 535 185 l 535 792 l 430 897 l 253 897 l 148 792 l 148 185 l 253 80 m 272 122 l 190 203 l 190 774 l 272 855 l 411 855 l 492 774 l 492 203 l 411 122 l 272 122 z "},"Ó":{"ha":682,"x_min":69,"x_max":624,"o":"m 213 0 l 69 143 l 69 829 l 213 972 l 469 972 l 613 829 l 613 143 l 469 0 l 213 0 m 308 197 l 374 197 l 416 239 l 416 733 l 374 776 l 308 776 l 266 733 l 266 239 l 308 197 m 253 80 l 430 80 l 535 185 l 535 792 l 430 897 l 253 897 l 148 792 l 148 185 l 253 80 m 272 122 l 190 203 l 190 774 l 272 855 l 411 855 l 492 774 l 492 203 l 411 122 l 272 122 m 256 994 l 425 1178 l 624 1178 l 427 994 l 256 994 m 367 1037 l 404 1037 l 501 1134 l 458 1134 l 367 1037 z "},"Ŏ":{"ha":682,"x_min":69,"x_max":613,"o":"m 213 0 l 69 143 l 69 829 l 213 972 l 469 972 l 613 829 l 613 143 l 469 0 l 213 0 m 308 197 l 374 197 l 416 239 l 416 733 l 374 776 l 308 776 l 266 733 l 266 239 l 308 197 m 253 80 l 430 80 l 535 185 l 535 792 l 430 897 l 253 897 l 148 792 l 148 185 l 253 80 m 272 122 l 190 203 l 190 774 l 272 855 l 411 855 l 492 774 l 492 203 l 411 122 l 272 122 m 258 994 l 181 1072 l 181 1181 l 314 1181 l 314 1128 l 368 1128 l 368 1181 l 501 1181 l 501 1072 l 424 994 l 258 994 m 290 1043 l 393 1043 l 449 1101 l 449 1130 l 417 1130 l 417 1110 l 383 1074 l 300 1074 l 267 1110 l 267 1130 l 235 1130 l 235 1101 l 290 1043 z "},"Ǒ":{"ha":682,"x_min":69,"x_max":613,"o":"m 213 0 l 69 143 l 69 829 l 213 972 l 469 972 l 613 829 l 613 143 l 469 0 l 213 0 m 308 197 l 374 197 l 416 239 l 416 733 l 374 776 l 308 776 l 266 733 l 266 239 l 308 197 m 253 80 l 430 80 l 535 185 l 535 792 l 430 897 l 253 897 l 148 792 l 148 185 l 253 80 m 272 122 l 190 203 l 190 774 l 272 855 l 411 855 l 492 774 l 492 203 l 411 122 l 272 122 m 253 994 l 98 1192 l 290 1192 l 341 1117 l 392 1192 l 584 1192 l 428 994 l 253 994 m 291 1043 l 389 1043 l 459 1136 l 417 1136 l 367 1067 l 312 1067 l 263 1136 l 221 1136 l 291 1043 z "},"Ô":{"ha":682,"x_min":69,"x_max":613,"o":"m 213 0 l 69 143 l 69 829 l 213 972 l 469 972 l 613 829 l 613 143 l 469 0 l 213 0 m 308 197 l 374 197 l 416 239 l 416 733 l 374 776 l 308 776 l 266 733 l 266 239 l 308 197 m 253 80 l 430 80 l 535 185 l 535 792 l 430 897 l 253 897 l 148 792 l 148 185 l 253 80 m 272 122 l 190 203 l 190 774 l 272 855 l 411 855 l 492 774 l 492 203 l 411 122 l 272 122 m 253 1192 l 428 1192 l 584 994 l 392 994 l 341 1069 l 290 994 l 98 994 l 253 1192 m 291 1143 l 221 1050 l 263 1050 l 312 1119 l 367 1119 l 417 1050 l 459 1050 l 389 1143 l 291 1143 z "},"Ố":{"ha":682,"x_min":69,"x_max":846,"o":"m 213 0 l 69 143 l 69 829 l 213 972 l 469 972 l 613 829 l 613 143 l 469 0 l 213 0 m 308 197 l 374 197 l 416 239 l 416 733 l 374 776 l 308 776 l 266 733 l 266 239 l 308 197 m 253 80 l 430 80 l 535 185 l 535 792 l 430 897 l 253 897 l 148 792 l 148 185 l 253 80 m 272 122 l 190 203 l 190 774 l 272 855 l 411 855 l 492 774 l 492 203 l 411 122 l 272 122 m 253 1192 l 428 1192 l 584 994 l 392 994 l 341 1069 l 290 994 l 98 994 l 253 1192 m 291 1143 l 221 1050 l 263 1050 l 312 1119 l 367 1119 l 417 1050 l 459 1050 l 389 1143 l 291 1143 m 477 1153 l 647 1336 l 846 1336 l 649 1153 l 477 1153 m 588 1195 l 626 1195 l 722 1292 l 680 1292 l 588 1195 z "},"Ộ":{"ha":682,"x_min":69,"x_max":613,"o":"m 213 0 l 69 143 l 69 829 l 213 972 l 469 972 l 613 829 l 613 143 l 469 0 l 213 0 m 308 197 l 374 197 l 416 239 l 416 733 l 374 776 l 308 776 l 266 733 l 266 239 l 308 197 m 253 80 l 430 80 l 535 185 l 535 792 l 430 897 l 253 897 l 148 792 l 148 185 l 253 80 m 272 122 l 190 203 l 190 774 l 272 855 l 411 855 l 492 774 l 492 203 l 411 122 l 272 122 m 267 -188 l 267 -42 l 415 -42 l 415 -188 l 267 -188 m 325 -133 l 355 -133 l 355 -99 l 325 -99 l 325 -133 m 253 1192 l 428 1192 l 584 994 l 392 994 l 341 1069 l 290 994 l 98 994 l 253 1192 m 291 1143 l 221 1050 l 263 1050 l 312 1119 l 367 1119 l 417 1050 l 459 1050 l 389 1143 l 291 1143 z "},"Ồ":{"ha":682,"x_min":69,"x_max":680,"o":"m 213 0 l 69 143 l 69 829 l 213 972 l 469 972 l 613 829 l 613 143 l 469 0 l 213 0 m 308 197 l 374 197 l 416 239 l 416 733 l 374 776 l 308 776 l 266 733 l 266 239 l 308 197 m 253 80 l 430 80 l 535 185 l 535 792 l 430 897 l 253 897 l 148 792 l 148 185 l 253 80 m 272 122 l 190 203 l 190 774 l 272 855 l 411 855 l 492 774 l 492 203 l 411 122 l 272 122 m 253 1192 l 428 1192 l 584 994 l 392 994 l 341 1069 l 290 994 l 98 994 l 253 1192 m 291 1143 l 221 1050 l 263 1050 l 312 1119 l 367 1119 l 417 1050 l 459 1050 l 389 1143 l 291 1143 m 680 1153 l 508 1153 l 311 1336 l 510 1336 l 680 1153 m 569 1195 l 477 1292 l 435 1292 l 532 1195 l 569 1195 z "},"Ổ":{"ha":682,"x_min":69,"x_max":770,"o":"m 213 0 l 69 143 l 69 829 l 213 972 l 469 972 l 613 829 l 613 143 l 469 0 l 213 0 m 308 197 l 374 197 l 416 239 l 416 733 l 374 776 l 308 776 l 266 733 l 266 239 l 308 197 m 253 80 l 430 80 l 535 185 l 535 792 l 430 897 l 253 897 l 148 792 l 148 185 l 253 80 m 272 122 l 190 203 l 190 774 l 272 855 l 411 855 l 492 774 l 492 203 l 411 122 l 272 122 m 253 1192 l 428 1192 l 584 994 l 392 994 l 341 1069 l 290 994 l 98 994 l 253 1192 m 291 1143 l 221 1050 l 263 1050 l 312 1119 l 367 1119 l 417 1050 l 459 1050 l 389 1143 l 291 1143 m 438 1388 l 657 1388 l 770 1257 l 657 1127 l 488 1127 l 488 1236 l 581 1236 l 601 1257 l 581 1279 l 438 1279 l 438 1388 m 491 1347 l 491 1320 l 610 1320 l 667 1257 l 610 1195 l 541 1195 l 541 1168 l 628 1168 l 708 1257 l 628 1347 l 491 1347 z "},"Ỗ":{"ha":682,"x_min":69,"x_max":613,"o":"m 213 0 l 69 143 l 69 829 l 213 972 l 469 972 l 613 829 l 613 143 l 469 0 l 213 0 m 308 197 l 374 197 l 416 239 l 416 733 l 374 776 l 308 776 l 266 733 l 266 239 l 308 197 m 253 80 l 430 80 l 535 185 l 535 792 l 430 897 l 253 897 l 148 792 l 148 185 l 253 80 m 272 122 l 190 203 l 190 774 l 272 855 l 411 855 l 492 774 l 492 203 l 411 122 l 272 122 m 253 1192 l 428 1192 l 584 994 l 392 994 l 341 1069 l 290 994 l 98 994 l 253 1192 m 291 1143 l 221 1050 l 263 1050 l 312 1119 l 367 1119 l 417 1050 l 459 1050 l 389 1143 l 291 1143 m 147 1214 l 147 1308 l 225 1386 l 349 1386 l 388 1347 l 400 1347 l 400 1386 l 533 1386 l 533 1292 l 456 1214 l 332 1214 l 293 1253 l 281 1253 l 281 1214 l 147 1214 m 201 1258 l 233 1258 l 233 1272 l 267 1308 l 312 1308 l 359 1263 l 428 1263 l 483 1321 l 483 1344 l 451 1344 l 451 1330 l 417 1294 l 367 1294 l 322 1339 l 256 1339 l 201 1281 l 201 1258 z "},"Ȍ":{"ha":682,"x_min":-72,"x_max":613,"o":"m 213 0 l 69 143 l 69 829 l 213 972 l 469 972 l 613 829 l 613 143 l 469 0 l 213 0 m 308 197 l 374 197 l 416 239 l 416 733 l 374 776 l 308 776 l 266 733 l 266 239 l 308 197 m 253 80 l 430 80 l 535 185 l 535 792 l 430 897 l 253 897 l 148 792 l 148 185 l 253 80 m 272 122 l 190 203 l 190 774 l 272 855 l 411 855 l 492 774 l 492 203 l 411 122 l 272 122 m 569 994 l 397 994 l 200 1178 l 399 1178 l 569 994 m 458 1037 l 366 1134 l 324 1134 l 421 1037 l 458 1037 m 297 994 l 125 994 l -72 1178 l 127 1178 l 297 994 m 185 1037 l 94 1134 l 52 1134 l 149 1037 l 185 1037 z "},"Ö":{"ha":682,"x_min":69,"x_max":613,"o":"m 213 0 l 69 143 l 69 829 l 213 972 l 469 972 l 613 829 l 613 143 l 469 0 l 213 0 m 308 197 l 374 197 l 416 239 l 416 733 l 374 776 l 308 776 l 266 733 l 266 239 l 308 197 m 253 80 l 430 80 l 535 185 l 535 792 l 430 897 l 253 897 l 148 792 l 148 185 l 253 80 m 272 122 l 190 203 l 190 774 l 272 855 l 411 855 l 492 774 l 492 203 l 411 122 l 272 122 m 413 1008 l 413 1154 l 560 1154 l 560 1008 l 413 1008 m 124 1008 l 124 1154 l 271 1154 l 271 1008 l 124 1008 m 181 1064 l 211 1064 l 211 1098 l 181 1098 l 181 1064 m 472 1064 l 501 1064 l 501 1098 l 472 1098 l 472 1064 z "},"Ȫ":{"ha":682,"x_min":69,"x_max":613,"o":"m 213 0 l 69 143 l 69 829 l 213 972 l 469 972 l 613 829 l 613 143 l 469 0 l 213 0 m 308 197 l 374 197 l 416 239 l 416 733 l 374 776 l 308 776 l 266 733 l 266 239 l 308 197 m 253 80 l 430 80 l 535 185 l 535 792 l 430 897 l 253 897 l 148 792 l 148 185 l 253 80 m 272 122 l 190 203 l 190 774 l 272 855 l 411 855 l 492 774 l 492 203 l 411 122 l 272 122 m 413 1008 l 413 1154 l 560 1154 l 560 1008 l 413 1008 m 124 1008 l 124 1154 l 271 1154 l 271 1008 l 124 1008 m 181 1064 l 211 1064 l 211 1098 l 181 1098 l 181 1064 m 472 1064 l 501 1064 l 501 1098 l 472 1098 l 472 1064 m 122 1176 l 122 1353 l 560 1353 l 560 1176 l 122 1176 m 200 1242 l 489 1242 l 489 1282 l 200 1282 l 200 1242 z "},"Ȱ":{"ha":682,"x_min":69,"x_max":613,"o":"m 213 0 l 69 143 l 69 829 l 213 972 l 469 972 l 613 829 l 613 143 l 469 0 l 213 0 m 308 197 l 374 197 l 416 239 l 416 733 l 374 776 l 308 776 l 266 733 l 266 239 l 308 197 m 253 80 l 430 80 l 535 185 l 535 792 l 430 897 l 253 897 l 148 792 l 148 185 l 253 80 m 272 122 l 190 203 l 190 774 l 272 855 l 411 855 l 492 774 l 492 203 l 411 122 l 272 122 m 268 1008 l 268 1154 l 415 1154 l 415 1008 l 268 1008 m 326 1064 l 356 1064 l 356 1098 l 326 1098 l 326 1064 m 122 1176 l 122 1353 l 560 1353 l 560 1176 l 122 1176 m 200 1242 l 489 1242 l 489 1282 l 200 1282 l 200 1242 z "},"Ọ":{"ha":682,"x_min":69,"x_max":613,"o":"m 213 0 l 69 143 l 69 829 l 213 972 l 469 972 l 613 829 l 613 143 l 469 0 l 213 0 m 308 197 l 374 197 l 416 239 l 416 733 l 374 776 l 308 776 l 266 733 l 266 239 l 308 197 m 253 80 l 430 80 l 535 185 l 535 792 l 430 897 l 253 897 l 148 792 l 148 185 l 253 80 m 272 122 l 190 203 l 190 774 l 272 855 l 411 855 l 492 774 l 492 203 l 411 122 l 272 122 m 267 -188 l 267 -42 l 415 -42 l 415 -188 l 267 -188 m 325 -133 l 355 -133 l 355 -99 l 325 -99 l 325 -133 z "},"Ò":{"ha":682,"x_min":69,"x_max":613,"o":"m 213 0 l 69 143 l 69 829 l 213 972 l 469 972 l 613 829 l 613 143 l 469 0 l 213 0 m 308 197 l 374 197 l 416 239 l 416 733 l 374 776 l 308 776 l 266 733 l 266 239 l 308 197 m 253 80 l 430 80 l 535 185 l 535 792 l 430 897 l 253 897 l 148 792 l 148 185 l 253 80 m 272 122 l 190 203 l 190 774 l 272 855 l 411 855 l 492 774 l 492 203 l 411 122 l 272 122 m 442 994 l 270 994 l 73 1178 l 272 1178 l 442 994 m 331 1037 l 239 1134 l 197 1134 l 294 1037 l 331 1037 z "},"Ỏ":{"ha":682,"x_min":69,"x_max":613,"o":"m 213 0 l 69 143 l 69 829 l 213 972 l 469 972 l 613 829 l 613 143 l 469 0 l 213 0 m 308 197 l 374 197 l 416 239 l 416 733 l 374 776 l 308 776 l 266 733 l 266 239 l 308 197 m 253 80 l 430 80 l 535 185 l 535 792 l 430 897 l 253 897 l 148 792 l 148 185 l 253 80 m 272 122 l 190 203 l 190 774 l 272 855 l 411 855 l 492 774 l 492 203 l 411 122 l 272 122 m 175 1251 l 394 1251 l 507 1120 l 394 990 l 224 990 l 224 1099 l 317 1099 l 338 1120 l 317 1142 l 175 1142 l 175 1251 m 228 1210 l 228 1183 l 347 1183 l 404 1120 l 347 1058 l 278 1058 l 278 1031 l 365 1031 l 445 1120 l 365 1210 l 228 1210 z "},"Ơ":{"ha":826,"x_min":69,"x_max":847,"o":"m 308 197 l 374 197 l 416 239 l 416 733 l 374 776 l 308 776 l 266 733 l 266 239 l 308 197 m 253 80 l 430 80 l 535 185 l 535 792 l 430 897 l 253 897 l 148 792 l 148 185 l 253 80 m 272 122 l 190 203 l 190 774 l 272 855 l 411 855 l 492 774 l 492 203 l 411 122 l 272 122 m 750 894 l 750 809 l 688 741 l 535 741 l 535 714 l 705 714 l 785 803 l 785 894 l 750 894 m 688 941 l 847 941 l 847 803 l 733 673 l 613 673 l 613 143 l 469 0 l 213 0 l 69 143 l 69 829 l 213 972 l 469 972 l 613 829 l 613 782 l 657 782 l 688 813 l 688 941 z "},"Ớ":{"ha":826,"x_min":69,"x_max":847,"o":"m 308 197 l 374 197 l 416 239 l 416 733 l 374 776 l 308 776 l 266 733 l 266 239 l 308 197 m 253 80 l 430 80 l 535 185 l 535 792 l 430 897 l 253 897 l 148 792 l 148 185 l 253 80 m 272 122 l 190 203 l 190 774 l 272 855 l 411 855 l 492 774 l 492 203 l 411 122 l 272 122 m 750 894 l 750 809 l 688 741 l 535 741 l 535 714 l 705 714 l 785 803 l 785 894 l 750 894 m 688 941 l 847 941 l 847 803 l 733 673 l 613 673 l 613 143 l 469 0 l 213 0 l 69 143 l 69 829 l 213 972 l 469 972 l 613 829 l 613 782 l 657 782 l 688 813 l 688 941 m 256 994 l 425 1178 l 624 1178 l 427 994 l 256 994 m 367 1037 l 404 1037 l 501 1134 l 458 1134 l 367 1037 z "},"Ợ":{"ha":826,"x_min":69,"x_max":847,"o":"m 308 197 l 374 197 l 416 239 l 416 733 l 374 776 l 308 776 l 266 733 l 266 239 l 308 197 m 253 80 l 430 80 l 535 185 l 535 792 l 430 897 l 253 897 l 148 792 l 148 185 l 253 80 m 272 122 l 190 203 l 190 774 l 272 855 l 411 855 l 492 774 l 492 203 l 411 122 l 272 122 m 750 894 l 750 809 l 688 741 l 535 741 l 535 714 l 705 714 l 785 803 l 785 894 l 750 894 m 688 941 l 847 941 l 847 803 l 733 673 l 613 673 l 613 143 l 469 0 l 213 0 l 69 143 l 69 829 l 213 972 l 469 972 l 613 829 l 613 782 l 657 782 l 688 813 l 688 941 m 267 -188 l 267 -42 l 415 -42 l 415 -188 l 267 -188 m 325 -133 l 355 -133 l 355 -99 l 325 -99 l 325 -133 z "},"Ờ":{"ha":826,"x_min":69,"x_max":847,"o":"m 308 197 l 374 197 l 416 239 l 416 733 l 374 776 l 308 776 l 266 733 l 266 239 l 308 197 m 253 80 l 430 80 l 535 185 l 535 792 l 430 897 l 253 897 l 148 792 l 148 185 l 253 80 m 272 122 l 190 203 l 190 774 l 272 855 l 411 855 l 492 774 l 492 203 l 411 122 l 272 122 m 750 894 l 750 809 l 688 741 l 535 741 l 535 714 l 705 714 l 785 803 l 785 894 l 750 894 m 688 941 l 847 941 l 847 803 l 733 673 l 613 673 l 613 143 l 469 0 l 213 0 l 69 143 l 69 829 l 213 972 l 469 972 l 613 829 l 613 782 l 657 782 l 688 813 l 688 941 m 442 994 l 270 994 l 73 1178 l 272 1178 l 442 994 m 331 1037 l 239 1134 l 197 1134 l 294 1037 l 331 1037 z "},"Ở":{"ha":826,"x_min":69,"x_max":847,"o":"m 308 197 l 374 197 l 416 239 l 416 733 l 374 776 l 308 776 l 266 733 l 266 239 l 308 197 m 253 80 l 430 80 l 535 185 l 535 792 l 430 897 l 253 897 l 148 792 l 148 185 l 253 80 m 272 122 l 190 203 l 190 774 l 272 855 l 411 855 l 492 774 l 492 203 l 411 122 l 272 122 m 750 894 l 750 809 l 688 741 l 535 741 l 535 714 l 705 714 l 785 803 l 785 894 l 750 894 m 688 941 l 847 941 l 847 803 l 733 673 l 613 673 l 613 143 l 469 0 l 213 0 l 69 143 l 69 829 l 213 972 l 469 972 l 613 829 l 613 782 l 657 782 l 688 813 l 688 941 m 175 1251 l 394 1251 l 507 1120 l 394 990 l 224 990 l 224 1099 l 317 1099 l 338 1120 l 317 1142 l 175 1142 l 175 1251 m 228 1210 l 228 1183 l 347 1183 l 404 1120 l 347 1058 l 278 1058 l 278 1031 l 365 1031 l 445 1120 l 365 1210 l 228 1210 z "},"Ỡ":{"ha":826,"x_min":69,"x_max":847,"o":"m 308 197 l 374 197 l 416 239 l 416 733 l 374 776 l 308 776 l 266 733 l 266 239 l 308 197 m 253 80 l 430 80 l 535 185 l 535 792 l 430 897 l 253 897 l 148 792 l 148 185 l 253 80 m 272 122 l 190 203 l 190 774 l 272 855 l 411 855 l 492 774 l 492 203 l 411 122 l 272 122 m 750 894 l 750 809 l 688 741 l 535 741 l 535 714 l 705 714 l 785 803 l 785 894 l 750 894 m 688 941 l 847 941 l 847 803 l 733 673 l 613 673 l 613 143 l 469 0 l 213 0 l 69 143 l 69 829 l 213 972 l 469 972 l 613 829 l 613 782 l 657 782 l 688 813 l 688 941 m 147 994 l 147 1089 l 225 1167 l 349 1167 l 388 1128 l 400 1128 l 400 1167 l 533 1167 l 533 1072 l 456 994 l 332 994 l 293 1033 l 281 1033 l 281 994 l 147 994 m 201 1038 l 233 1038 l 233 1052 l 267 1088 l 312 1088 l 359 1043 l 428 1043 l 483 1101 l 483 1124 l 451 1124 l 451 1110 l 417 1074 l 367 1074 l 322 1119 l 256 1119 l 201 1061 l 201 1038 z "},"Ő":{"ha":682,"x_min":69,"x_max":669,"o":"m 213 0 l 69 143 l 69 829 l 213 972 l 469 972 l 613 829 l 613 143 l 469 0 l 213 0 m 308 197 l 374 197 l 416 239 l 416 733 l 374 776 l 308 776 l 266 733 l 266 239 l 308 197 m 253 80 l 430 80 l 535 185 l 535 792 l 430 897 l 253 897 l 148 792 l 148 185 l 253 80 m 272 122 l 190 203 l 190 774 l 272 855 l 411 855 l 492 774 l 492 203 l 411 122 l 272 122 m 369 994 l 470 1178 l 669 1178 l 534 994 l 369 994 m 215 1033 l 251 1033 l 317 1133 l 274 1133 l 215 1033 m 125 994 l 226 1178 l 425 1178 l 290 994 l 125 994 m 459 1033 l 495 1033 l 561 1133 l 518 1133 l 459 1033 z "},"Ȏ":{"ha":682,"x_min":69,"x_max":613,"o":"m 213 0 l 69 143 l 69 829 l 213 972 l 469 972 l 613 829 l 613 143 l 469 0 l 213 0 m 308 197 l 374 197 l 416 239 l 416 733 l 374 776 l 308 776 l 266 733 l 266 239 l 308 197 m 253 80 l 430 80 l 535 185 l 535 792 l 430 897 l 253 897 l 148 792 l 148 185 l 253 80 m 272 122 l 190 203 l 190 774 l 272 855 l 411 855 l 492 774 l 492 203 l 411 122 l 272 122 m 424 1180 l 501 1102 l 501 994 l 368 994 l 368 1047 l 314 1047 l 314 994 l 181 994 l 181 1102 l 258 1180 l 424 1180 m 392 1131 l 289 1131 l 233 1073 l 233 1044 l 265 1044 l 265 1064 l 299 1100 l 382 1100 l 415 1064 l 415 1044 l 447 1044 l 447 1073 l 392 1131 z "},"Ō":{"ha":682,"x_min":69,"x_max":613,"o":"m 213 0 l 69 143 l 69 829 l 213 972 l 469 972 l 613 829 l 613 143 l 469 0 l 213 0 m 308 197 l 374 197 l 416 239 l 416 733 l 374 776 l 308 776 l 266 733 l 266 239 l 308 197 m 253 80 l 430 80 l 535 185 l 535 792 l 430 897 l 253 897 l 148 792 l 148 185 l 253 80 m 272 122 l 190 203 l 190 774 l 272 855 l 411 855 l 492 774 l 492 203 l 411 122 l 272 122 m 122 994 l 122 1172 l 560 1172 l 560 994 l 122 994 m 200 1060 l 489 1060 l 489 1100 l 200 1100 l 200 1060 z "},"Ṓ":{"ha":682,"x_min":69,"x_max":624,"o":"m 213 0 l 69 143 l 69 829 l 213 972 l 469 972 l 613 829 l 613 143 l 469 0 l 213 0 m 308 197 l 374 197 l 416 239 l 416 733 l 374 776 l 308 776 l 266 733 l 266 239 l 308 197 m 253 80 l 430 80 l 535 185 l 535 792 l 430 897 l 253 897 l 148 792 l 148 185 l 253 80 m 272 122 l 190 203 l 190 774 l 272 855 l 411 855 l 492 774 l 492 203 l 411 122 l 272 122 m 122 994 l 122 1172 l 560 1172 l 560 994 l 122 994 m 200 1060 l 489 1060 l 489 1100 l 200 1100 l 200 1060 m 256 1194 l 425 1377 l 624 1377 l 427 1194 l 256 1194 m 367 1236 l 404 1236 l 501 1333 l 458 1333 l 367 1236 z "},"Ṑ":{"ha":682,"x_min":69,"x_max":613,"o":"m 213 0 l 69 143 l 69 829 l 213 972 l 469 972 l 613 829 l 613 143 l 469 0 l 213 0 m 308 197 l 374 197 l 416 239 l 416 733 l 374 776 l 308 776 l 266 733 l 266 239 l 308 197 m 253 80 l 430 80 l 535 185 l 535 792 l 430 897 l 253 897 l 148 792 l 148 185 l 253 80 m 272 122 l 190 203 l 190 774 l 272 855 l 411 855 l 492 774 l 492 203 l 411 122 l 272 122 m 122 994 l 122 1172 l 560 1172 l 560 994 l 122 994 m 200 1060 l 489 1060 l 489 1100 l 200 1100 l 200 1060 m 442 1194 l 270 1194 l 73 1377 l 272 1377 l 442 1194 m 331 1236 l 239 1333 l 197 1333 l 294 1236 l 331 1236 z "},"Ǫ":{"ha":835,"x_min":69,"x_max":765,"o":"m 308 197 l 526 197 l 569 239 l 569 733 l 526 776 l 308 776 l 266 733 l 266 239 l 308 197 m 253 80 l 583 80 l 688 185 l 688 792 l 583 897 l 253 897 l 148 792 l 148 185 l 253 80 m 272 122 l 190 203 l 190 774 l 272 855 l 564 855 l 645 774 l 645 203 l 564 122 l 272 122 m 492 80 l 299 -125 l 378 -215 l 532 -215 l 532 -188 l 391 -188 l 334 -125 l 528 80 l 492 80 m 622 972 l 765 829 l 765 143 l 622 0 l 514 0 l 389 -125 l 410 -147 l 573 -147 l 573 -256 l 361 -256 l 248 -125 l 359 0 l 213 0 l 69 143 l 69 829 l 213 972 l 622 972 z "},"Ø":{"ha":944,"x_min":65,"x_max":880,"o":"m 201 -37 l 65 60 l 115 131 l 101 143 l 101 829 l 244 972 l 692 972 l 703 961 l 743 1017 l 880 922 l 823 841 l 835 829 l 835 143 l 692 0 l 244 0 l 235 10 l 201 -37 m 366 197 l 596 197 l 638 239 l 638 581 l 366 197 m 299 110 l 253 151 l 704 790 l 725 764 l 725 192 l 643 110 l 299 110 m 174 37 l 228 115 l 276 68 l 662 68 l 767 174 l 767 803 l 736 835 l 796 919 l 767 940 l 711 860 l 662 909 l 276 909 l 170 803 l 170 174 l 202 142 l 143 58 l 174 37 m 234 186 l 213 213 l 213 785 l 294 866 l 638 866 l 685 825 l 234 186 m 298 389 l 572 776 l 341 776 l 298 733 l 298 389 z "},"Ǿ":{"ha":944,"x_min":65,"x_max":880,"o":"m 201 -37 l 65 60 l 115 131 l 101 143 l 101 829 l 244 972 l 692 972 l 703 961 l 743 1017 l 880 922 l 823 841 l 835 829 l 835 143 l 692 0 l 244 0 l 235 10 l 201 -37 m 366 197 l 596 197 l 638 239 l 638 581 l 366 197 m 299 110 l 253 151 l 704 790 l 725 764 l 725 192 l 643 110 l 299 110 m 174 37 l 228 115 l 276 68 l 662 68 l 767 174 l 767 803 l 736 835 l 796 919 l 767 940 l 711 860 l 662 909 l 276 909 l 170 803 l 170 174 l 202 142 l 143 58 l 174 37 m 234 186 l 213 213 l 213 785 l 294 866 l 638 866 l 685 825 l 234 186 m 298 389 l 572 776 l 341 776 l 298 733 l 298 389 m 376 994 l 546 1178 l 745 1178 l 548 994 l 376 994 m 488 1037 l 525 1037 l 622 1134 l 579 1134 l 488 1037 z "},"Õ":{"ha":682,"x_min":69,"x_max":613,"o":"m 213 0 l 69 143 l 69 829 l 213 972 l 469 972 l 613 829 l 613 143 l 469 0 l 213 0 m 308 197 l 374 197 l 416 239 l 416 733 l 374 776 l 308 776 l 266 733 l 266 239 l 308 197 m 253 80 l 430 80 l 535 185 l 535 792 l 430 897 l 253 897 l 148 792 l 148 185 l 253 80 m 272 122 l 190 203 l 190 774 l 272 855 l 411 855 l 492 774 l 492 203 l 411 122 l 272 122 m 147 994 l 147 1089 l 225 1167 l 349 1167 l 388 1128 l 400 1128 l 400 1167 l 533 1167 l 533 1072 l 456 994 l 332 994 l 293 1033 l 281 1033 l 281 994 l 147 994 m 201 1038 l 233 1038 l 233 1052 l 267 1088 l 312 1088 l 359 1043 l 428 1043 l 483 1101 l 483 1124 l 451 1124 l 451 1110 l 417 1074 l 367 1074 l 322 1119 l 256 1119 l 201 1061 l 201 1038 z "},"Ṍ":{"ha":682,"x_min":69,"x_max":624,"o":"m 213 0 l 69 143 l 69 829 l 213 972 l 469 972 l 613 829 l 613 143 l 469 0 l 213 0 m 308 197 l 374 197 l 416 239 l 416 733 l 374 776 l 308 776 l 266 733 l 266 239 l 308 197 m 253 80 l 430 80 l 535 185 l 535 792 l 430 897 l 253 897 l 148 792 l 148 185 l 253 80 m 272 122 l 190 203 l 190 774 l 272 855 l 411 855 l 492 774 l 492 203 l 411 122 l 272 122 m 147 994 l 147 1089 l 225 1167 l 349 1167 l 388 1128 l 400 1128 l 400 1167 l 533 1167 l 533 1072 l 456 994 l 332 994 l 293 1033 l 281 1033 l 281 994 l 147 994 m 201 1038 l 233 1038 l 233 1052 l 267 1088 l 312 1088 l 359 1043 l 428 1043 l 483 1101 l 483 1124 l 451 1124 l 451 1110 l 417 1074 l 367 1074 l 322 1119 l 256 1119 l 201 1061 l 201 1038 m 256 1189 l 425 1372 l 624 1372 l 427 1189 l 256 1189 m 367 1231 l 404 1231 l 501 1328 l 458 1328 l 367 1231 z "},"Ṏ":{"ha":682,"x_min":69,"x_max":613,"o":"m 213 0 l 69 143 l 69 829 l 213 972 l 469 972 l 613 829 l 613 143 l 469 0 l 213 0 m 308 197 l 374 197 l 416 239 l 416 733 l 374 776 l 308 776 l 266 733 l 266 239 l 308 197 m 253 80 l 430 80 l 535 185 l 535 792 l 430 897 l 253 897 l 148 792 l 148 185 l 253 80 m 272 122 l 190 203 l 190 774 l 272 855 l 411 855 l 492 774 l 492 203 l 411 122 l 272 122 m 147 994 l 147 1089 l 225 1167 l 349 1167 l 388 1128 l 400 1128 l 400 1167 l 533 1167 l 533 1072 l 456 994 l 332 994 l 293 1033 l 281 1033 l 281 994 l 147 994 m 201 1038 l 233 1038 l 233 1052 l 267 1088 l 312 1088 l 359 1043 l 428 1043 l 483 1101 l 483 1124 l 451 1124 l 451 1110 l 417 1074 l 367 1074 l 322 1119 l 256 1119 l 201 1061 l 201 1038 m 413 1203 l 413 1349 l 560 1349 l 560 1203 l 413 1203 m 124 1203 l 124 1349 l 271 1349 l 271 1203 l 124 1203 m 181 1258 l 211 1258 l 211 1292 l 181 1292 l 181 1258 m 472 1258 l 501 1258 l 501 1292 l 472 1292 l 472 1258 z "},"Ȭ":{"ha":682,"x_min":69,"x_max":613,"o":"m 213 0 l 69 143 l 69 829 l 213 972 l 469 972 l 613 829 l 613 143 l 469 0 l 213 0 m 308 197 l 374 197 l 416 239 l 416 733 l 374 776 l 308 776 l 266 733 l 266 239 l 308 197 m 253 80 l 430 80 l 535 185 l 535 792 l 430 897 l 253 897 l 148 792 l 148 185 l 253 80 m 272 122 l 190 203 l 190 774 l 272 855 l 411 855 l 492 774 l 492 203 l 411 122 l 272 122 m 147 994 l 147 1089 l 225 1167 l 349 1167 l 388 1128 l 400 1128 l 400 1167 l 533 1167 l 533 1072 l 456 994 l 332 994 l 293 1033 l 281 1033 l 281 994 l 147 994 m 201 1038 l 233 1038 l 233 1052 l 267 1088 l 312 1088 l 359 1043 l 428 1043 l 483 1101 l 483 1124 l 451 1124 l 451 1110 l 417 1074 l 367 1074 l 322 1119 l 256 1119 l 201 1061 l 201 1038 m 122 1188 l 122 1366 l 560 1366 l 560 1188 l 122 1188 m 200 1255 l 489 1255 l 489 1294 l 200 1294 l 200 1255 z "},"Œ":{"ha":1314,"x_min":99,"x_max":1214,"o":"m 242 0 l 99 143 l 99 829 l 242 972 l 1214 972 l 1214 776 l 832 776 l 832 589 l 1187 589 l 1187 392 l 832 392 l 832 197 l 1214 197 l 1214 0 l 242 0 m 300 110 l 218 192 l 218 785 l 300 866 l 634 866 l 715 785 l 715 192 l 634 110 l 300 110 m 338 197 l 593 197 l 635 239 l 635 733 l 593 776 l 338 776 l 295 733 l 295 239 l 338 197 m 281 68 l 653 68 l 722 135 l 723 68 l 1151 68 l 1151 110 l 758 110 l 758 472 l 1123 472 l 1123 514 l 758 514 l 758 866 l 1151 866 l 1151 909 l 723 909 l 722 842 l 653 909 l 281 909 l 175 803 l 175 174 l 281 68 z "},"P":{"ha":640,"x_min":76,"x_max":583,"o":"m 76 0 l 76 972 l 440 972 l 583 829 l 583 447 l 427 290 l 273 290 l 273 0 l 76 0 m 152 66 l 194 66 l 194 370 l 392 370 l 510 488 l 510 792 l 405 897 l 152 897 l 152 66 m 273 487 l 331 487 l 388 542 l 388 733 l 345 776 l 273 776 l 273 487 m 194 413 l 194 855 l 386 855 l 467 774 l 467 506 l 373 413 l 194 413 z "},"Þ":{"ha":765,"x_min":63,"x_max":703,"o":"m 63 0 l 63 972 l 259 972 l 259 750 l 559 750 l 703 607 l 703 365 l 559 222 l 259 222 l 259 0 l 63 0 m 139 74 l 181 74 l 181 301 l 512 301 l 624 413 l 624 577 l 523 678 l 181 678 l 181 901 l 139 901 l 139 74 m 181 343 l 181 635 l 504 635 l 581 559 l 581 431 l 492 343 l 181 343 m 259 419 l 464 419 l 506 461 l 506 511 l 464 554 l 259 554 l 259 419 z "},"Q":{"ha":708,"x_min":69,"x_max":638,"o":"m 505 -168 l 338 0 l 213 0 l 69 143 l 69 829 l 213 972 l 488 972 l 631 829 l 631 143 l 547 59 l 638 -35 l 505 -168 m 518 -76 l 548 -47 l 419 86 l 456 86 l 555 185 l 555 792 l 449 897 l 253 897 l 148 792 l 148 185 l 253 80 l 367 80 l 518 -76 m 308 197 l 392 197 l 435 239 l 435 733 l 392 776 l 308 776 l 266 733 l 266 239 l 308 197 m 272 122 l 190 203 l 190 774 l 272 855 l 430 855 l 512 774 l 512 203 l 430 122 l 272 122 z "},"R":{"ha":666,"x_min":76,"x_max":597,"o":"m 76 0 l 76 972 l 453 972 l 597 829 l 597 528 l 512 450 l 597 358 l 597 0 l 400 0 l 400 288 l 331 358 l 273 358 l 273 0 l 76 0 m 153 75 l 197 75 l 197 439 l 363 439 l 479 315 l 479 75 l 522 75 l 522 328 l 401 459 l 517 558 l 517 792 l 412 897 l 153 897 l 153 75 m 273 554 l 358 554 l 400 597 l 400 733 l 358 776 l 273 776 l 273 554 m 197 482 l 197 854 l 392 854 l 474 774 l 474 572 l 367 482 l 197 482 z "},"Ŕ":{"ha":666,"x_min":76,"x_max":627,"o":"m 76 0 l 76 972 l 453 972 l 597 829 l 597 528 l 512 450 l 597 358 l 597 0 l 400 0 l 400 288 l 331 358 l 273 358 l 273 0 l 76 0 m 153 75 l 197 75 l 197 439 l 363 439 l 479 315 l 479 75 l 522 75 l 522 328 l 401 459 l 517 558 l 517 792 l 412 897 l 153 897 l 153 75 m 273 554 l 358 554 l 400 597 l 400 733 l 358 776 l 273 776 l 273 554 m 197 482 l 197 854 l 392 854 l 474 774 l 474 572 l 367 482 l 197 482 m 258 994 l 428 1178 l 627 1178 l 430 994 l 258 994 m 369 1037 l 407 1037 l 503 1134 l 461 1134 l 369 1037 z "},"Ř":{"ha":666,"x_min":76,"x_max":597,"o":"m 76 0 l 76 972 l 453 972 l 597 829 l 597 528 l 512 450 l 597 358 l 597 0 l 400 0 l 400 288 l 331 358 l 273 358 l 273 0 l 76 0 m 153 75 l 197 75 l 197 439 l 363 439 l 479 315 l 479 75 l 522 75 l 522 328 l 401 459 l 517 558 l 517 792 l 412 897 l 153 897 l 153 75 m 273 554 l 358 554 l 400 597 l 400 733 l 358 776 l 273 776 l 273 554 m 197 482 l 197 854 l 392 854 l 474 774 l 474 572 l 367 482 l 197 482 m 256 994 l 101 1192 l 293 1192 l 344 1117 l 394 1192 l 587 1192 l 431 994 l 256 994 m 294 1043 l 392 1043 l 462 1136 l 420 1136 l 370 1067 l 315 1067 l 265 1136 l 224 1136 l 294 1043 z "},"Ŗ":{"ha":666,"x_min":76,"x_max":597,"o":"m 76 0 l 76 972 l 453 972 l 597 829 l 597 528 l 512 450 l 597 358 l 597 0 l 400 0 l 400 288 l 331 358 l 273 358 l 273 0 l 76 0 m 153 75 l 197 75 l 197 439 l 363 439 l 479 315 l 479 75 l 522 75 l 522 328 l 401 459 l 517 558 l 517 792 l 412 897 l 153 897 l 153 75 m 273 554 l 358 554 l 400 597 l 400 733 l 358 776 l 273 776 l 273 554 m 197 482 l 197 854 l 392 854 l 474 774 l 474 572 l 367 482 l 197 482 m 172 -368 l 251 -50 l 439 -50 l 328 -368 l 172 -368 m 253 -303 l 281 -303 l 344 -130 l 299 -130 l 253 -303 z "},"Ȑ":{"ha":666,"x_min":-69,"x_max":597,"o":"m 76 0 l 76 972 l 453 972 l 597 829 l 597 528 l 512 450 l 597 358 l 597 0 l 400 0 l 400 288 l 331 358 l 273 358 l 273 0 l 76 0 m 153 75 l 197 75 l 197 439 l 363 439 l 479 315 l 479 75 l 522 75 l 522 328 l 401 459 l 517 558 l 517 792 l 412 897 l 153 897 l 153 75 m 273 554 l 358 554 l 400 597 l 400 733 l 358 776 l 273 776 l 273 554 m 197 482 l 197 854 l 392 854 l 474 774 l 474 572 l 367 482 l 197 482 m 572 994 l 400 994 l 203 1178 l 402 1178 l 572 994 m 460 1037 l 369 1134 l 327 1134 l 424 1037 l 460 1037 m 299 994 l 128 994 l -69 1178 l 130 1178 l 299 994 m 188 1037 l 97 1134 l 55 1134 l 151 1037 l 188 1037 z "},"Ṛ":{"ha":666,"x_min":76,"x_max":597,"o":"m 76 0 l 76 972 l 453 972 l 597 829 l 597 528 l 512 450 l 597 358 l 597 0 l 400 0 l 400 288 l 331 358 l 273 358 l 273 0 l 76 0 m 153 75 l 197 75 l 197 439 l 363 439 l 479 315 l 479 75 l 522 75 l 522 328 l 401 459 l 517 558 l 517 792 l 412 897 l 153 897 l 153 75 m 273 554 l 358 554 l 400 597 l 400 733 l 358 776 l 273 776 l 273 554 m 197 482 l 197 854 l 392 854 l 474 774 l 474 572 l 367 482 l 197 482 m 270 -188 l 270 -42 l 417 -42 l 417 -188 l 270 -188 m 328 -133 l 358 -133 l 358 -99 l 328 -99 l 328 -133 z "},"Ȓ":{"ha":666,"x_min":76,"x_max":597,"o":"m 76 0 l 76 972 l 453 972 l 597 829 l 597 528 l 512 450 l 597 358 l 597 0 l 400 0 l 400 288 l 331 358 l 273 358 l 273 0 l 76 0 m 153 75 l 197 75 l 197 439 l 363 439 l 479 315 l 479 75 l 522 75 l 522 328 l 401 459 l 517 558 l 517 792 l 412 897 l 153 897 l 153 75 m 273 554 l 358 554 l 400 597 l 400 733 l 358 776 l 273 776 l 273 554 m 197 482 l 197 854 l 392 854 l 474 774 l 474 572 l 367 482 l 197 482 m 426 1180 l 504 1102 l 504 994 l 371 994 l 371 1047 l 317 1047 l 317 994 l 183 994 l 183 1102 l 261 1180 l 426 1180 m 395 1131 l 292 1131 l 236 1073 l 236 1044 l 268 1044 l 268 1064 l 301 1100 l 385 1100 l 418 1064 l 418 1044 l 450 1044 l 450 1073 l 395 1131 z "},"Ṟ":{"ha":666,"x_min":76,"x_max":597,"o":"m 76 0 l 76 972 l 453 972 l 597 829 l 597 528 l 512 450 l 597 358 l 597 0 l 400 0 l 400 288 l 331 358 l 273 358 l 273 0 l 76 0 m 153 75 l 197 75 l 197 439 l 363 439 l 479 315 l 479 75 l 522 75 l 522 328 l 401 459 l 517 558 l 517 792 l 412 897 l 153 897 l 153 75 m 273 554 l 358 554 l 400 597 l 400 733 l 358 776 l 273 776 l 273 554 m 197 482 l 197 854 l 392 854 l 474 774 l 474 572 l 367 482 l 197 482 m 124 -226 l 124 -49 l 563 -49 l 563 -226 l 124 -226 m 203 -160 l 492 -160 l 492 -120 l 203 -120 l 203 -160 z "},"S":{"ha":679,"x_min":69,"x_max":610,"o":"m 213 0 l 69 143 l 69 318 l 266 318 l 266 239 l 308 197 l 371 197 l 413 239 l 413 346 l 371 388 l 217 388 l 74 531 l 74 829 l 217 972 l 453 972 l 597 829 l 597 654 l 400 654 l 400 733 l 358 776 l 313 776 l 269 733 l 269 627 l 313 585 l 467 585 l 610 442 l 610 143 l 467 0 l 213 0 m 249 76 l 424 76 l 529 181 l 529 415 l 435 508 l 276 508 l 193 591 l 193 772 l 275 852 l 400 852 l 476 778 l 476 724 l 519 724 l 519 796 l 419 895 l 256 895 l 150 790 l 150 573 l 258 465 l 416 465 l 486 397 l 486 199 l 405 119 l 268 119 l 192 194 l 192 249 l 149 249 l 149 176 l 249 76 z "},"Ś":{"ha":679,"x_min":69,"x_max":623,"o":"m 213 0 l 69 143 l 69 318 l 266 318 l 266 239 l 308 197 l 371 197 l 413 239 l 413 346 l 371 388 l 217 388 l 74 531 l 74 829 l 217 972 l 453 972 l 597 829 l 597 654 l 400 654 l 400 733 l 358 776 l 313 776 l 269 733 l 269 627 l 313 585 l 467 585 l 610 442 l 610 143 l 467 0 l 213 0 m 249 76 l 424 76 l 529 181 l 529 415 l 435 508 l 276 508 l 193 591 l 193 772 l 275 852 l 400 852 l 476 778 l 476 724 l 519 724 l 519 796 l 419 895 l 256 895 l 150 790 l 150 573 l 258 465 l 416 465 l 486 397 l 486 199 l 405 119 l 268 119 l 192 194 l 192 249 l 149 249 l 149 176 l 249 76 m 254 994 l 424 1178 l 623 1178 l 426 994 l 254 994 m 365 1037 l 403 1037 l 499 1134 l 457 1134 l 365 1037 z "},"Ṥ":{"ha":679,"x_min":69,"x_max":623,"o":"m 213 0 l 69 143 l 69 318 l 266 318 l 266 239 l 308 197 l 371 197 l 413 239 l 413 346 l 371 388 l 217 388 l 74 531 l 74 829 l 217 972 l 453 972 l 597 829 l 597 654 l 400 654 l 400 733 l 358 776 l 313 776 l 269 733 l 269 627 l 313 585 l 467 585 l 610 442 l 610 143 l 467 0 l 213 0 m 249 76 l 424 76 l 529 181 l 529 415 l 435 508 l 276 508 l 193 591 l 193 772 l 275 852 l 400 852 l 476 778 l 476 724 l 519 724 l 519 796 l 419 895 l 256 895 l 150 790 l 150 573 l 258 465 l 416 465 l 486 397 l 486 199 l 405 119 l 268 119 l 192 194 l 192 249 l 149 249 l 149 176 l 249 76 m 254 994 l 424 1178 l 623 1178 l 426 994 l 254 994 m 365 1037 l 403 1037 l 499 1134 l 457 1134 l 365 1037 m 369 1214 l 369 1360 l 516 1360 l 516 1214 l 369 1214 m 426 1269 l 456 1269 l 456 1303 l 426 1303 l 426 1269 z "},"Š":{"ha":679,"x_min":69,"x_max":610,"o":"m 213 0 l 69 143 l 69 318 l 266 318 l 266 239 l 308 197 l 371 197 l 413 239 l 413 346 l 371 388 l 217 388 l 74 531 l 74 829 l 217 972 l 453 972 l 597 829 l 597 654 l 400 654 l 400 733 l 358 776 l 313 776 l 269 733 l 269 627 l 313 585 l 467 585 l 610 442 l 610 143 l 467 0 l 213 0 m 249 76 l 424 76 l 529 181 l 529 415 l 435 508 l 276 508 l 193 591 l 193 772 l 275 852 l 400 852 l 476 778 l 476 724 l 519 724 l 519 796 l 419 895 l 256 895 l 150 790 l 150 573 l 258 465 l 416 465 l 486 397 l 486 199 l 405 119 l 268 119 l 192 194 l 192 249 l 149 249 l 149 176 l 249 76 m 252 994 l 97 1192 l 289 1192 l 340 1117 l 390 1192 l 583 1192 l 427 994 l 252 994 m 290 1043 l 388 1043 l 458 1136 l 416 1136 l 366 1067 l 310 1067 l 261 1136 l 219 1136 l 290 1043 z "},"Ṧ":{"ha":679,"x_min":69,"x_max":610,"o":"m 213 0 l 69 143 l 69 318 l 266 318 l 266 239 l 308 197 l 371 197 l 413 239 l 413 346 l 371 388 l 217 388 l 74 531 l 74 829 l 217 972 l 453 972 l 597 829 l 597 654 l 400 654 l 400 733 l 358 776 l 313 776 l 269 733 l 269 627 l 313 585 l 467 585 l 610 442 l 610 143 l 467 0 l 213 0 m 249 76 l 424 76 l 529 181 l 529 415 l 435 508 l 276 508 l 193 591 l 193 772 l 275 852 l 400 852 l 476 778 l 476 724 l 519 724 l 519 796 l 419 895 l 256 895 l 150 790 l 150 573 l 258 465 l 416 465 l 486 397 l 486 199 l 405 119 l 268 119 l 192 194 l 192 249 l 149 249 l 149 176 l 249 76 m 252 994 l 97 1192 l 289 1192 l 340 1117 l 390 1192 l 583 1192 l 427 994 l 252 994 m 290 1043 l 388 1043 l 458 1136 l 416 1136 l 366 1067 l 310 1067 l 261 1136 l 219 1136 l 290 1043 m 267 1228 l 267 1374 l 414 1374 l 414 1228 l 267 1228 m 324 1283 l 354 1283 l 354 1317 l 324 1317 l 324 1283 z "},"Ş":{"ha":835,"x_min":71,"x_max":764,"o":"m 286 -242 l 286 -133 l 428 -133 l 449 -111 l 428 -90 l 335 -90 l 335 0 l 214 0 l 71 143 l 71 318 l 267 318 l 267 239 l 310 197 l 525 197 l 567 239 l 567 318 l 525 360 l 218 423 l 75 566 l 75 829 l 218 972 l 608 972 l 751 829 l 751 654 l 554 654 l 554 733 l 512 776 l 314 776 l 271 733 l 271 662 l 314 619 l 621 557 l 764 414 l 764 143 l 621 0 l 522 0 l 618 -111 l 505 -242 l 286 -242 m 339 -201 l 476 -201 l 556 -111 l 476 -22 l 428 -22 l 428 76 l 578 76 l 683 181 l 683 387 l 590 481 l 277 543 l 194 626 l 194 772 l 276 852 l 554 852 l 631 778 l 631 724 l 673 724 l 673 796 l 574 895 l 257 895 l 151 790 l 151 608 l 259 500 l 570 438 l 640 369 l 640 199 l 559 119 l 269 119 l 194 194 l 194 254 l 151 254 l 151 176 l 251 76 l 389 76 l 389 -49 l 458 -49 l 515 -111 l 458 -174 l 339 -174 l 339 -201 z "},"Ŝ":{"ha":679,"x_min":69,"x_max":610,"o":"m 213 0 l 69 143 l 69 318 l 266 318 l 266 239 l 308 197 l 371 197 l 413 239 l 413 346 l 371 388 l 217 388 l 74 531 l 74 829 l 217 972 l 453 972 l 597 829 l 597 654 l 400 654 l 400 733 l 358 776 l 313 776 l 269 733 l 269 627 l 313 585 l 467 585 l 610 442 l 610 143 l 467 0 l 213 0 m 249 76 l 424 76 l 529 181 l 529 415 l 435 508 l 276 508 l 193 591 l 193 772 l 275 852 l 400 852 l 476 778 l 476 724 l 519 724 l 519 796 l 419 895 l 256 895 l 150 790 l 150 573 l 258 465 l 416 465 l 486 397 l 486 199 l 405 119 l 268 119 l 192 194 l 192 249 l 149 249 l 149 176 l 249 76 m 252 1192 l 427 1192 l 583 994 l 390 994 l 340 1069 l 289 994 l 97 994 l 252 1192 m 290 1143 l 219 1050 l 261 1050 l 310 1119 l 366 1119 l 416 1050 l 458 1050 l 388 1143 l 290 1143 z "},"Ș":{"ha":679,"x_min":69,"x_max":610,"o":"m 213 0 l 69 143 l 69 318 l 266 318 l 266 239 l 308 197 l 371 197 l 413 239 l 413 346 l 371 388 l 217 388 l 74 531 l 74 829 l 217 972 l 453 972 l 597 829 l 597 654 l 400 654 l 400 733 l 358 776 l 313 776 l 269 733 l 269 627 l 313 585 l 467 585 l 610 442 l 610 143 l 467 0 l 213 0 m 249 76 l 424 76 l 529 181 l 529 415 l 435 508 l 276 508 l 193 591 l 193 772 l 275 852 l 400 852 l 476 778 l 476 724 l 519 724 l 519 796 l 419 895 l 256 895 l 150 790 l 150 573 l 258 465 l 416 465 l 486 397 l 486 199 l 405 119 l 268 119 l 192 194 l 192 249 l 149 249 l 149 176 l 249 76 m 167 -368 l 247 -50 l 435 -50 l 324 -368 l 167 -368 m 249 -303 l 277 -303 l 340 -130 l 294 -130 l 249 -303 z "},"Ṡ":{"ha":679,"x_min":69,"x_max":610,"o":"m 213 0 l 69 143 l 69 318 l 266 318 l 266 239 l 308 197 l 371 197 l 413 239 l 413 346 l 371 388 l 217 388 l 74 531 l 74 829 l 217 972 l 453 972 l 597 829 l 597 654 l 400 654 l 400 733 l 358 776 l 313 776 l 269 733 l 269 627 l 313 585 l 467 585 l 610 442 l 610 143 l 467 0 l 213 0 m 249 76 l 424 76 l 529 181 l 529 415 l 435 508 l 276 508 l 193 591 l 193 772 l 275 852 l 400 852 l 476 778 l 476 724 l 519 724 l 519 796 l 419 895 l 256 895 l 150 790 l 150 573 l 258 465 l 416 465 l 486 397 l 486 199 l 405 119 l 268 119 l 192 194 l 192 249 l 149 249 l 149 176 l 249 76 m 267 1008 l 267 1154 l 414 1154 l 414 1008 l 267 1008 m 324 1064 l 354 1064 l 354 1098 l 324 1098 l 324 1064 z "},"Ṣ":{"ha":679,"x_min":69,"x_max":610,"o":"m 213 0 l 69 143 l 69 318 l 266 318 l 266 239 l 308 197 l 371 197 l 413 239 l 413 346 l 371 388 l 217 388 l 74 531 l 74 829 l 217 972 l 453 972 l 597 829 l 597 654 l 400 654 l 400 733 l 358 776 l 313 776 l 269 733 l 269 627 l 313 585 l 467 585 l 610 442 l 610 143 l 467 0 l 213 0 m 249 76 l 424 76 l 529 181 l 529 415 l 435 508 l 276 508 l 193 591 l 193 772 l 275 852 l 400 852 l 476 778 l 476 724 l 519 724 l 519 796 l 419 895 l 256 895 l 150 790 l 150 573 l 258 465 l 416 465 l 486 397 l 486 199 l 405 119 l 268 119 l 192 194 l 192 249 l 149 249 l 149 176 l 249 76 m 266 -188 l 266 -42 l 413 -42 l 413 -188 l 266 -188 m 324 -133 l 353 -133 l 353 -99 l 324 -99 l 324 -133 z "},"Ṩ":{"ha":679,"x_min":69,"x_max":610,"o":"m 213 0 l 69 143 l 69 318 l 266 318 l 266 239 l 308 197 l 371 197 l 413 239 l 413 346 l 371 388 l 217 388 l 74 531 l 74 829 l 217 972 l 453 972 l 597 829 l 597 654 l 400 654 l 400 733 l 358 776 l 313 776 l 269 733 l 269 627 l 313 585 l 467 585 l 610 442 l 610 143 l 467 0 l 213 0 m 249 76 l 424 76 l 529 181 l 529 415 l 435 508 l 276 508 l 193 591 l 193 772 l 275 852 l 400 852 l 476 778 l 476 724 l 519 724 l 519 796 l 419 895 l 256 895 l 150 790 l 150 573 l 258 465 l 416 465 l 486 397 l 486 199 l 405 119 l 268 119 l 192 194 l 192 249 l 149 249 l 149 176 l 249 76 m 266 -188 l 266 -42 l 413 -42 l 413 -188 l 266 -188 m 324 -133 l 353 -133 l 353 -99 l 324 -99 l 324 -133 m 267 1008 l 267 1154 l 414 1154 l 414 1008 l 267 1008 m 324 1064 l 354 1064 l 354 1098 l 324 1098 l 324 1064 z "},"ẞ":{"ha":782,"x_min":49,"x_max":733,"o":"m 49 0 l 49 829 l 192 972 l 545 972 l 688 829 l 688 581 l 626 519 l 733 412 l 733 157 l 576 0 l 368 0 l 368 197 l 481 197 l 537 253 l 537 323 l 423 437 l 423 594 l 492 663 l 492 733 l 450 776 l 288 776 l 245 733 l 245 0 l 49 0 m 123 77 l 166 77 l 166 783 l 233 852 l 505 852 l 569 783 l 569 628 l 506 565 l 506 467 l 612 360 l 612 209 l 520 121 l 434 121 l 434 78 l 540 78 l 654 188 l 654 375 l 548 485 l 548 548 l 611 612 l 611 803 l 526 894 l 211 894 l 123 806 l 123 77 z "},"Ə":{"ha":863,"x_min":74,"x_max":788,"o":"m 217 0 l 74 143 l 74 473 l 217 616 l 592 616 l 592 733 l 549 776 l 83 776 l 83 972 l 645 972 l 788 829 l 788 143 l 645 0 l 217 0 m 277 119 l 194 201 l 194 427 l 268 501 l 675 501 l 675 206 l 587 119 l 277 119 m 258 76 l 606 76 l 718 188 l 718 789 l 610 897 l 165 897 l 165 853 l 591 853 l 675 771 l 675 542 l 252 542 l 151 443 l 151 183 l 258 76 m 313 197 l 549 197 l 592 239 l 592 426 l 299 426 l 269 397 l 269 239 l 313 197 z "},"T":{"ha":557,"x_min":42,"x_max":515,"o":"m 181 0 l 181 776 l 42 776 l 42 972 l 515 972 l 515 776 l 376 776 l 376 0 l 181 0 m 257 74 l 299 74 l 299 855 l 442 855 l 442 897 l 115 897 l 115 855 l 257 855 l 257 74 z "},"Ŧ":{"ha":744,"x_min":49,"x_max":675,"o":"m 264 0 l 264 489 l 135 489 l 135 660 l 264 660 l 264 776 l 49 776 l 49 972 l 675 972 l 675 776 l 460 776 l 460 660 l 584 660 l 584 489 l 460 489 l 460 0 l 264 0 m 340 74 l 383 74 l 383 555 l 518 555 l 518 593 l 383 593 l 383 855 l 607 855 l 607 897 l 115 897 l 115 855 l 340 855 l 340 593 l 204 593 l 204 555 l 340 555 l 340 74 z "},"Ť":{"ha":557,"x_min":35,"x_max":522,"o":"m 181 0 l 181 776 l 42 776 l 42 972 l 515 972 l 515 776 l 376 776 l 376 0 l 181 0 m 257 74 l 299 74 l 299 855 l 442 855 l 442 897 l 115 897 l 115 855 l 257 855 l 257 74 m 191 994 l 35 1192 l 228 1192 l 278 1117 l 329 1192 l 522 1192 l 366 994 l 191 994 m 228 1043 l 326 1043 l 397 1136 l 355 1136 l 305 1067 l 249 1067 l 200 1136 l 158 1136 l 228 1043 z "},"Ţ":{"ha":738,"x_min":56,"x_max":682,"o":"m 238 -242 l 238 -133 l 380 -133 l 401 -111 l 380 -90 l 271 -90 l 271 776 l 56 776 l 56 972 l 682 972 l 682 776 l 467 776 l 467 7 l 569 -111 l 456 -242 l 238 -242 m 290 -201 l 427 -201 l 508 -111 l 428 -23 l 390 -23 l 390 855 l 615 855 l 615 897 l 123 897 l 123 855 l 347 855 l 347 -49 l 410 -49 l 467 -111 l 410 -174 l 290 -174 l 290 -201 z "},"Ț":{"ha":557,"x_min":42,"x_max":515,"o":"m 181 0 l 181 776 l 42 776 l 42 972 l 515 972 l 515 776 l 376 776 l 376 0 l 181 0 m 257 74 l 299 74 l 299 855 l 442 855 l 442 897 l 115 897 l 115 855 l 257 855 l 257 74 m 106 -368 l 185 -50 l 374 -50 l 263 -368 l 106 -368 m 188 -303 l 216 -303 l 279 -130 l 233 -130 l 188 -303 z "},"Ṭ":{"ha":557,"x_min":42,"x_max":515,"o":"m 181 0 l 181 776 l 42 776 l 42 972 l 515 972 l 515 776 l 376 776 l 376 0 l 181 0 m 257 74 l 299 74 l 299 855 l 442 855 l 442 897 l 115 897 l 115 855 l 257 855 l 257 74 m 205 -188 l 205 -42 l 352 -42 l 352 -188 l 205 -188 m 263 -133 l 292 -133 l 292 -99 l 263 -99 l 263 -133 z "},"Ṯ":{"ha":557,"x_min":42,"x_max":515,"o":"m 181 0 l 181 776 l 42 776 l 42 972 l 515 972 l 515 776 l 376 776 l 376 0 l 181 0 m 257 74 l 299 74 l 299 855 l 442 855 l 442 897 l 115 897 l 115 855 l 257 855 l 257 74 m 59 -226 l 59 -49 l 498 -49 l 498 -226 l 59 -226 m 138 -160 l 426 -160 l 426 -120 l 138 -120 l 138 -160 z "},"U":{"ha":679,"x_min":69,"x_max":610,"o":"m 213 0 l 69 143 l 69 972 l 266 972 l 266 239 l 308 197 l 371 197 l 413 239 l 413 972 l 610 972 l 610 143 l 467 0 l 213 0 m 253 76 l 428 76 l 533 181 l 533 897 l 490 897 l 490 199 l 408 119 l 272 119 l 189 199 l 189 897 l 146 897 l 146 181 l 253 76 z "},"Ú":{"ha":679,"x_min":69,"x_max":624,"o":"m 213 0 l 69 143 l 69 972 l 266 972 l 266 239 l 308 197 l 371 197 l 413 239 l 413 972 l 610 972 l 610 143 l 467 0 l 213 0 m 253 76 l 428 76 l 533 181 l 533 897 l 490 897 l 490 199 l 408 119 l 272 119 l 189 199 l 189 897 l 146 897 l 146 181 l 253 76 m 255 994 l 424 1178 l 624 1178 l 426 994 l 255 994 m 366 1037 l 403 1037 l 500 1134 l 458 1134 l 366 1037 z "},"Ŭ":{"ha":679,"x_min":69,"x_max":610,"o":"m 213 0 l 69 143 l 69 972 l 266 972 l 266 239 l 308 197 l 371 197 l 413 239 l 413 972 l 610 972 l 610 143 l 467 0 l 213 0 m 253 76 l 428 76 l 533 181 l 533 897 l 490 897 l 490 199 l 408 119 l 272 119 l 189 199 l 189 897 l 146 897 l 146 181 l 253 76 m 258 994 l 180 1072 l 180 1181 l 313 1181 l 313 1128 l 367 1128 l 367 1181 l 501 1181 l 501 1072 l 423 994 l 258 994 m 289 1043 l 392 1043 l 448 1101 l 448 1130 l 416 1130 l 416 1110 l 383 1074 l 299 1074 l 266 1110 l 266 1130 l 234 1130 l 234 1101 l 289 1043 z "},"Ǔ":{"ha":679,"x_min":69,"x_max":610,"o":"m 213 0 l 69 143 l 69 972 l 266 972 l 266 239 l 308 197 l 371 197 l 413 239 l 413 972 l 610 972 l 610 143 l 467 0 l 213 0 m 253 76 l 428 76 l 533 181 l 533 897 l 490 897 l 490 199 l 408 119 l 272 119 l 189 199 l 189 897 l 146 897 l 146 181 l 253 76 m 253 994 l 97 1192 l 290 1192 l 340 1117 l 391 1192 l 583 1192 l 428 994 l 253 994 m 290 1043 l 388 1043 l 458 1136 l 417 1136 l 367 1067 l 311 1067 l 262 1136 l 220 1136 l 290 1043 z "},"Û":{"ha":679,"x_min":69,"x_max":610,"o":"m 213 0 l 69 143 l 69 972 l 266 972 l 266 239 l 308 197 l 371 197 l 413 239 l 413 972 l 610 972 l 610 143 l 467 0 l 213 0 m 253 76 l 428 76 l 533 181 l 533 897 l 490 897 l 490 199 l 408 119 l 272 119 l 189 199 l 189 897 l 146 897 l 146 181 l 253 76 m 253 1192 l 428 1192 l 583 994 l 391 994 l 340 1069 l 290 994 l 97 994 l 253 1192 m 290 1143 l 220 1050 l 262 1050 l 311 1119 l 367 1119 l 417 1050 l 458 1050 l 388 1143 l 290 1143 z "},"Ȕ":{"ha":679,"x_min":-73,"x_max":610,"o":"m 213 0 l 69 143 l 69 972 l 266 972 l 266 239 l 308 197 l 371 197 l 413 239 l 413 972 l 610 972 l 610 143 l 467 0 l 213 0 m 253 76 l 428 76 l 533 181 l 533 897 l 490 897 l 490 199 l 408 119 l 272 119 l 189 199 l 189 897 l 146 897 l 146 181 l 253 76 m 568 994 l 397 994 l 199 1178 l 399 1178 l 568 994 m 457 1037 l 365 1134 l 324 1134 l 420 1037 l 457 1037 m 296 994 l 124 994 l -73 1178 l 126 1178 l 296 994 m 185 1037 l 93 1134 l 51 1134 l 148 1037 l 185 1037 z "},"Ü":{"ha":679,"x_min":69,"x_max":610,"o":"m 213 0 l 69 143 l 69 972 l 266 972 l 266 239 l 308 197 l 371 197 l 413 239 l 413 972 l 610 972 l 610 143 l 467 0 l 213 0 m 253 76 l 428 76 l 533 181 l 533 897 l 490 897 l 490 199 l 408 119 l 272 119 l 189 199 l 189 897 l 146 897 l 146 181 l 253 76 m 412 1008 l 412 1154 l 559 1154 l 559 1008 l 412 1008 m 123 1008 l 123 1154 l 270 1154 l 270 1008 l 123 1008 m 181 1064 l 210 1064 l 210 1098 l 181 1098 l 181 1064 m 471 1064 l 500 1064 l 500 1098 l 471 1098 l 471 1064 z "},"Ǘ":{"ha":679,"x_min":69,"x_max":624,"o":"m 213 0 l 69 143 l 69 972 l 266 972 l 266 239 l 308 197 l 371 197 l 413 239 l 413 972 l 610 972 l 610 143 l 467 0 l 213 0 m 253 76 l 428 76 l 533 181 l 533 897 l 490 897 l 490 199 l 408 119 l 272 119 l 189 199 l 189 897 l 146 897 l 146 181 l 253 76 m 412 1008 l 412 1154 l 559 1154 l 559 1008 l 412 1008 m 123 1008 l 123 1154 l 270 1154 l 270 1008 l 123 1008 m 181 1064 l 210 1064 l 210 1098 l 181 1098 l 181 1064 m 471 1064 l 500 1064 l 500 1098 l 471 1098 l 471 1064 m 255 1176 l 424 1360 l 624 1360 l 426 1176 l 255 1176 m 366 1219 l 403 1219 l 500 1316 l 458 1316 l 366 1219 z "},"Ǚ":{"ha":679,"x_min":69,"x_max":610,"o":"m 213 0 l 69 143 l 69 972 l 266 972 l 266 239 l 308 197 l 371 197 l 413 239 l 413 972 l 610 972 l 610 143 l 467 0 l 213 0 m 253 76 l 428 76 l 533 181 l 533 897 l 490 897 l 490 199 l 408 119 l 272 119 l 189 199 l 189 897 l 146 897 l 146 181 l 253 76 m 412 1008 l 412 1154 l 559 1154 l 559 1008 l 412 1008 m 123 1008 l 123 1154 l 270 1154 l 270 1008 l 123 1008 m 181 1064 l 210 1064 l 210 1098 l 181 1098 l 181 1064 m 471 1064 l 500 1064 l 500 1098 l 471 1098 l 471 1064 m 253 1176 l 97 1374 l 290 1374 l 340 1299 l 391 1374 l 583 1374 l 428 1176 l 253 1176 m 290 1225 l 388 1225 l 458 1318 l 417 1318 l 367 1249 l 311 1249 l 262 1318 l 220 1318 l 290 1225 z "},"Ǜ":{"ha":679,"x_min":69,"x_max":610,"o":"m 213 0 l 69 143 l 69 972 l 266 972 l 266 239 l 308 197 l 371 197 l 413 239 l 413 972 l 610 972 l 610 143 l 467 0 l 213 0 m 253 76 l 428 76 l 533 181 l 533 897 l 490 897 l 490 199 l 408 119 l 272 119 l 189 199 l 189 897 l 146 897 l 146 181 l 253 76 m 412 1008 l 412 1154 l 559 1154 l 559 1008 l 412 1008 m 123 1008 l 123 1154 l 270 1154 l 270 1008 l 123 1008 m 181 1064 l 210 1064 l 210 1098 l 181 1098 l 181 1064 m 471 1064 l 500 1064 l 500 1098 l 471 1098 l 471 1064 m 441 1176 l 269 1176 l 72 1360 l 272 1360 l 441 1176 m 330 1219 l 238 1316 l 197 1316 l 293 1219 l 330 1219 z "},"Ǖ":{"ha":679,"x_min":69,"x_max":610,"o":"m 213 0 l 69 143 l 69 972 l 266 972 l 266 239 l 308 197 l 371 197 l 413 239 l 413 972 l 610 972 l 610 143 l 467 0 l 213 0 m 253 76 l 428 76 l 533 181 l 533 897 l 490 897 l 490 199 l 408 119 l 272 119 l 189 199 l 189 897 l 146 897 l 146 181 l 253 76 m 412 1008 l 412 1154 l 559 1154 l 559 1008 l 412 1008 m 123 1008 l 123 1154 l 270 1154 l 270 1008 l 123 1008 m 181 1064 l 210 1064 l 210 1098 l 181 1098 l 181 1064 m 471 1064 l 500 1064 l 500 1098 l 471 1098 l 471 1064 m 121 1176 l 121 1353 l 560 1353 l 560 1176 l 121 1176 m 199 1242 l 488 1242 l 488 1282 l 199 1282 l 199 1242 z "},"Ụ":{"ha":679,"x_min":69,"x_max":610,"o":"m 213 0 l 69 143 l 69 972 l 266 972 l 266 239 l 308 197 l 371 197 l 413 239 l 413 972 l 610 972 l 610 143 l 467 0 l 213 0 m 253 76 l 428 76 l 533 181 l 533 897 l 490 897 l 490 199 l 408 119 l 272 119 l 189 199 l 189 897 l 146 897 l 146 181 l 253 76 m 267 -188 l 267 -42 l 414 -42 l 414 -188 l 267 -188 m 324 -133 l 354 -133 l 354 -99 l 324 -99 l 324 -133 z "},"Ù":{"ha":679,"x_min":69,"x_max":610,"o":"m 213 0 l 69 143 l 69 972 l 266 972 l 266 239 l 308 197 l 371 197 l 413 239 l 413 972 l 610 972 l 610 143 l 467 0 l 213 0 m 253 76 l 428 76 l 533 181 l 533 897 l 490 897 l 490 199 l 408 119 l 272 119 l 189 199 l 189 897 l 146 897 l 146 181 l 253 76 m 441 994 l 269 994 l 72 1178 l 272 1178 l 441 994 m 330 1037 l 238 1134 l 197 1134 l 293 1037 l 330 1037 z "},"Ủ":{"ha":679,"x_min":69,"x_max":610,"o":"m 213 0 l 69 143 l 69 972 l 266 972 l 266 239 l 308 197 l 371 197 l 413 239 l 413 972 l 610 972 l 610 143 l 467 0 l 213 0 m 253 76 l 428 76 l 533 181 l 533 897 l 490 897 l 490 199 l 408 119 l 272 119 l 189 199 l 189 897 l 146 897 l 146 181 l 253 76 m 174 1251 l 393 1251 l 506 1120 l 393 990 l 224 990 l 224 1099 l 317 1099 l 338 1120 l 317 1142 l 174 1142 l 174 1251 m 227 1210 l 227 1183 l 347 1183 l 403 1120 l 347 1058 l 277 1058 l 277 1031 l 364 1031 l 444 1120 l 364 1210 l 227 1210 z "},"Ư":{"ha":826,"x_min":69,"x_max":847,"o":"m 253 76 l 442 76 l 547 181 l 547 897 l 504 897 l 504 199 l 422 119 l 272 119 l 189 199 l 189 897 l 146 897 l 146 181 l 253 76 m 750 894 l 750 809 l 688 741 l 547 741 l 547 714 l 705 714 l 785 803 l 785 894 l 750 894 m 688 941 l 847 941 l 847 803 l 733 673 l 624 673 l 624 143 l 481 0 l 213 0 l 69 143 l 69 972 l 266 972 l 266 239 l 308 197 l 385 197 l 427 239 l 427 972 l 624 972 l 624 782 l 657 782 l 688 813 l 688 941 z "},"Ứ":{"ha":826,"x_min":69,"x_max":847,"o":"m 253 76 l 442 76 l 547 181 l 547 897 l 504 897 l 504 199 l 422 119 l 272 119 l 189 199 l 189 897 l 146 897 l 146 181 l 253 76 m 750 894 l 750 809 l 688 741 l 547 741 l 547 714 l 705 714 l 785 803 l 785 894 l 750 894 m 688 941 l 847 941 l 847 803 l 733 673 l 624 673 l 624 143 l 481 0 l 213 0 l 69 143 l 69 972 l 266 972 l 266 239 l 308 197 l 385 197 l 427 239 l 427 972 l 624 972 l 624 782 l 657 782 l 688 813 l 688 941 m 262 994 l 431 1178 l 631 1178 l 433 994 l 262 994 m 373 1037 l 410 1037 l 507 1134 l 465 1134 l 373 1037 z "},"Ự":{"ha":826,"x_min":69,"x_max":847,"o":"m 253 76 l 442 76 l 547 181 l 547 897 l 504 897 l 504 199 l 422 119 l 272 119 l 189 199 l 189 897 l 146 897 l 146 181 l 253 76 m 750 894 l 750 809 l 688 741 l 547 741 l 547 714 l 705 714 l 785 803 l 785 894 l 750 894 m 688 941 l 847 941 l 847 803 l 733 673 l 624 673 l 624 143 l 481 0 l 213 0 l 69 143 l 69 972 l 266 972 l 266 239 l 308 197 l 385 197 l 427 239 l 427 972 l 624 972 l 624 782 l 657 782 l 688 813 l 688 941 m 274 -188 l 274 -42 l 421 -42 l 421 -188 l 274 -188 m 331 -133 l 361 -133 l 361 -99 l 331 -99 l 331 -133 z "},"Ừ":{"ha":826,"x_min":69,"x_max":847,"o":"m 253 76 l 442 76 l 547 181 l 547 897 l 504 897 l 504 199 l 422 119 l 272 119 l 189 199 l 189 897 l 146 897 l 146 181 l 253 76 m 750 894 l 750 809 l 688 741 l 547 741 l 547 714 l 705 714 l 785 803 l 785 894 l 750 894 m 688 941 l 847 941 l 847 803 l 733 673 l 624 673 l 624 143 l 481 0 l 213 0 l 69 143 l 69 972 l 266 972 l 266 239 l 308 197 l 385 197 l 427 239 l 427 972 l 624 972 l 624 782 l 657 782 l 688 813 l 688 941 m 448 994 l 276 994 l 79 1178 l 278 1178 l 448 994 m 337 1037 l 245 1134 l 203 1134 l 300 1037 l 337 1037 z "},"Ử":{"ha":826,"x_min":69,"x_max":847,"o":"m 253 76 l 442 76 l 547 181 l 547 897 l 504 897 l 504 199 l 422 119 l 272 119 l 189 199 l 189 897 l 146 897 l 146 181 l 253 76 m 750 894 l 750 809 l 688 741 l 547 741 l 547 714 l 705 714 l 785 803 l 785 894 l 750 894 m 688 941 l 847 941 l 847 803 l 733 673 l 624 673 l 624 143 l 481 0 l 213 0 l 69 143 l 69 972 l 266 972 l 266 239 l 308 197 l 385 197 l 427 239 l 427 972 l 624 972 l 624 782 l 657 782 l 688 813 l 688 941 m 181 1251 l 400 1251 l 513 1120 l 400 990 l 231 990 l 231 1099 l 324 1099 l 344 1120 l 324 1142 l 181 1142 l 181 1251 m 234 1210 l 234 1183 l 353 1183 l 410 1120 l 353 1058 l 284 1058 l 284 1031 l 371 1031 l 451 1120 l 371 1210 l 234 1210 z "},"Ữ":{"ha":826,"x_min":69,"x_max":847,"o":"m 253 76 l 442 76 l 547 181 l 547 897 l 504 897 l 504 199 l 422 119 l 272 119 l 189 199 l 189 897 l 146 897 l 146 181 l 253 76 m 750 894 l 750 809 l 688 741 l 547 741 l 547 714 l 705 714 l 785 803 l 785 894 l 750 894 m 688 941 l 847 941 l 847 803 l 733 673 l 624 673 l 624 143 l 481 0 l 213 0 l 69 143 l 69 972 l 266 972 l 266 239 l 308 197 l 385 197 l 427 239 l 427 972 l 624 972 l 624 782 l 657 782 l 688 813 l 688 941 m 153 994 l 153 1089 l 231 1167 l 355 1167 l 394 1128 l 406 1128 l 406 1167 l 540 1167 l 540 1072 l 462 994 l 338 994 l 299 1033 l 287 1033 l 287 994 l 153 994 m 208 1038 l 240 1038 l 240 1052 l 273 1088 l 318 1088 l 365 1043 l 434 1043 l 489 1101 l 489 1124 l 457 1124 l 457 1110 l 424 1074 l 374 1074 l 328 1119 l 263 1119 l 208 1061 l 208 1038 z "},"Ű":{"ha":679,"x_min":69,"x_max":669,"o":"m 213 0 l 69 143 l 69 972 l 266 972 l 266 239 l 308 197 l 371 197 l 413 239 l 413 972 l 610 972 l 610 143 l 467 0 l 213 0 m 253 76 l 428 76 l 533 181 l 533 897 l 490 897 l 490 199 l 408 119 l 272 119 l 189 199 l 189 897 l 146 897 l 146 181 l 253 76 m 369 994 l 469 1178 l 669 1178 l 533 994 l 369 994 m 214 1033 l 250 1033 l 316 1133 l 273 1133 l 214 1033 m 124 994 l 225 1178 l 424 1178 l 289 994 l 124 994 m 458 1033 l 494 1033 l 560 1133 l 517 1133 l 458 1033 z "},"Ȗ":{"ha":679,"x_min":69,"x_max":610,"o":"m 213 0 l 69 143 l 69 972 l 266 972 l 266 239 l 308 197 l 371 197 l 413 239 l 413 972 l 610 972 l 610 143 l 467 0 l 213 0 m 253 76 l 428 76 l 533 181 l 533 897 l 490 897 l 490 199 l 408 119 l 272 119 l 189 199 l 189 897 l 146 897 l 146 181 l 253 76 m 423 1180 l 501 1102 l 501 994 l 367 994 l 367 1047 l 313 1047 l 313 994 l 180 994 l 180 1102 l 258 1180 l 423 1180 m 392 1131 l 288 1131 l 233 1073 l 233 1044 l 265 1044 l 265 1064 l 298 1100 l 381 1100 l 415 1064 l 415 1044 l 447 1044 l 447 1073 l 392 1131 z "},"Ū":{"ha":679,"x_min":69,"x_max":610,"o":"m 213 0 l 69 143 l 69 972 l 266 972 l 266 239 l 308 197 l 371 197 l 413 239 l 413 972 l 610 972 l 610 143 l 467 0 l 213 0 m 253 76 l 428 76 l 533 181 l 533 897 l 490 897 l 490 199 l 408 119 l 272 119 l 189 199 l 189 897 l 146 897 l 146 181 l 253 76 m 121 994 l 121 1172 l 560 1172 l 560 994 l 121 994 m 199 1060 l 488 1060 l 488 1100 l 199 1100 l 199 1060 z "},"Ṻ":{"ha":679,"x_min":69,"x_max":610,"o":"m 213 0 l 69 143 l 69 972 l 266 972 l 266 239 l 308 197 l 371 197 l 413 239 l 413 972 l 610 972 l 610 143 l 467 0 l 213 0 m 253 76 l 428 76 l 533 181 l 533 897 l 490 897 l 490 199 l 408 119 l 272 119 l 189 199 l 189 897 l 146 897 l 146 181 l 253 76 m 121 994 l 121 1172 l 560 1172 l 560 994 l 121 994 m 199 1060 l 488 1060 l 488 1100 l 199 1100 l 199 1060 m 412 1208 l 412 1353 l 559 1353 l 559 1208 l 412 1208 m 123 1208 l 123 1353 l 270 1353 l 270 1208 l 123 1208 m 181 1263 l 210 1263 l 210 1297 l 181 1297 l 181 1263 m 471 1263 l 500 1263 l 500 1297 l 471 1297 l 471 1263 z "},"Ų":{"ha":847,"x_min":69,"x_max":776,"o":"m 345 -256 l 232 -125 l 344 0 l 213 0 l 69 143 l 69 972 l 266 972 l 266 239 l 308 197 l 538 197 l 580 239 l 580 972 l 776 972 l 776 143 l 633 0 l 498 0 l 373 -125 l 394 -147 l 557 -147 l 557 -256 l 345 -256 m 364 -215 l 517 -215 l 517 -188 l 376 -188 l 319 -125 l 510 76 l 594 76 l 700 181 l 700 897 l 657 897 l 657 199 l 575 119 l 272 119 l 189 199 l 189 897 l 146 897 l 146 181 l 253 76 l 473 76 l 284 -125 l 364 -215 z "},"Ů":{"ha":679,"x_min":69,"x_max":610,"o":"m 213 0 l 69 143 l 69 972 l 266 972 l 266 239 l 308 197 l 371 197 l 413 239 l 413 972 l 610 972 l 610 143 l 467 0 l 213 0 m 253 76 l 428 76 l 533 181 l 533 897 l 490 897 l 490 199 l 408 119 l 272 119 l 189 199 l 189 897 l 146 897 l 146 181 l 253 76 m 276 993 l 208 1060 l 208 1181 l 276 1249 l 403 1249 l 472 1181 l 472 1060 l 403 993 l 276 993 m 300 1040 l 381 1040 l 426 1085 l 426 1160 l 381 1205 l 300 1205 l 254 1160 l 254 1085 l 300 1040 m 313 1069 l 285 1097 l 285 1148 l 313 1174 l 368 1174 l 395 1148 l 395 1097 l 368 1069 l 313 1069 m 334 1109 l 346 1109 l 352 1116 l 352 1126 l 346 1133 l 334 1133 l 328 1126 l 328 1116 l 334 1109 z "},"Ũ":{"ha":679,"x_min":69,"x_max":610,"o":"m 213 0 l 69 143 l 69 972 l 266 972 l 266 239 l 308 197 l 371 197 l 413 239 l 413 972 l 610 972 l 610 143 l 467 0 l 213 0 m 253 76 l 428 76 l 533 181 l 533 897 l 490 897 l 490 199 l 408 119 l 272 119 l 189 199 l 189 897 l 146 897 l 146 181 l 253 76 m 147 994 l 147 1089 l 224 1167 l 348 1167 l 387 1128 l 399 1128 l 399 1167 l 533 1167 l 533 1072 l 455 994 l 331 994 l 292 1033 l 280 1033 l 280 994 l 147 994 m 201 1038 l 233 1038 l 233 1052 l 266 1088 l 311 1088 l 358 1043 l 427 1043 l 482 1101 l 482 1124 l 450 1124 l 450 1110 l 417 1074 l 367 1074 l 321 1119 l 256 1119 l 201 1061 l 201 1038 z "},"Ṹ":{"ha":679,"x_min":69,"x_max":624,"o":"m 213 0 l 69 143 l 69 972 l 266 972 l 266 239 l 308 197 l 371 197 l 413 239 l 413 972 l 610 972 l 610 143 l 467 0 l 213 0 m 253 76 l 428 76 l 533 181 l 533 897 l 490 897 l 490 199 l 408 119 l 272 119 l 189 199 l 189 897 l 146 897 l 146 181 l 253 76 m 147 994 l 147 1089 l 224 1167 l 348 1167 l 387 1128 l 399 1128 l 399 1167 l 533 1167 l 533 1072 l 455 994 l 331 994 l 292 1033 l 280 1033 l 280 994 l 147 994 m 201 1038 l 233 1038 l 233 1052 l 266 1088 l 311 1088 l 358 1043 l 427 1043 l 482 1101 l 482 1124 l 450 1124 l 450 1110 l 417 1074 l 367 1074 l 321 1119 l 256 1119 l 201 1061 l 201 1038 m 255 1189 l 424 1372 l 624 1372 l 426 1189 l 255 1189 m 366 1231 l 403 1231 l 500 1328 l 458 1328 l 366 1231 z "},"V":{"ha":679,"x_min":76,"x_max":603,"o":"m 282 0 l 76 206 l 76 972 l 273 972 l 273 301 l 340 235 l 340 235 l 406 301 l 406 972 l 603 972 l 603 206 l 397 0 l 282 0 m 322 76 l 358 76 l 526 243 l 526 897 l 483 897 l 483 261 l 344 124 l 336 124 l 196 261 l 196 897 l 153 897 l 153 243 l 322 76 z "},"W":{"ha":994,"x_min":76,"x_max":917,"o":"m 76 972 l 273 972 l 273 197 l 285 197 l 332 889 l 662 889 l 710 197 l 721 197 l 721 972 l 917 972 l 917 0 l 550 0 l 504 690 l 490 690 l 444 0 l 76 0 l 76 972 m 153 897 l 153 76 l 376 76 l 433 760 l 560 760 l 616 76 l 840 76 l 840 897 l 797 897 l 797 121 l 653 121 l 596 803 l 397 803 l 340 121 l 195 121 l 195 897 l 153 897 z "},"Ẃ":{"ha":994,"x_min":76,"x_max":917,"o":"m 76 972 l 273 972 l 273 197 l 285 197 l 332 889 l 662 889 l 710 197 l 721 197 l 721 972 l 917 972 l 917 0 l 550 0 l 504 690 l 490 690 l 444 0 l 76 0 l 76 972 m 153 897 l 153 76 l 376 76 l 433 760 l 560 760 l 616 76 l 840 76 l 840 897 l 797 897 l 797 121 l 653 121 l 596 803 l 397 803 l 340 121 l 195 121 l 195 897 l 153 897 m 413 994 l 582 1178 l 781 1178 l 584 994 l 413 994 m 524 1037 l 561 1037 l 658 1134 l 615 1134 l 524 1037 z "},"Ŵ":{"ha":994,"x_min":76,"x_max":917,"o":"m 76 972 l 273 972 l 273 197 l 285 197 l 332 889 l 662 889 l 710 197 l 721 197 l 721 972 l 917 972 l 917 0 l 550 0 l 504 690 l 490 690 l 444 0 l 76 0 l 76 972 m 153 897 l 153 76 l 376 76 l 433 760 l 560 760 l 616 76 l 840 76 l 840 897 l 797 897 l 797 121 l 653 121 l 596 803 l 397 803 l 340 121 l 195 121 l 195 897 l 153 897 m 410 1192 l 585 1192 l 741 994 l 549 994 l 498 1069 l 447 994 l 255 994 l 410 1192 m 448 1143 l 378 1050 l 419 1050 l 469 1119 l 524 1119 l 574 1050 l 616 1050 l 546 1143 l 448 1143 z "},"Ẅ":{"ha":994,"x_min":76,"x_max":917,"o":"m 76 972 l 273 972 l 273 197 l 285 197 l 332 889 l 662 889 l 710 197 l 721 197 l 721 972 l 917 972 l 917 0 l 550 0 l 504 690 l 490 690 l 444 0 l 76 0 l 76 972 m 153 897 l 153 76 l 376 76 l 433 760 l 560 760 l 616 76 l 840 76 l 840 897 l 797 897 l 797 121 l 653 121 l 596 803 l 397 803 l 340 121 l 195 121 l 195 897 l 153 897 m 569 1008 l 569 1154 l 717 1154 l 717 1008 l 569 1008 m 281 1008 l 281 1154 l 428 1154 l 428 1008 l 281 1008 m 338 1064 l 368 1064 l 368 1098 l 338 1098 l 338 1064 m 628 1064 l 658 1064 l 658 1098 l 628 1098 l 628 1064 z "},"Ẁ":{"ha":994,"x_min":76,"x_max":917,"o":"m 76 972 l 273 972 l 273 197 l 285 197 l 332 889 l 662 889 l 710 197 l 721 197 l 721 972 l 917 972 l 917 0 l 550 0 l 504 690 l 490 690 l 444 0 l 76 0 l 76 972 m 153 897 l 153 76 l 376 76 l 433 760 l 560 760 l 616 76 l 840 76 l 840 897 l 797 897 l 797 121 l 653 121 l 596 803 l 397 803 l 340 121 l 195 121 l 195 897 l 153 897 m 599 994 l 427 994 l 230 1178 l 429 1178 l 599 994 m 488 1037 l 396 1134 l 354 1134 l 451 1037 l 488 1037 z "},"X":{"ha":733,"x_min":76,"x_max":657,"o":"m 76 0 l 76 392 l 176 492 l 76 589 l 76 972 l 273 972 l 273 672 l 356 589 l 378 589 l 460 672 l 460 972 l 657 972 l 657 589 l 559 492 l 657 392 l 657 0 l 460 0 l 460 310 l 378 392 l 356 392 l 273 310 l 273 0 l 76 0 m 153 76 l 197 76 l 197 337 l 328 472 l 406 472 l 537 337 l 537 76 l 580 76 l 580 352 l 445 492 l 580 626 l 580 897 l 537 897 l 537 642 l 408 514 l 326 514 l 197 642 l 197 897 l 153 897 l 153 626 l 288 492 l 153 352 l 153 76 z "},"Y":{"ha":674,"x_min":63,"x_max":611,"o":"m 238 0 l 238 357 l 63 521 l 63 972 l 259 972 l 259 592 l 343 517 l 330 517 l 415 592 l 415 972 l 611 972 l 611 521 l 435 357 l 435 0 l 238 0 m 315 74 l 358 74 l 358 386 l 534 548 l 534 897 l 491 897 l 491 561 l 338 422 l 335 422 l 181 561 l 181 897 l 139 897 l 139 548 l 315 386 l 315 74 z "},"Ý":{"ha":674,"x_min":63,"x_max":620,"o":"m 238 0 l 238 357 l 63 521 l 63 972 l 259 972 l 259 592 l 343 517 l 330 517 l 415 592 l 415 972 l 611 972 l 611 521 l 435 357 l 435 0 l 238 0 m 315 74 l 358 74 l 358 386 l 534 548 l 534 897 l 491 897 l 491 561 l 338 422 l 335 422 l 181 561 l 181 897 l 139 897 l 139 548 l 315 386 l 315 74 m 251 994 l 421 1178 l 620 1178 l 423 994 l 251 994 m 363 1037 l 400 1037 l 497 1134 l 454 1134 l 363 1037 z "},"Ŷ":{"ha":674,"x_min":63,"x_max":611,"o":"m 238 0 l 238 357 l 63 521 l 63 972 l 259 972 l 259 592 l 343 517 l 330 517 l 415 592 l 415 972 l 611 972 l 611 521 l 435 357 l 435 0 l 238 0 m 315 74 l 358 74 l 358 386 l 534 548 l 534 897 l 491 897 l 491 561 l 338 422 l 335 422 l 181 561 l 181 897 l 139 897 l 139 548 l 315 386 l 315 74 m 249 1192 l 424 1192 l 580 994 l 388 994 l 337 1069 l 286 994 l 94 994 l 249 1192 m 287 1143 l 217 1050 l 258 1050 l 308 1119 l 363 1119 l 413 1050 l 455 1050 l 385 1143 l 287 1143 z "},"Ÿ":{"ha":674,"x_min":63,"x_max":611,"o":"m 238 0 l 238 357 l 63 521 l 63 972 l 259 972 l 259 592 l 343 517 l 330 517 l 415 592 l 415 972 l 611 972 l 611 521 l 435 357 l 435 0 l 238 0 m 315 74 l 358 74 l 358 386 l 534 548 l 534 897 l 491 897 l 491 561 l 338 422 l 335 422 l 181 561 l 181 897 l 139 897 l 139 548 l 315 386 l 315 74 m 408 1008 l 408 1154 l 556 1154 l 556 1008 l 408 1008 m 119 1008 l 119 1154 l 267 1154 l 267 1008 l 119 1008 m 177 1064 l 207 1064 l 207 1098 l 177 1098 l 177 1064 m 467 1064 l 497 1064 l 497 1098 l 467 1098 l 467 1064 z "},"Ẏ":{"ha":674,"x_min":63,"x_max":611,"o":"m 238 0 l 238 357 l 63 521 l 63 972 l 259 972 l 259 592 l 343 517 l 330 517 l 415 592 l 415 972 l 611 972 l 611 521 l 435 357 l 435 0 l 238 0 m 315 74 l 358 74 l 358 386 l 534 548 l 534 897 l 491 897 l 491 561 l 338 422 l 335 422 l 181 561 l 181 897 l 139 897 l 139 548 l 315 386 l 315 74 m 264 1008 l 264 1154 l 411 1154 l 411 1008 l 264 1008 m 322 1064 l 351 1064 l 351 1098 l 322 1098 l 322 1064 z "},"Ỵ":{"ha":674,"x_min":63,"x_max":611,"o":"m 238 0 l 238 357 l 63 521 l 63 972 l 259 972 l 259 592 l 343 517 l 330 517 l 415 592 l 415 972 l 611 972 l 611 521 l 435 357 l 435 0 l 238 0 m 315 74 l 358 74 l 358 386 l 534 548 l 534 897 l 491 897 l 491 561 l 338 422 l 335 422 l 181 561 l 181 897 l 139 897 l 139 548 l 315 386 l 315 74 m 263 -188 l 263 -42 l 410 -42 l 410 -188 l 263 -188 m 321 -133 l 351 -133 l 351 -99 l 321 -99 l 321 -133 z "},"Ỳ":{"ha":674,"x_min":63,"x_max":611,"o":"m 238 0 l 238 357 l 63 521 l 63 972 l 259 972 l 259 592 l 343 517 l 330 517 l 415 592 l 415 972 l 611 972 l 611 521 l 435 357 l 435 0 l 238 0 m 315 74 l 358 74 l 358 386 l 534 548 l 534 897 l 491 897 l 491 561 l 338 422 l 335 422 l 181 561 l 181 897 l 139 897 l 139 548 l 315 386 l 315 74 m 438 994 l 266 994 l 69 1178 l 268 1178 l 438 994 m 326 1037 l 235 1134 l 193 1134 l 290 1037 l 326 1037 z "},"Ỷ":{"ha":674,"x_min":63,"x_max":611,"o":"m 238 0 l 238 357 l 63 521 l 63 972 l 259 972 l 259 592 l 343 517 l 330 517 l 415 592 l 415 972 l 611 972 l 611 521 l 435 357 l 435 0 l 238 0 m 315 74 l 358 74 l 358 386 l 534 548 l 534 897 l 491 897 l 491 561 l 338 422 l 335 422 l 181 561 l 181 897 l 139 897 l 139 548 l 315 386 l 315 74 m 171 1251 l 390 1251 l 503 1120 l 390 990 l 220 990 l 220 1099 l 313 1099 l 334 1120 l 313 1142 l 171 1142 l 171 1251 m 224 1210 l 224 1183 l 343 1183 l 400 1120 l 343 1058 l 274 1058 l 274 1031 l 360 1031 l 441 1120 l 360 1210 l 224 1210 z "},"Ȳ":{"ha":674,"x_min":63,"x_max":611,"o":"m 238 0 l 238 357 l 63 521 l 63 972 l 259 972 l 259 592 l 343 517 l 330 517 l 415 592 l 415 972 l 611 972 l 611 521 l 435 357 l 435 0 l 238 0 m 315 74 l 358 74 l 358 386 l 534 548 l 534 897 l 491 897 l 491 561 l 338 422 l 335 422 l 181 561 l 181 897 l 139 897 l 139 548 l 315 386 l 315 74 m 117 994 l 117 1172 l 556 1172 l 556 994 l 117 994 m 196 1060 l 485 1060 l 485 1100 l 196 1100 l 196 1060 z "},"Ỹ":{"ha":674,"x_min":63,"x_max":611,"o":"m 238 0 l 238 357 l 63 521 l 63 972 l 259 972 l 259 592 l 343 517 l 330 517 l 415 592 l 415 972 l 611 972 l 611 521 l 435 357 l 435 0 l 238 0 m 315 74 l 358 74 l 358 386 l 534 548 l 534 897 l 491 897 l 491 561 l 338 422 l 335 422 l 181 561 l 181 897 l 139 897 l 139 548 l 315 386 l 315 74 m 143 994 l 143 1089 l 221 1167 l 344 1167 l 383 1128 l 396 1128 l 396 1167 l 529 1167 l 529 1072 l 451 994 l 328 994 l 289 1033 l 276 1033 l 276 994 l 143 994 m 197 1038 l 229 1038 l 229 1052 l 263 1088 l 308 1088 l 355 1043 l 424 1043 l 478 1101 l 478 1124 l 447 1124 l 447 1110 l 413 1074 l 363 1074 l 317 1119 l 252 1119 l 197 1061 l 197 1038 z "},"Z":{"ha":574,"x_min":63,"x_max":511,"o":"m 147 77 l 437 77 l 437 120 l 197 120 l 197 278 l 433 693 l 433 897 l 153 897 l 153 855 l 385 855 l 385 702 l 147 286 l 147 77 m 63 0 l 63 308 l 301 728 l 301 776 l 76 776 l 76 972 l 511 972 l 511 667 l 277 253 l 277 197 l 511 197 l 511 0 l 63 0 z "},"Ź":{"ha":574,"x_min":63,"x_max":570,"o":"m 147 77 l 437 77 l 437 120 l 197 120 l 197 278 l 433 693 l 433 897 l 153 897 l 153 855 l 385 855 l 385 702 l 147 286 l 147 77 m 63 0 l 63 308 l 301 728 l 301 776 l 76 776 l 76 972 l 511 972 l 511 667 l 277 253 l 277 197 l 511 197 l 511 0 l 63 0 m 201 994 l 371 1178 l 570 1178 l 373 994 l 201 994 m 313 1037 l 350 1037 l 447 1134 l 404 1134 l 313 1037 z "},"Ž":{"ha":574,"x_min":44,"x_max":530,"o":"m 147 77 l 437 77 l 437 120 l 197 120 l 197 278 l 433 693 l 433 897 l 153 897 l 153 855 l 385 855 l 385 702 l 147 286 l 147 77 m 63 0 l 63 308 l 301 728 l 301 776 l 76 776 l 76 972 l 511 972 l 511 667 l 277 253 l 277 197 l 511 197 l 511 0 l 63 0 m 199 994 l 44 1192 l 236 1192 l 287 1117 l 338 1192 l 530 1192 l 374 994 l 199 994 m 237 1043 l 335 1043 l 405 1136 l 363 1136 l 313 1067 l 258 1067 l 208 1136 l 167 1136 l 237 1043 z "},"Ż":{"ha":574,"x_min":63,"x_max":511,"o":"m 147 77 l 437 77 l 437 120 l 197 120 l 197 278 l 433 693 l 433 897 l 153 897 l 153 855 l 385 855 l 385 702 l 147 286 l 147 77 m 63 0 l 63 308 l 301 728 l 301 776 l 76 776 l 76 972 l 511 972 l 511 667 l 277 253 l 277 197 l 511 197 l 511 0 l 63 0 m 214 1008 l 214 1154 l 361 1154 l 361 1008 l 214 1008 m 272 1064 l 301 1064 l 301 1098 l 272 1098 l 272 1064 z "},"Ẓ":{"ha":574,"x_min":63,"x_max":511,"o":"m 147 77 l 437 77 l 437 120 l 197 120 l 197 278 l 433 693 l 433 897 l 153 897 l 153 855 l 385 855 l 385 702 l 147 286 l 147 77 m 63 0 l 63 308 l 301 728 l 301 776 l 76 776 l 76 972 l 511 972 l 511 667 l 277 253 l 277 197 l 511 197 l 511 0 l 63 0 m 213 -188 l 213 -42 l 360 -42 l 360 -188 l 213 -188 m 271 -133 l 301 -133 l 301 -99 l 271 -99 l 271 -133 z "},"a":{"ha":645,"x_min":66,"x_max":579,"o":"m 209 0 l 66 143 l 66 341 l 209 484 l 383 484 l 383 511 l 340 553 l 76 553 l 76 750 l 436 750 l 579 607 l 579 143 l 436 0 l 209 0 m 269 119 l 186 201 l 186 295 l 260 369 l 466 369 l 466 206 l 378 119 l 269 119 m 250 76 l 397 76 l 509 188 l 509 567 l 401 674 l 157 674 l 157 631 l 382 631 l 466 549 l 466 410 l 244 410 l 144 311 l 144 183 l 250 76 m 305 197 l 340 197 l 383 239 l 383 294 l 291 294 l 262 265 l 262 239 l 305 197 z "},"á":{"ha":645,"x_min":66,"x_max":607,"o":"m 209 0 l 66 143 l 66 341 l 209 484 l 383 484 l 383 511 l 340 553 l 76 553 l 76 750 l 436 750 l 579 607 l 579 143 l 436 0 l 209 0 m 269 119 l 186 201 l 186 295 l 260 369 l 466 369 l 466 206 l 378 119 l 269 119 m 250 76 l 397 76 l 509 188 l 509 567 l 401 674 l 157 674 l 157 631 l 382 631 l 466 549 l 466 410 l 244 410 l 144 311 l 144 183 l 250 76 m 305 197 l 340 197 l 383 239 l 383 294 l 291 294 l 262 265 l 262 239 l 305 197 m 238 772 l 408 956 l 607 956 l 410 772 l 238 772 m 349 815 l 387 815 l 483 912 l 441 912 l 349 815 z "},"ă":{"ha":645,"x_min":66,"x_max":579,"o":"m 209 0 l 66 143 l 66 341 l 209 484 l 383 484 l 383 511 l 340 553 l 76 553 l 76 750 l 436 750 l 579 607 l 579 143 l 436 0 l 209 0 m 269 119 l 186 201 l 186 295 l 260 369 l 466 369 l 466 206 l 378 119 l 269 119 m 250 76 l 397 76 l 509 188 l 509 567 l 401 674 l 157 674 l 157 631 l 382 631 l 466 549 l 466 410 l 244 410 l 144 311 l 144 183 l 250 76 m 305 197 l 340 197 l 383 239 l 383 294 l 291 294 l 262 265 l 262 239 l 305 197 m 241 772 l 163 850 l 163 958 l 297 958 l 297 906 l 351 906 l 351 958 l 484 958 l 484 850 l 406 772 l 241 772 m 272 821 l 376 821 l 431 879 l 431 908 l 399 908 l 399 888 l 366 852 l 283 852 l 249 888 l 249 908 l 217 908 l 217 879 l 272 821 z "},"ắ":{"ha":645,"x_min":66,"x_max":607,"o":"m 209 0 l 66 143 l 66 341 l 209 484 l 383 484 l 383 511 l 340 553 l 76 553 l 76 750 l 436 750 l 579 607 l 579 143 l 436 0 l 209 0 m 269 119 l 186 201 l 186 295 l 260 369 l 466 369 l 466 206 l 378 119 l 269 119 m 250 76 l 397 76 l 509 188 l 509 567 l 401 674 l 157 674 l 157 631 l 382 631 l 466 549 l 466 410 l 244 410 l 144 311 l 144 183 l 250 76 m 305 197 l 340 197 l 383 239 l 383 294 l 291 294 l 262 265 l 262 239 l 305 197 m 241 772 l 163 850 l 163 958 l 297 958 l 297 906 l 351 906 l 351 958 l 484 958 l 484 850 l 406 772 l 241 772 m 272 821 l 376 821 l 431 879 l 431 908 l 399 908 l 399 888 l 366 852 l 283 852 l 249 888 l 249 908 l 217 908 l 217 879 l 272 821 m 238 981 l 408 1164 l 607 1164 l 410 981 l 238 981 m 349 1023 l 387 1023 l 483 1120 l 441 1120 l 349 1023 z "},"ặ":{"ha":645,"x_min":66,"x_max":579,"o":"m 209 0 l 66 143 l 66 341 l 209 484 l 383 484 l 383 511 l 340 553 l 76 553 l 76 750 l 436 750 l 579 607 l 579 143 l 436 0 l 209 0 m 269 119 l 186 201 l 186 295 l 260 369 l 466 369 l 466 206 l 378 119 l 269 119 m 250 76 l 397 76 l 509 188 l 509 567 l 401 674 l 157 674 l 157 631 l 382 631 l 466 549 l 466 410 l 244 410 l 144 311 l 144 183 l 250 76 m 305 197 l 340 197 l 383 239 l 383 294 l 291 294 l 262 265 l 262 239 l 305 197 m 250 -188 l 250 -42 l 397 -42 l 397 -188 l 250 -188 m 308 -133 l 338 -133 l 338 -99 l 308 -99 l 308 -133 m 241 772 l 163 850 l 163 958 l 297 958 l 297 906 l 351 906 l 351 958 l 484 958 l 484 850 l 406 772 l 241 772 m 272 821 l 376 821 l 431 879 l 431 908 l 399 908 l 399 888 l 366 852 l 283 852 l 249 888 l 249 908 l 217 908 l 217 879 l 272 821 z "},"ằ":{"ha":645,"x_min":56,"x_max":579,"o":"m 209 0 l 66 143 l 66 341 l 209 484 l 383 484 l 383 511 l 340 553 l 76 553 l 76 750 l 436 750 l 579 607 l 579 143 l 436 0 l 209 0 m 269 119 l 186 201 l 186 295 l 260 369 l 466 369 l 466 206 l 378 119 l 269 119 m 250 76 l 397 76 l 509 188 l 509 567 l 401 674 l 157 674 l 157 631 l 382 631 l 466 549 l 466 410 l 244 410 l 144 311 l 144 183 l 250 76 m 305 197 l 340 197 l 383 239 l 383 294 l 291 294 l 262 265 l 262 239 l 305 197 m 241 772 l 163 850 l 163 958 l 297 958 l 297 906 l 351 906 l 351 958 l 484 958 l 484 850 l 406 772 l 241 772 m 272 821 l 376 821 l 431 879 l 431 908 l 399 908 l 399 888 l 366 852 l 283 852 l 249 888 l 249 908 l 217 908 l 217 879 l 272 821 m 424 981 l 253 981 l 56 1164 l 255 1164 l 424 981 m 313 1023 l 222 1120 l 180 1120 l 276 1023 l 313 1023 z "},"ẳ":{"ha":645,"x_min":66,"x_max":579,"o":"m 209 0 l 66 143 l 66 341 l 209 484 l 383 484 l 383 511 l 340 553 l 76 553 l 76 750 l 436 750 l 579 607 l 579 143 l 436 0 l 209 0 m 269 119 l 186 201 l 186 295 l 260 369 l 466 369 l 466 206 l 378 119 l 269 119 m 250 76 l 397 76 l 509 188 l 509 567 l 401 674 l 157 674 l 157 631 l 382 631 l 466 549 l 466 410 l 244 410 l 144 311 l 144 183 l 250 76 m 305 197 l 340 197 l 383 239 l 383 294 l 291 294 l 262 265 l 262 239 l 305 197 m 241 772 l 163 850 l 163 958 l 297 958 l 297 906 l 351 906 l 351 958 l 484 958 l 484 850 l 406 772 l 241 772 m 272 821 l 376 821 l 431 879 l 431 908 l 399 908 l 399 888 l 366 852 l 283 852 l 249 888 l 249 908 l 217 908 l 217 879 l 272 821 m 158 1238 l 376 1238 l 490 1106 l 376 976 l 207 976 l 207 1085 l 300 1085 l 321 1106 l 300 1128 l 158 1128 l 158 1238 m 210 1197 l 210 1169 l 330 1169 l 387 1106 l 330 1044 l 260 1044 l 260 1017 l 347 1017 l 428 1106 l 347 1197 l 210 1197 z "},"ẵ":{"ha":645,"x_min":66,"x_max":579,"o":"m 209 0 l 66 143 l 66 341 l 209 484 l 383 484 l 383 511 l 340 553 l 76 553 l 76 750 l 436 750 l 579 607 l 579 143 l 436 0 l 209 0 m 269 119 l 186 201 l 186 295 l 260 369 l 466 369 l 466 206 l 378 119 l 269 119 m 250 76 l 397 76 l 509 188 l 509 567 l 401 674 l 157 674 l 157 631 l 382 631 l 466 549 l 466 410 l 244 410 l 144 311 l 144 183 l 250 76 m 305 197 l 340 197 l 383 239 l 383 294 l 291 294 l 262 265 l 262 239 l 305 197 m 241 772 l 163 850 l 163 958 l 297 958 l 297 906 l 351 906 l 351 958 l 484 958 l 484 850 l 406 772 l 241 772 m 272 821 l 376 821 l 431 879 l 431 908 l 399 908 l 399 888 l 366 852 l 283 852 l 249 888 l 249 908 l 217 908 l 217 879 l 272 821 m 130 981 l 130 1075 l 208 1153 l 331 1153 l 370 1114 l 383 1114 l 383 1153 l 516 1153 l 516 1058 l 438 981 l 315 981 l 276 1019 l 263 1019 l 263 981 l 130 981 m 184 1024 l 216 1024 l 216 1038 l 249 1074 l 294 1074 l 342 1029 l 410 1029 l 465 1088 l 465 1110 l 433 1110 l 433 1097 l 400 1060 l 350 1060 l 304 1106 l 239 1106 l 184 1047 l 184 1024 z "},"ǎ":{"ha":645,"x_min":66,"x_max":579,"o":"m 209 0 l 66 143 l 66 341 l 209 484 l 383 484 l 383 511 l 340 553 l 76 553 l 76 750 l 436 750 l 579 607 l 579 143 l 436 0 l 209 0 m 269 119 l 186 201 l 186 295 l 260 369 l 466 369 l 466 206 l 378 119 l 269 119 m 250 76 l 397 76 l 509 188 l 509 567 l 401 674 l 157 674 l 157 631 l 382 631 l 466 549 l 466 410 l 244 410 l 144 311 l 144 183 l 250 76 m 305 197 l 340 197 l 383 239 l 383 294 l 291 294 l 262 265 l 262 239 l 305 197 m 236 772 l 81 969 l 273 969 l 324 894 l 374 969 l 567 969 l 411 772 l 236 772 m 274 821 l 372 821 l 442 914 l 400 914 l 350 844 l 294 844 l 245 914 l 203 914 l 274 821 z "},"â":{"ha":645,"x_min":66,"x_max":579,"o":"m 209 0 l 66 143 l 66 341 l 209 484 l 383 484 l 383 511 l 340 553 l 76 553 l 76 750 l 436 750 l 579 607 l 579 143 l 436 0 l 209 0 m 269 119 l 186 201 l 186 295 l 260 369 l 466 369 l 466 206 l 378 119 l 269 119 m 250 76 l 397 76 l 509 188 l 509 567 l 401 674 l 157 674 l 157 631 l 382 631 l 466 549 l 466 410 l 244 410 l 144 311 l 144 183 l 250 76 m 305 197 l 340 197 l 383 239 l 383 294 l 291 294 l 262 265 l 262 239 l 305 197 m 236 969 l 411 969 l 567 772 l 374 772 l 324 847 l 273 772 l 81 772 l 236 969 m 274 921 l 203 828 l 245 828 l 294 897 l 350 897 l 400 828 l 442 828 l 372 921 l 274 921 z "},"ấ":{"ha":645,"x_min":66,"x_max":828,"o":"m 209 0 l 66 143 l 66 341 l 209 484 l 383 484 l 383 511 l 340 553 l 76 553 l 76 750 l 436 750 l 579 607 l 579 143 l 436 0 l 209 0 m 269 119 l 186 201 l 186 295 l 260 369 l 466 369 l 466 206 l 378 119 l 269 119 m 250 76 l 397 76 l 509 188 l 509 567 l 401 674 l 157 674 l 157 631 l 382 631 l 466 549 l 466 410 l 244 410 l 144 311 l 144 183 l 250 76 m 305 197 l 340 197 l 383 239 l 383 294 l 291 294 l 262 265 l 262 239 l 305 197 m 236 969 l 411 969 l 567 772 l 374 772 l 324 847 l 273 772 l 81 772 l 236 969 m 274 921 l 203 828 l 245 828 l 294 897 l 350 897 l 400 828 l 442 828 l 372 921 l 274 921 m 460 931 l 629 1114 l 828 1114 l 631 931 l 460 931 m 571 973 l 608 973 l 705 1070 l 663 1070 l 571 973 z "},"ậ":{"ha":645,"x_min":66,"x_max":579,"o":"m 209 0 l 66 143 l 66 341 l 209 484 l 383 484 l 383 511 l 340 553 l 76 553 l 76 750 l 436 750 l 579 607 l 579 143 l 436 0 l 209 0 m 269 119 l 186 201 l 186 295 l 260 369 l 466 369 l 466 206 l 378 119 l 269 119 m 250 76 l 397 76 l 509 188 l 509 567 l 401 674 l 157 674 l 157 631 l 382 631 l 466 549 l 466 410 l 244 410 l 144 311 l 144 183 l 250 76 m 305 197 l 340 197 l 383 239 l 383 294 l 291 294 l 262 265 l 262 239 l 305 197 m 250 -188 l 250 -42 l 397 -42 l 397 -188 l 250 -188 m 308 -133 l 338 -133 l 338 -99 l 308 -99 l 308 -133 m 236 969 l 411 969 l 567 772 l 374 772 l 324 847 l 273 772 l 81 772 l 236 969 m 274 921 l 203 828 l 245 828 l 294 897 l 350 897 l 400 828 l 442 828 l 372 921 l 274 921 z "},"ầ":{"ha":645,"x_min":66,"x_max":663,"o":"m 209 0 l 66 143 l 66 341 l 209 484 l 383 484 l 383 511 l 340 553 l 76 553 l 76 750 l 436 750 l 579 607 l 579 143 l 436 0 l 209 0 m 269 119 l 186 201 l 186 295 l 260 369 l 466 369 l 466 206 l 378 119 l 269 119 m 250 76 l 397 76 l 509 188 l 509 567 l 401 674 l 157 674 l 157 631 l 382 631 l 466 549 l 466 410 l 244 410 l 144 311 l 144 183 l 250 76 m 305 197 l 340 197 l 383 239 l 383 294 l 291 294 l 262 265 l 262 239 l 305 197 m 236 969 l 411 969 l 567 772 l 374 772 l 324 847 l 273 772 l 81 772 l 236 969 m 274 921 l 203 828 l 245 828 l 294 897 l 350 897 l 400 828 l 442 828 l 372 921 l 274 921 m 663 931 l 491 931 l 294 1114 l 493 1114 l 663 931 m 551 973 l 460 1070 l 418 1070 l 515 973 l 551 973 z "},"ẩ":{"ha":645,"x_min":66,"x_max":753,"o":"m 209 0 l 66 143 l 66 341 l 209 484 l 383 484 l 383 511 l 340 553 l 76 553 l 76 750 l 436 750 l 579 607 l 579 143 l 436 0 l 209 0 m 269 119 l 186 201 l 186 295 l 260 369 l 466 369 l 466 206 l 378 119 l 269 119 m 250 76 l 397 76 l 509 188 l 509 567 l 401 674 l 157 674 l 157 631 l 382 631 l 466 549 l 466 410 l 244 410 l 144 311 l 144 183 l 250 76 m 305 197 l 340 197 l 383 239 l 383 294 l 291 294 l 262 265 l 262 239 l 305 197 m 236 969 l 411 969 l 567 772 l 374 772 l 324 847 l 273 772 l 81 772 l 236 969 m 274 921 l 203 828 l 245 828 l 294 897 l 350 897 l 400 828 l 442 828 l 372 921 l 274 921 m 421 1166 l 640 1166 l 753 1035 l 640 905 l 470 905 l 470 1014 l 563 1014 l 584 1035 l 563 1057 l 421 1057 l 421 1166 m 474 1125 l 474 1098 l 593 1098 l 650 1035 l 593 973 l 524 973 l 524 946 l 610 946 l 691 1035 l 610 1125 l 474 1125 z "},"ẫ":{"ha":645,"x_min":66,"x_max":579,"o":"m 209 0 l 66 143 l 66 341 l 209 484 l 383 484 l 383 511 l 340 553 l 76 553 l 76 750 l 436 750 l 579 607 l 579 143 l 436 0 l 209 0 m 269 119 l 186 201 l 186 295 l 260 369 l 466 369 l 466 206 l 378 119 l 269 119 m 250 76 l 397 76 l 509 188 l 509 567 l 401 674 l 157 674 l 157 631 l 382 631 l 466 549 l 466 410 l 244 410 l 144 311 l 144 183 l 250 76 m 305 197 l 340 197 l 383 239 l 383 294 l 291 294 l 262 265 l 262 239 l 305 197 m 236 969 l 411 969 l 567 772 l 374 772 l 324 847 l 273 772 l 81 772 l 236 969 m 274 921 l 203 828 l 245 828 l 294 897 l 350 897 l 400 828 l 442 828 l 372 921 l 274 921 m 130 992 l 130 1086 l 208 1164 l 331 1164 l 370 1125 l 383 1125 l 383 1164 l 516 1164 l 516 1069 l 438 992 l 315 992 l 276 1031 l 263 1031 l 263 992 l 130 992 m 184 1035 l 216 1035 l 216 1049 l 249 1085 l 294 1085 l 342 1040 l 410 1040 l 465 1099 l 465 1122 l 433 1122 l 433 1108 l 400 1072 l 350 1072 l 304 1117 l 239 1117 l 184 1058 l 184 1035 z "},"ȁ":{"ha":645,"x_min":-90,"x_max":579,"o":"m 209 0 l 66 143 l 66 341 l 209 484 l 383 484 l 383 511 l 340 553 l 76 553 l 76 750 l 436 750 l 579 607 l 579 143 l 436 0 l 209 0 m 269 119 l 186 201 l 186 295 l 260 369 l 466 369 l 466 206 l 378 119 l 269 119 m 250 76 l 397 76 l 509 188 l 509 567 l 401 674 l 157 674 l 157 631 l 382 631 l 466 549 l 466 410 l 244 410 l 144 311 l 144 183 l 250 76 m 305 197 l 340 197 l 383 239 l 383 294 l 291 294 l 262 265 l 262 239 l 305 197 m 551 772 l 380 772 l 183 956 l 382 956 l 551 772 m 440 815 l 349 912 l 307 912 l 403 815 l 440 815 m 279 772 l 108 772 l -90 956 l 110 956 l 279 772 m 168 815 l 76 912 l 35 912 l 131 815 l 168 815 z "},"ä":{"ha":645,"x_min":66,"x_max":579,"o":"m 209 0 l 66 143 l 66 341 l 209 484 l 383 484 l 383 511 l 340 553 l 76 553 l 76 750 l 436 750 l 579 607 l 579 143 l 436 0 l 209 0 m 269 119 l 186 201 l 186 295 l 260 369 l 466 369 l 466 206 l 378 119 l 269 119 m 250 76 l 397 76 l 509 188 l 509 567 l 401 674 l 157 674 l 157 631 l 382 631 l 466 549 l 466 410 l 244 410 l 144 311 l 144 183 l 250 76 m 305 197 l 340 197 l 383 239 l 383 294 l 291 294 l 262 265 l 262 239 l 305 197 m 395 786 l 395 932 l 542 932 l 542 786 l 395 786 m 106 786 l 106 932 l 253 932 l 253 786 l 106 786 m 164 842 l 194 842 l 194 876 l 164 876 l 164 842 m 454 842 l 483 842 l 483 876 l 454 876 l 454 842 z "},"ạ":{"ha":645,"x_min":66,"x_max":579,"o":"m 209 0 l 66 143 l 66 341 l 209 484 l 383 484 l 383 511 l 340 553 l 76 553 l 76 750 l 436 750 l 579 607 l 579 143 l 436 0 l 209 0 m 269 119 l 186 201 l 186 295 l 260 369 l 466 369 l 466 206 l 378 119 l 269 119 m 250 76 l 397 76 l 509 188 l 509 567 l 401 674 l 157 674 l 157 631 l 382 631 l 466 549 l 466 410 l 244 410 l 144 311 l 144 183 l 250 76 m 305 197 l 340 197 l 383 239 l 383 294 l 291 294 l 262 265 l 262 239 l 305 197 m 250 -188 l 250 -42 l 397 -42 l 397 -188 l 250 -188 m 308 -133 l 338 -133 l 338 -99 l 308 -99 l 308 -133 z "},"à":{"ha":645,"x_min":56,"x_max":579,"o":"m 209 0 l 66 143 l 66 341 l 209 484 l 383 484 l 383 511 l 340 553 l 76 553 l 76 750 l 436 750 l 579 607 l 579 143 l 436 0 l 209 0 m 269 119 l 186 201 l 186 295 l 260 369 l 466 369 l 466 206 l 378 119 l 269 119 m 250 76 l 397 76 l 509 188 l 509 567 l 401 674 l 157 674 l 157 631 l 382 631 l 466 549 l 466 410 l 244 410 l 144 311 l 144 183 l 250 76 m 305 197 l 340 197 l 383 239 l 383 294 l 291 294 l 262 265 l 262 239 l 305 197 m 424 772 l 253 772 l 56 956 l 255 956 l 424 772 m 313 815 l 222 912 l 180 912 l 276 815 l 313 815 z "},"ả":{"ha":645,"x_min":66,"x_max":579,"o":"m 209 0 l 66 143 l 66 341 l 209 484 l 383 484 l 383 511 l 340 553 l 76 553 l 76 750 l 436 750 l 579 607 l 579 143 l 436 0 l 209 0 m 269 119 l 186 201 l 186 295 l 260 369 l 466 369 l 466 206 l 378 119 l 269 119 m 250 76 l 397 76 l 509 188 l 509 567 l 401 674 l 157 674 l 157 631 l 382 631 l 466 549 l 466 410 l 244 410 l 144 311 l 144 183 l 250 76 m 305 197 l 340 197 l 383 239 l 383 294 l 291 294 l 262 265 l 262 239 l 305 197 m 158 1029 l 376 1029 l 490 898 l 376 768 l 207 768 l 207 877 l 300 877 l 321 898 l 300 920 l 158 920 l 158 1029 m 210 988 l 210 961 l 330 961 l 387 898 l 330 836 l 260 836 l 260 809 l 347 809 l 428 898 l 347 988 l 210 988 z "},"ȃ":{"ha":645,"x_min":66,"x_max":579,"o":"m 209 0 l 66 143 l 66 341 l 209 484 l 383 484 l 383 511 l 340 553 l 76 553 l 76 750 l 436 750 l 579 607 l 579 143 l 436 0 l 209 0 m 269 119 l 186 201 l 186 295 l 260 369 l 466 369 l 466 206 l 378 119 l 269 119 m 250 76 l 397 76 l 509 188 l 509 567 l 401 674 l 157 674 l 157 631 l 382 631 l 466 549 l 466 410 l 244 410 l 144 311 l 144 183 l 250 76 m 305 197 l 340 197 l 383 239 l 383 294 l 291 294 l 262 265 l 262 239 l 305 197 m 406 958 l 484 880 l 484 772 l 351 772 l 351 824 l 297 824 l 297 772 l 163 772 l 163 880 l 241 958 l 406 958 m 375 909 l 272 909 l 216 851 l 216 822 l 248 822 l 248 842 l 281 878 l 365 878 l 398 842 l 398 822 l 430 822 l 430 851 l 375 909 z "},"ā":{"ha":645,"x_min":66,"x_max":579,"o":"m 209 0 l 66 143 l 66 341 l 209 484 l 383 484 l 383 511 l 340 553 l 76 553 l 76 750 l 436 750 l 579 607 l 579 143 l 436 0 l 209 0 m 269 119 l 186 201 l 186 295 l 260 369 l 466 369 l 466 206 l 378 119 l 269 119 m 250 76 l 397 76 l 509 188 l 509 567 l 401 674 l 157 674 l 157 631 l 382 631 l 466 549 l 466 410 l 244 410 l 144 311 l 144 183 l 250 76 m 305 197 l 340 197 l 383 239 l 383 294 l 291 294 l 262 265 l 262 239 l 305 197 m 104 772 l 104 949 l 543 949 l 543 772 l 104 772 m 183 838 l 472 838 l 472 878 l 183 878 l 183 838 z "},"ą":{"ha":771,"x_min":74,"x_max":696,"o":"m 400 -256 l 273 -125 l 398 0 l 217 0 l 74 143 l 74 331 l 217 474 l 499 474 l 499 511 l 457 553 l 83 553 l 83 750 l 553 750 l 696 607 l 696 143 l 428 -125 l 449 -147 l 612 -147 l 612 -256 l 400 -256 m 414 -215 l 567 -215 l 567 -188 l 426 -188 l 369 -125 l 622 142 l 622 563 l 515 671 l 165 671 l 165 628 l 495 628 l 579 545 l 579 399 l 252 399 l 151 299 l 151 183 l 258 76 l 522 76 l 332 -125 l 414 -215 m 313 197 l 499 197 l 499 284 l 299 284 l 269 255 l 269 239 l 313 197 m 277 119 l 194 201 l 194 283 l 268 357 l 579 357 l 579 153 l 549 119 l 277 119 z "},"å":{"ha":645,"x_min":66,"x_max":579,"o":"m 209 0 l 66 143 l 66 341 l 209 484 l 383 484 l 383 511 l 340 553 l 76 553 l 76 750 l 436 750 l 579 607 l 579 143 l 436 0 l 209 0 m 269 119 l 186 201 l 186 295 l 260 369 l 466 369 l 466 206 l 378 119 l 269 119 m 250 76 l 397 76 l 509 188 l 509 567 l 401 674 l 157 674 l 157 631 l 382 631 l 466 549 l 466 410 l 244 410 l 144 311 l 144 183 l 250 76 m 305 197 l 340 197 l 383 239 l 383 294 l 291 294 l 262 265 l 262 239 l 305 197 m 260 771 l 192 838 l 192 959 l 260 1027 l 387 1027 l 455 959 l 455 838 l 387 771 l 260 771 m 283 817 l 364 817 l 410 863 l 410 938 l 364 983 l 283 983 l 238 938 l 238 863 l 283 817 m 296 847 l 269 875 l 269 926 l 296 952 l 351 952 l 378 926 l 378 875 l 351 847 l 296 847 m 317 887 l 329 887 l 335 894 l 335 904 l 329 910 l 317 910 l 311 904 l 311 894 l 317 887 z "},"ǻ":{"ha":645,"x_min":66,"x_max":608,"o":"m 209 0 l 66 143 l 66 341 l 209 484 l 383 484 l 383 511 l 340 553 l 76 553 l 76 750 l 436 750 l 579 607 l 579 143 l 436 0 l 209 0 m 269 119 l 186 201 l 186 295 l 260 369 l 466 369 l 466 206 l 378 119 l 269 119 m 250 76 l 397 76 l 509 188 l 509 567 l 401 674 l 157 674 l 157 631 l 382 631 l 466 549 l 466 410 l 244 410 l 144 311 l 144 183 l 250 76 m 305 197 l 340 197 l 383 239 l 383 294 l 291 294 l 262 265 l 262 239 l 305 197 m 260 771 l 192 838 l 192 959 l 260 1027 l 387 1027 l 455 959 l 455 838 l 387 771 l 260 771 m 283 817 l 364 817 l 410 863 l 410 938 l 364 983 l 283 983 l 238 938 l 238 863 l 283 817 m 296 847 l 269 875 l 269 926 l 296 952 l 351 952 l 378 926 l 378 875 l 351 847 l 296 847 m 317 887 l 329 887 l 335 894 l 335 904 l 329 910 l 317 910 l 311 904 l 311 894 l 317 887 m 239 1049 l 408 1233 l 608 1233 l 410 1049 l 239 1049 m 350 1092 l 388 1092 l 484 1189 l 442 1189 l 350 1092 z "},"ã":{"ha":645,"x_min":66,"x_max":579,"o":"m 209 0 l 66 143 l 66 341 l 209 484 l 383 484 l 383 511 l 340 553 l 76 553 l 76 750 l 436 750 l 579 607 l 579 143 l 436 0 l 209 0 m 269 119 l 186 201 l 186 295 l 260 369 l 466 369 l 466 206 l 378 119 l 269 119 m 250 76 l 397 76 l 509 188 l 509 567 l 401 674 l 157 674 l 157 631 l 382 631 l 466 549 l 466 410 l 244 410 l 144 311 l 144 183 l 250 76 m 305 197 l 340 197 l 383 239 l 383 294 l 291 294 l 262 265 l 262 239 l 305 197 m 130 772 l 130 867 l 208 944 l 331 944 l 370 906 l 383 906 l 383 944 l 516 944 l 516 850 l 438 772 l 315 772 l 276 811 l 263 811 l 263 772 l 130 772 m 184 816 l 216 816 l 216 830 l 249 866 l 294 866 l 342 821 l 410 821 l 465 879 l 465 902 l 433 902 l 433 888 l 400 852 l 350 852 l 304 897 l 239 897 l 184 839 l 184 816 z "},"æ":{"ha":1222,"x_min":74,"x_max":1143,"o":"m 225 0 l 82 143 l 82 338 l 225 481 l 463 481 l 508 526 l 508 511 l 465 553 l 322 553 l 232 465 l 74 598 l 225 750 l 562 750 l 608 703 l 655 750 l 992 750 l 1135 607 l 1135 404 l 992 269 l 754 269 l 708 224 l 708 239 l 751 197 l 895 197 l 985 285 l 1143 152 l 992 0 l 655 0 l 608 47 l 562 0 l 225 0 m 256 80 l 517 80 l 606 169 l 695 80 l 968 80 l 1042 153 l 1009 183 l 949 122 l 714 122 l 630 206 l 630 227 l 748 344 l 973 344 l 1068 437 l 1068 562 l 961 671 l 700 671 l 610 582 l 522 671 l 249 671 l 174 597 l 208 568 l 267 628 l 503 628 l 587 545 l 587 523 l 469 406 l 244 406 l 149 312 l 149 186 l 256 80 m 274 122 l 192 204 l 192 297 l 260 365 l 477 365 l 587 474 l 587 210 l 498 122 l 274 122 m 630 276 l 630 541 l 719 628 l 942 628 l 1025 547 l 1025 453 l 957 385 l 740 385 l 630 276 m 322 197 l 465 197 l 508 239 l 508 306 l 495 292 l 308 292 l 278 263 l 278 239 l 322 197 m 708 444 l 722 458 l 909 458 l 938 487 l 938 511 l 895 553 l 751 553 l 708 511 l 708 444 z "},"ǽ":{"ha":1222,"x_min":74,"x_max":1143,"o":"m 225 0 l 82 143 l 82 338 l 225 481 l 463 481 l 508 526 l 508 511 l 465 553 l 322 553 l 232 465 l 74 598 l 225 750 l 562 750 l 608 703 l 655 750 l 992 750 l 1135 607 l 1135 404 l 992 269 l 754 269 l 708 224 l 708 239 l 751 197 l 895 197 l 985 285 l 1143 152 l 992 0 l 655 0 l 608 47 l 562 0 l 225 0 m 256 80 l 517 80 l 606 169 l 695 80 l 968 80 l 1042 153 l 1009 183 l 949 122 l 714 122 l 630 206 l 630 227 l 748 344 l 973 344 l 1068 437 l 1068 562 l 961 671 l 700 671 l 610 582 l 522 671 l 249 671 l 174 597 l 208 568 l 267 628 l 503 628 l 587 545 l 587 523 l 469 406 l 244 406 l 149 312 l 149 186 l 256 80 m 274 122 l 192 204 l 192 297 l 260 365 l 477 365 l 587 474 l 587 210 l 498 122 l 274 122 m 630 276 l 630 541 l 719 628 l 942 628 l 1025 547 l 1025 453 l 957 385 l 740 385 l 630 276 m 322 197 l 465 197 l 508 239 l 508 306 l 495 292 l 308 292 l 278 263 l 278 239 l 322 197 m 708 444 l 722 458 l 909 458 l 938 487 l 938 511 l 895 553 l 751 553 l 708 511 l 708 444 m 526 772 l 695 956 l 894 956 l 697 772 l 526 772 m 637 815 l 674 815 l 771 912 l 728 912 l 637 815 z "},"b":{"ha":672,"x_min":76,"x_max":606,"o":"m 220 0 l 76 143 l 76 1042 l 273 1042 l 273 737 l 287 750 l 462 750 l 606 607 l 606 143 l 462 0 l 220 0 m 284 117 l 195 204 l 195 524 l 307 635 l 407 635 l 484 559 l 484 204 l 395 117 l 284 117 m 315 197 l 367 197 l 409 239 l 409 511 l 367 554 l 328 554 l 273 498 l 273 239 l 315 197 m 265 74 l 415 74 l 526 186 l 526 577 l 426 678 l 297 678 l 195 576 l 195 967 l 153 967 l 153 186 l 265 74 z "},"c":{"ha":612,"x_min":66,"x_max":535,"o":"m 209 0 l 66 143 l 66 607 l 209 750 l 535 750 l 535 553 l 305 553 l 263 511 l 263 239 l 305 197 l 535 197 l 535 0 l 209 0 m 256 76 l 459 76 l 459 119 l 275 119 l 187 207 l 187 550 l 271 633 l 459 633 l 459 676 l 251 676 l 144 568 l 144 186 l 256 76 z "},"ć":{"ha":612,"x_min":66,"x_max":590,"o":"m 209 0 l 66 143 l 66 607 l 209 750 l 535 750 l 535 553 l 305 553 l 263 511 l 263 239 l 305 197 l 535 197 l 535 0 l 209 0 m 256 76 l 459 76 l 459 119 l 275 119 l 187 207 l 187 550 l 271 633 l 459 633 l 459 676 l 251 676 l 144 568 l 144 186 l 256 76 m 222 772 l 391 956 l 590 956 l 393 772 l 222 772 m 333 815 l 370 815 l 467 912 l 424 912 l 333 815 z "},"č":{"ha":612,"x_min":64,"x_max":550,"o":"m 209 0 l 66 143 l 66 607 l 209 750 l 535 750 l 535 553 l 305 553 l 263 511 l 263 239 l 305 197 l 535 197 l 535 0 l 209 0 m 256 76 l 459 76 l 459 119 l 275 119 l 187 207 l 187 550 l 271 633 l 459 633 l 459 676 l 251 676 l 144 568 l 144 186 l 256 76 m 219 772 l 64 969 l 256 969 l 307 894 l 358 969 l 550 969 l 394 772 l 219 772 m 257 821 l 355 821 l 425 914 l 383 914 l 333 844 l 278 844 l 228 914 l 187 914 l 257 821 z "},"ç":{"ha":776,"x_min":78,"x_max":700,"o":"m 257 -242 l 257 -133 l 399 -133 l 420 -111 l 399 -90 l 306 -90 l 306 0 l 221 0 l 78 143 l 78 607 l 221 750 l 557 750 l 700 607 l 700 451 l 503 451 l 503 511 l 461 553 l 317 553 l 274 511 l 274 239 l 317 197 l 461 197 l 503 239 l 503 299 l 700 299 l 700 143 l 557 0 l 492 0 l 589 -111 l 476 -242 l 257 -242 m 310 -201 l 447 -201 l 527 -111 l 447 -22 l 399 -22 l 399 76 l 517 76 l 624 183 l 624 235 l 581 235 l 581 201 l 498 119 l 287 119 l 199 207 l 199 550 l 283 633 l 498 633 l 581 551 l 581 517 l 624 517 l 624 569 l 517 676 l 263 676 l 156 568 l 156 186 l 268 76 l 360 76 l 360 -49 l 429 -49 l 486 -111 l 429 -174 l 310 -174 l 310 -201 z "},"ḉ":{"ha":776,"x_min":78,"x_max":700,"o":"m 257 -242 l 257 -133 l 399 -133 l 420 -111 l 399 -90 l 306 -90 l 306 0 l 221 0 l 78 143 l 78 607 l 221 750 l 557 750 l 700 607 l 700 451 l 503 451 l 503 511 l 461 553 l 317 553 l 274 511 l 274 239 l 317 197 l 461 197 l 503 239 l 503 299 l 700 299 l 700 143 l 557 0 l 492 0 l 589 -111 l 476 -242 l 257 -242 m 310 -201 l 447 -201 l 527 -111 l 447 -22 l 399 -22 l 399 76 l 517 76 l 624 183 l 624 235 l 581 235 l 581 201 l 498 119 l 287 119 l 199 207 l 199 550 l 283 633 l 498 633 l 581 551 l 581 517 l 624 517 l 624 569 l 517 676 l 263 676 l 156 568 l 156 186 l 268 76 l 360 76 l 360 -49 l 429 -49 l 486 -111 l 429 -174 l 310 -174 l 310 -201 m 222 772 l 391 956 l 590 956 l 393 772 l 222 772 m 333 815 l 370 815 l 467 912 l 424 912 l 333 815 z "},"ĉ":{"ha":612,"x_min":64,"x_max":550,"o":"m 209 0 l 66 143 l 66 607 l 209 750 l 535 750 l 535 553 l 305 553 l 263 511 l 263 239 l 305 197 l 535 197 l 535 0 l 209 0 m 256 76 l 459 76 l 459 119 l 275 119 l 187 207 l 187 550 l 271 633 l 459 633 l 459 676 l 251 676 l 144 568 l 144 186 l 256 76 m 219 969 l 394 969 l 550 772 l 358 772 l 307 847 l 256 772 l 64 772 l 219 969 m 257 921 l 187 828 l 228 828 l 278 897 l 333 897 l 383 828 l 425 828 l 355 921 l 257 921 z "},"ċ":{"ha":612,"x_min":66,"x_max":535,"o":"m 209 0 l 66 143 l 66 607 l 209 750 l 535 750 l 535 553 l 305 553 l 263 511 l 263 239 l 305 197 l 535 197 l 535 0 l 209 0 m 256 76 l 459 76 l 459 119 l 275 119 l 187 207 l 187 550 l 271 633 l 459 633 l 459 676 l 251 676 l 144 568 l 144 186 l 256 76 m 234 786 l 234 932 l 381 932 l 381 786 l 234 786 m 292 842 l 322 842 l 322 876 l 292 876 l 292 842 z "},"d":{"ha":672,"x_min":66,"x_max":595,"o":"m 451 0 l 210 0 l 66 143 l 66 607 l 210 750 l 385 750 l 399 737 l 399 1042 l 595 1042 l 595 143 l 451 0 m 388 117 l 276 117 l 188 204 l 188 559 l 265 635 l 365 635 l 476 524 l 476 204 l 388 117 m 356 197 l 399 239 l 399 498 l 343 554 l 305 554 l 263 511 l 263 239 l 305 197 l 356 197 m 407 74 l 519 186 l 519 967 l 476 967 l 476 576 l 375 678 l 246 678 l 145 577 l 145 186 l 258 74 l 407 74 z "},"ð":{"ha":757,"x_min":72,"x_max":685,"o":"m 215 0 l 72 143 l 72 515 l 215 658 l 345 658 l 262 735 l 332 805 l 164 972 l 438 972 l 469 941 l 514 986 l 603 904 l 552 854 l 685 718 l 685 143 l 542 0 l 215 0 m 276 121 l 193 202 l 193 458 l 276 540 l 449 540 l 568 423 l 568 206 l 481 121 l 276 121 m 310 197 l 447 197 l 489 239 l 489 406 l 433 462 l 310 462 l 268 419 l 268 239 l 310 197 m 257 78 l 501 78 l 610 188 l 610 682 l 466 833 l 522 889 l 500 910 l 445 856 l 391 912 l 332 912 l 416 826 l 350 760 l 372 739 l 438 804 l 568 668 l 568 474 l 457 583 l 257 583 l 151 476 l 151 184 l 257 78 m 489 631 l 489 650 l 417 720 l 356 658 l 461 658 l 489 631 z "},"ď":{"ha":874,"x_min":66,"x_max":874,"o":"m 451 0 l 210 0 l 66 143 l 66 607 l 210 750 l 385 750 l 399 737 l 399 1042 l 595 1042 l 595 143 l 451 0 m 388 117 l 276 117 l 188 204 l 188 559 l 265 635 l 365 635 l 476 524 l 476 204 l 388 117 m 356 197 l 399 239 l 399 498 l 343 554 l 305 554 l 263 511 l 263 239 l 305 197 l 356 197 m 407 74 l 519 186 l 519 967 l 476 967 l 476 576 l 375 678 l 246 678 l 145 577 l 145 186 l 258 74 l 407 74 m 697 726 l 665 846 l 665 1042 l 874 1042 l 874 846 l 841 726 l 697 726 m 758 792 l 783 792 l 794 846 l 794 962 l 749 962 l 749 846 l 758 792 z "},"đ":{"ha":792,"x_min":63,"x_max":786,"o":"m 206 0 l 63 143 l 63 607 l 206 750 l 492 750 l 506 737 l 506 815 l 347 815 l 347 987 l 506 987 l 506 1042 l 703 1042 l 703 987 l 786 987 l 786 815 l 703 815 l 703 143 l 559 0 l 206 0 m 270 117 l 181 204 l 181 559 l 258 635 l 469 635 l 581 524 l 581 204 l 492 117 l 270 117 m 301 197 l 464 197 l 506 239 l 506 498 l 451 554 l 301 554 l 259 511 l 259 239 l 301 197 m 251 74 l 512 74 l 624 186 l 624 883 l 722 883 l 722 921 l 624 921 l 624 967 l 581 967 l 581 921 l 424 921 l 424 883 l 581 883 l 581 576 l 480 678 l 240 678 l 139 577 l 139 186 l 251 74 z "},"ḍ":{"ha":672,"x_min":66,"x_max":595,"o":"m 451 0 l 210 0 l 66 143 l 66 607 l 210 750 l 385 750 l 399 737 l 399 1042 l 595 1042 l 595 143 l 451 0 m 388 117 l 276 117 l 188 204 l 188 559 l 265 635 l 365 635 l 476 524 l 476 204 l 388 117 m 356 197 l 399 239 l 399 498 l 343 554 l 305 554 l 263 511 l 263 239 l 305 197 l 356 197 m 407 74 l 519 186 l 519 967 l 476 967 l 476 576 l 375 678 l 246 678 l 145 577 l 145 186 l 258 74 l 407 74 m 271 -188 l 271 -42 l 418 -42 l 418 -188 l 271 -188 m 328 -133 l 358 -133 l 358 -99 l 328 -99 l 328 -133 z "},"ḏ":{"ha":672,"x_min":66,"x_max":595,"o":"m 451 0 l 210 0 l 66 143 l 66 607 l 210 750 l 385 750 l 399 737 l 399 1042 l 595 1042 l 595 143 l 451 0 m 388 117 l 276 117 l 188 204 l 188 559 l 265 635 l 365 635 l 476 524 l 476 204 l 388 117 m 356 197 l 399 239 l 399 498 l 343 554 l 305 554 l 263 511 l 263 239 l 305 197 l 356 197 m 407 74 l 519 186 l 519 967 l 476 967 l 476 576 l 375 678 l 246 678 l 145 577 l 145 186 l 258 74 l 407 74 m 125 -226 l 125 -49 l 564 -49 l 564 -226 l 125 -226 m 203 -160 l 492 -160 l 492 -120 l 203 -120 l 203 -160 z "},"ǆ":{"ha":1241,"x_min":66,"x_max":1199,"o":"m 451 0 l 210 0 l 66 143 l 66 607 l 210 750 l 385 750 l 399 737 l 399 1042 l 595 1042 l 595 143 l 451 0 m 388 117 l 276 117 l 188 204 l 188 559 l 265 635 l 365 635 l 476 524 l 476 204 l 388 117 m 356 197 l 399 239 l 399 498 l 343 554 l 305 554 l 263 511 l 263 239 l 305 197 l 356 197 m 407 74 l 519 186 l 519 967 l 476 967 l 476 576 l 375 678 l 246 678 l 145 577 l 145 186 l 258 74 l 407 74 m 831 78 l 1103 78 l 1103 121 l 883 121 l 883 246 l 1085 495 l 1085 674 l 824 674 l 824 631 l 1033 631 l 1033 500 l 831 250 l 831 78 m 738 0 l 738 267 l 942 526 l 942 553 l 751 553 l 751 750 l 1175 750 l 1175 478 l 975 226 l 975 197 l 1175 197 l 1175 0 l 738 0 m 869 772 l 713 969 l 906 969 l 956 894 l 1007 969 l 1199 969 l 1044 772 l 869 772 m 906 821 l 1004 821 l 1074 914 l 1033 914 l 983 844 l 927 844 l 878 914 l 836 914 l 906 821 z "},"e":{"ha":645,"x_min":66,"x_max":579,"o":"m 436 750 l 579 607 l 579 409 l 436 266 l 263 266 l 263 239 l 305 197 l 569 197 l 569 0 l 209 0 l 66 143 l 66 607 l 209 750 l 436 750 m 376 631 l 459 549 l 459 455 l 385 381 l 179 381 l 179 544 l 267 631 l 376 631 m 395 674 l 249 674 l 136 562 l 136 183 l 244 76 l 488 76 l 488 119 l 263 119 l 179 201 l 179 340 l 401 340 l 501 439 l 501 567 l 395 674 m 340 553 l 305 553 l 263 511 l 263 456 l 354 456 l 383 485 l 383 511 l 340 553 z "},"é":{"ha":645,"x_min":66,"x_max":606,"o":"m 436 750 l 579 607 l 579 409 l 436 266 l 263 266 l 263 239 l 305 197 l 569 197 l 569 0 l 209 0 l 66 143 l 66 607 l 209 750 l 436 750 m 376 631 l 459 549 l 459 455 l 385 381 l 179 381 l 179 544 l 267 631 l 376 631 m 395 674 l 249 674 l 136 562 l 136 183 l 244 76 l 488 76 l 488 119 l 263 119 l 179 201 l 179 340 l 401 340 l 501 439 l 501 567 l 395 674 m 340 553 l 305 553 l 263 511 l 263 456 l 354 456 l 383 485 l 383 511 l 340 553 m 237 772 l 406 956 l 606 956 l 408 772 l 237 772 m 348 815 l 385 815 l 482 912 l 440 912 l 348 815 z "},"ĕ":{"ha":645,"x_min":66,"x_max":579,"o":"m 436 750 l 579 607 l 579 409 l 436 266 l 263 266 l 263 239 l 305 197 l 569 197 l 569 0 l 209 0 l 66 143 l 66 607 l 209 750 l 436 750 m 376 631 l 459 549 l 459 455 l 385 381 l 179 381 l 179 544 l 267 631 l 376 631 m 395 674 l 249 674 l 136 562 l 136 183 l 244 76 l 488 76 l 488 119 l 263 119 l 179 201 l 179 340 l 401 340 l 501 439 l 501 567 l 395 674 m 340 553 l 305 553 l 263 511 l 263 456 l 354 456 l 383 485 l 383 511 l 340 553 m 240 772 l 162 850 l 162 958 l 295 958 l 295 906 l 349 906 l 349 958 l 483 958 l 483 850 l 405 772 l 240 772 m 271 821 l 374 821 l 430 879 l 430 908 l 398 908 l 398 888 l 365 852 l 281 852 l 248 888 l 248 908 l 216 908 l 216 879 l 271 821 z "},"ě":{"ha":645,"x_min":66,"x_max":579,"o":"m 436 750 l 579 607 l 579 409 l 436 266 l 263 266 l 263 239 l 305 197 l 569 197 l 569 0 l 209 0 l 66 143 l 66 607 l 209 750 l 436 750 m 376 631 l 459 549 l 459 455 l 385 381 l 179 381 l 179 544 l 267 631 l 376 631 m 395 674 l 249 674 l 136 562 l 136 183 l 244 76 l 488 76 l 488 119 l 263 119 l 179 201 l 179 340 l 401 340 l 501 439 l 501 567 l 395 674 m 340 553 l 305 553 l 263 511 l 263 456 l 354 456 l 383 485 l 383 511 l 340 553 m 235 772 l 79 969 l 272 969 l 322 894 l 373 969 l 565 969 l 410 772 l 235 772 m 272 821 l 370 821 l 440 914 l 399 914 l 349 844 l 293 844 l 244 914 l 202 914 l 272 821 z "},"ḝ":{"ha":645,"x_min":66,"x_max":579,"o":"m 436 750 l 579 607 l 579 409 l 436 266 l 263 266 l 263 239 l 305 197 l 569 197 l 569 0 l 209 0 l 66 143 l 66 607 l 209 750 l 436 750 m 376 631 l 459 549 l 459 455 l 385 381 l 179 381 l 179 544 l 267 631 l 376 631 m 395 674 l 249 674 l 136 562 l 136 183 l 244 76 l 488 76 l 488 119 l 263 119 l 179 201 l 179 340 l 401 340 l 501 439 l 501 567 l 395 674 m 340 553 l 305 553 l 263 511 l 263 456 l 354 456 l 383 485 l 383 511 l 340 553 m 177 -278 l 177 -169 l 319 -169 l 340 -147 l 319 -126 l 226 -126 l 226 -17 l 396 -17 l 509 -147 l 396 -278 l 177 -278 m 230 -237 l 367 -237 l 447 -147 l 367 -58 l 280 -58 l 280 -85 l 349 -85 l 406 -147 l 349 -210 l 230 -210 l 230 -237 m 240 772 l 162 850 l 162 958 l 295 958 l 295 906 l 349 906 l 349 958 l 483 958 l 483 850 l 405 772 l 240 772 m 271 821 l 374 821 l 430 879 l 430 908 l 398 908 l 398 888 l 365 852 l 281 852 l 248 888 l 248 908 l 216 908 l 216 879 l 271 821 z "},"ê":{"ha":645,"x_min":66,"x_max":579,"o":"m 436 750 l 579 607 l 579 409 l 436 266 l 263 266 l 263 239 l 305 197 l 569 197 l 569 0 l 209 0 l 66 143 l 66 607 l 209 750 l 436 750 m 376 631 l 459 549 l 459 455 l 385 381 l 179 381 l 179 544 l 267 631 l 376 631 m 395 674 l 249 674 l 136 562 l 136 183 l 244 76 l 488 76 l 488 119 l 263 119 l 179 201 l 179 340 l 401 340 l 501 439 l 501 567 l 395 674 m 340 553 l 305 553 l 263 511 l 263 456 l 354 456 l 383 485 l 383 511 l 340 553 m 235 969 l 410 969 l 565 772 l 373 772 l 322 847 l 272 772 l 79 772 l 235 969 m 272 921 l 202 828 l 244 828 l 293 897 l 349 897 l 399 828 l 440 828 l 370 921 l 272 921 z "},"ế":{"ha":645,"x_min":66,"x_max":827,"o":"m 436 750 l 579 607 l 579 409 l 436 266 l 263 266 l 263 239 l 305 197 l 569 197 l 569 0 l 209 0 l 66 143 l 66 607 l 209 750 l 436 750 m 376 631 l 459 549 l 459 455 l 385 381 l 179 381 l 179 544 l 267 631 l 376 631 m 395 674 l 249 674 l 136 562 l 136 183 l 244 76 l 488 76 l 488 119 l 263 119 l 179 201 l 179 340 l 401 340 l 501 439 l 501 567 l 395 674 m 340 553 l 305 553 l 263 511 l 263 456 l 354 456 l 383 485 l 383 511 l 340 553 m 235 969 l 410 969 l 565 772 l 373 772 l 322 847 l 272 772 l 79 772 l 235 969 m 272 921 l 202 828 l 244 828 l 293 897 l 349 897 l 399 828 l 440 828 l 370 921 l 272 921 m 458 931 l 628 1114 l 827 1114 l 630 931 l 458 931 m 569 973 l 607 973 l 703 1070 l 661 1070 l 569 973 z "},"ệ":{"ha":645,"x_min":66,"x_max":579,"o":"m 436 750 l 579 607 l 579 409 l 436 266 l 263 266 l 263 239 l 305 197 l 569 197 l 569 0 l 209 0 l 66 143 l 66 607 l 209 750 l 436 750 m 376 631 l 459 549 l 459 455 l 385 381 l 179 381 l 179 544 l 267 631 l 376 631 m 395 674 l 249 674 l 136 562 l 136 183 l 244 76 l 488 76 l 488 119 l 263 119 l 179 201 l 179 340 l 401 340 l 501 439 l 501 567 l 395 674 m 340 553 l 305 553 l 263 511 l 263 456 l 354 456 l 383 485 l 383 511 l 340 553 m 251 -188 l 251 -42 l 398 -42 l 398 -188 l 251 -188 m 308 -133 l 338 -133 l 338 -99 l 308 -99 l 308 -133 m 235 969 l 410 969 l 565 772 l 373 772 l 322 847 l 272 772 l 79 772 l 235 969 m 272 921 l 202 828 l 244 828 l 293 897 l 349 897 l 399 828 l 440 828 l 370 921 l 272 921 z "},"ề":{"ha":645,"x_min":66,"x_max":661,"o":"m 436 750 l 579 607 l 579 409 l 436 266 l 263 266 l 263 239 l 305 197 l 569 197 l 569 0 l 209 0 l 66 143 l 66 607 l 209 750 l 436 750 m 376 631 l 459 549 l 459 455 l 385 381 l 179 381 l 179 544 l 267 631 l 376 631 m 395 674 l 249 674 l 136 562 l 136 183 l 244 76 l 488 76 l 488 119 l 263 119 l 179 201 l 179 340 l 401 340 l 501 439 l 501 567 l 395 674 m 340 553 l 305 553 l 263 511 l 263 456 l 354 456 l 383 485 l 383 511 l 340 553 m 235 969 l 410 969 l 565 772 l 373 772 l 322 847 l 272 772 l 79 772 l 235 969 m 272 921 l 202 828 l 244 828 l 293 897 l 349 897 l 399 828 l 440 828 l 370 921 l 272 921 m 661 931 l 490 931 l 292 1114 l 492 1114 l 661 931 m 550 973 l 458 1070 l 417 1070 l 513 973 l 550 973 z "},"ể":{"ha":645,"x_min":66,"x_max":751,"o":"m 436 750 l 579 607 l 579 409 l 436 266 l 263 266 l 263 239 l 305 197 l 569 197 l 569 0 l 209 0 l 66 143 l 66 607 l 209 750 l 436 750 m 376 631 l 459 549 l 459 455 l 385 381 l 179 381 l 179 544 l 267 631 l 376 631 m 395 674 l 249 674 l 136 562 l 136 183 l 244 76 l 488 76 l 488 119 l 263 119 l 179 201 l 179 340 l 401 340 l 501 439 l 501 567 l 395 674 m 340 553 l 305 553 l 263 511 l 263 456 l 354 456 l 383 485 l 383 511 l 340 553 m 235 969 l 410 969 l 565 772 l 373 772 l 322 847 l 272 772 l 79 772 l 235 969 m 272 921 l 202 828 l 244 828 l 293 897 l 349 897 l 399 828 l 440 828 l 370 921 l 272 921 m 419 1166 l 638 1166 l 751 1035 l 638 905 l 469 905 l 469 1014 l 562 1014 l 583 1035 l 562 1057 l 419 1057 l 419 1166 m 472 1125 l 472 1098 l 592 1098 l 649 1035 l 592 973 l 522 973 l 522 946 l 609 946 l 690 1035 l 609 1125 l 472 1125 z "},"ễ":{"ha":645,"x_min":66,"x_max":579,"o":"m 436 750 l 579 607 l 579 409 l 436 266 l 263 266 l 263 239 l 305 197 l 569 197 l 569 0 l 209 0 l 66 143 l 66 607 l 209 750 l 436 750 m 376 631 l 459 549 l 459 455 l 385 381 l 179 381 l 179 544 l 267 631 l 376 631 m 395 674 l 249 674 l 136 562 l 136 183 l 244 76 l 488 76 l 488 119 l 263 119 l 179 201 l 179 340 l 401 340 l 501 439 l 501 567 l 395 674 m 340 553 l 305 553 l 263 511 l 263 456 l 354 456 l 383 485 l 383 511 l 340 553 m 235 969 l 410 969 l 565 772 l 373 772 l 322 847 l 272 772 l 79 772 l 235 969 m 272 921 l 202 828 l 244 828 l 293 897 l 349 897 l 399 828 l 440 828 l 370 921 l 272 921 m 128 992 l 128 1086 l 206 1164 l 330 1164 l 369 1125 l 381 1125 l 381 1164 l 515 1164 l 515 1069 l 437 992 l 313 992 l 274 1031 l 262 1031 l 262 992 l 128 992 m 183 1035 l 215 1035 l 215 1049 l 248 1085 l 293 1085 l 340 1040 l 409 1040 l 464 1099 l 464 1122 l 432 1122 l 432 1108 l 399 1072 l 349 1072 l 303 1117 l 238 1117 l 183 1058 l 183 1035 z "},"ȅ":{"ha":645,"x_min":-91,"x_max":579,"o":"m 436 750 l 579 607 l 579 409 l 436 266 l 263 266 l 263 239 l 305 197 l 569 197 l 569 0 l 209 0 l 66 143 l 66 607 l 209 750 l 436 750 m 376 631 l 459 549 l 459 455 l 385 381 l 179 381 l 179 544 l 267 631 l 376 631 m 395 674 l 249 674 l 136 562 l 136 183 l 244 76 l 488 76 l 488 119 l 263 119 l 179 201 l 179 340 l 401 340 l 501 439 l 501 567 l 395 674 m 340 553 l 305 553 l 263 511 l 263 456 l 354 456 l 383 485 l 383 511 l 340 553 m 550 772 l 378 772 l 181 956 l 381 956 l 550 772 m 439 815 l 347 912 l 306 912 l 402 815 l 439 815 m 278 772 l 106 772 l -91 956 l 108 956 l 278 772 m 167 815 l 75 912 l 33 912 l 130 815 l 167 815 z "},"ë":{"ha":645,"x_min":66,"x_max":579,"o":"m 436 750 l 579 607 l 579 409 l 436 266 l 263 266 l 263 239 l 305 197 l 569 197 l 569 0 l 209 0 l 66 143 l 66 607 l 209 750 l 436 750 m 376 631 l 459 549 l 459 455 l 385 381 l 179 381 l 179 544 l 267 631 l 376 631 m 395 674 l 249 674 l 136 562 l 136 183 l 244 76 l 488 76 l 488 119 l 263 119 l 179 201 l 179 340 l 401 340 l 501 439 l 501 567 l 395 674 m 340 553 l 305 553 l 263 511 l 263 456 l 354 456 l 383 485 l 383 511 l 340 553 m 394 786 l 394 932 l 541 932 l 541 786 l 394 786 m 105 786 l 105 932 l 252 932 l 252 786 l 105 786 m 163 842 l 192 842 l 192 876 l 163 876 l 163 842 m 453 842 l 482 842 l 482 876 l 453 876 l 453 842 z "},"ė":{"ha":645,"x_min":66,"x_max":579,"o":"m 436 750 l 579 607 l 579 409 l 436 266 l 263 266 l 263 239 l 305 197 l 569 197 l 569 0 l 209 0 l 66 143 l 66 607 l 209 750 l 436 750 m 376 631 l 459 549 l 459 455 l 385 381 l 179 381 l 179 544 l 267 631 l 376 631 m 395 674 l 249 674 l 136 562 l 136 183 l 244 76 l 488 76 l 488 119 l 263 119 l 179 201 l 179 340 l 401 340 l 501 439 l 501 567 l 395 674 m 340 553 l 305 553 l 263 511 l 263 456 l 354 456 l 383 485 l 383 511 l 340 553 m 249 786 l 249 932 l 397 932 l 397 786 l 249 786 m 307 842 l 337 842 l 337 876 l 307 876 l 307 842 z "},"ẹ":{"ha":645,"x_min":66,"x_max":579,"o":"m 436 750 l 579 607 l 579 409 l 436 266 l 263 266 l 263 239 l 305 197 l 569 197 l 569 0 l 209 0 l 66 143 l 66 607 l 209 750 l 436 750 m 376 631 l 459 549 l 459 455 l 385 381 l 179 381 l 179 544 l 267 631 l 376 631 m 395 674 l 249 674 l 136 562 l 136 183 l 244 76 l 488 76 l 488 119 l 263 119 l 179 201 l 179 340 l 401 340 l 501 439 l 501 567 l 395 674 m 340 553 l 305 553 l 263 511 l 263 456 l 354 456 l 383 485 l 383 511 l 340 553 m 251 -188 l 251 -42 l 398 -42 l 398 -188 l 251 -188 m 308 -133 l 338 -133 l 338 -99 l 308 -99 l 308 -133 z "},"è":{"ha":645,"x_min":54,"x_max":579,"o":"m 436 750 l 579 607 l 579 409 l 436 266 l 263 266 l 263 239 l 305 197 l 569 197 l 569 0 l 209 0 l 66 143 l 66 607 l 209 750 l 436 750 m 376 631 l 459 549 l 459 455 l 385 381 l 179 381 l 179 544 l 267 631 l 376 631 m 395 674 l 249 674 l 136 562 l 136 183 l 244 76 l 488 76 l 488 119 l 263 119 l 179 201 l 179 340 l 401 340 l 501 439 l 501 567 l 395 674 m 340 553 l 305 553 l 263 511 l 263 456 l 354 456 l 383 485 l 383 511 l 340 553 m 423 772 l 251 772 l 54 956 l 253 956 l 423 772 m 312 815 l 220 912 l 178 912 l 275 815 l 312 815 z "},"ẻ":{"ha":645,"x_min":66,"x_max":579,"o":"m 436 750 l 579 607 l 579 409 l 436 266 l 263 266 l 263 239 l 305 197 l 569 197 l 569 0 l 209 0 l 66 143 l 66 607 l 209 750 l 436 750 m 376 631 l 459 549 l 459 455 l 385 381 l 179 381 l 179 544 l 267 631 l 376 631 m 395 674 l 249 674 l 136 562 l 136 183 l 244 76 l 488 76 l 488 119 l 263 119 l 179 201 l 179 340 l 401 340 l 501 439 l 501 567 l 395 674 m 340 553 l 305 553 l 263 511 l 263 456 l 354 456 l 383 485 l 383 511 l 340 553 m 156 1029 l 375 1029 l 488 898 l 375 768 l 206 768 l 206 877 l 299 877 l 319 898 l 299 920 l 156 920 l 156 1029 m 209 988 l 209 961 l 328 961 l 385 898 l 328 836 l 259 836 l 259 809 l 346 809 l 426 898 l 346 988 l 209 988 z "},"ȇ":{"ha":645,"x_min":66,"x_max":579,"o":"m 436 750 l 579 607 l 579 409 l 436 266 l 263 266 l 263 239 l 305 197 l 569 197 l 569 0 l 209 0 l 66 143 l 66 607 l 209 750 l 436 750 m 376 631 l 459 549 l 459 455 l 385 381 l 179 381 l 179 544 l 267 631 l 376 631 m 395 674 l 249 674 l 136 562 l 136 183 l 244 76 l 488 76 l 488 119 l 263 119 l 179 201 l 179 340 l 401 340 l 501 439 l 501 567 l 395 674 m 340 553 l 305 553 l 263 511 l 263 456 l 354 456 l 383 485 l 383 511 l 340 553 m 405 958 l 483 880 l 483 772 l 349 772 l 349 824 l 295 824 l 295 772 l 162 772 l 162 880 l 240 958 l 405 958 m 374 909 l 270 909 l 215 851 l 215 822 l 247 822 l 247 842 l 280 878 l 363 878 l 397 842 l 397 822 l 428 822 l 428 851 l 374 909 z "},"ē":{"ha":645,"x_min":66,"x_max":579,"o":"m 436 750 l 579 607 l 579 409 l 436 266 l 263 266 l 263 239 l 305 197 l 569 197 l 569 0 l 209 0 l 66 143 l 66 607 l 209 750 l 436 750 m 376 631 l 459 549 l 459 455 l 385 381 l 179 381 l 179 544 l 267 631 l 376 631 m 395 674 l 249 674 l 136 562 l 136 183 l 244 76 l 488 76 l 488 119 l 263 119 l 179 201 l 179 340 l 401 340 l 501 439 l 501 567 l 395 674 m 340 553 l 305 553 l 263 511 l 263 456 l 354 456 l 383 485 l 383 511 l 340 553 m 103 772 l 103 949 l 542 949 l 542 772 l 103 772 m 181 838 l 470 838 l 470 878 l 181 878 l 181 838 z "},"ḗ":{"ha":645,"x_min":66,"x_max":606,"o":"m 436 750 l 579 607 l 579 409 l 436 266 l 263 266 l 263 239 l 305 197 l 569 197 l 569 0 l 209 0 l 66 143 l 66 607 l 209 750 l 436 750 m 376 631 l 459 549 l 459 455 l 385 381 l 179 381 l 179 544 l 267 631 l 376 631 m 395 674 l 249 674 l 136 562 l 136 183 l 244 76 l 488 76 l 488 119 l 263 119 l 179 201 l 179 340 l 401 340 l 501 439 l 501 567 l 395 674 m 340 553 l 305 553 l 263 511 l 263 456 l 354 456 l 383 485 l 383 511 l 340 553 m 103 772 l 103 949 l 542 949 l 542 772 l 103 772 m 181 838 l 470 838 l 470 878 l 181 878 l 181 838 m 237 972 l 406 1155 l 606 1155 l 408 972 l 237 972 m 348 1014 l 385 1014 l 482 1111 l 440 1111 l 348 1014 z "},"ḕ":{"ha":645,"x_min":54,"x_max":579,"o":"m 436 750 l 579 607 l 579 409 l 436 266 l 263 266 l 263 239 l 305 197 l 569 197 l 569 0 l 209 0 l 66 143 l 66 607 l 209 750 l 436 750 m 376 631 l 459 549 l 459 455 l 385 381 l 179 381 l 179 544 l 267 631 l 376 631 m 395 674 l 249 674 l 136 562 l 136 183 l 244 76 l 488 76 l 488 119 l 263 119 l 179 201 l 179 340 l 401 340 l 501 439 l 501 567 l 395 674 m 340 553 l 305 553 l 263 511 l 263 456 l 354 456 l 383 485 l 383 511 l 340 553 m 103 772 l 103 949 l 542 949 l 542 772 l 103 772 m 181 838 l 470 838 l 470 878 l 181 878 l 181 838 m 423 972 l 251 972 l 54 1155 l 253 1155 l 423 972 m 312 1014 l 220 1111 l 178 1111 l 275 1014 l 312 1014 z "},"ę":{"ha":771,"x_min":75,"x_max":697,"o":"m 418 -255 l 305 -124 l 416 0 l 218 0 l 75 143 l 75 607 l 218 750 l 554 750 l 697 607 l 697 419 l 554 276 l 272 276 l 272 239 l 314 197 l 688 197 l 688 0 l 569 0 l 446 -124 l 467 -146 l 630 -146 l 630 -255 l 418 -255 m 436 -214 l 590 -214 l 590 -187 l 449 -187 l 392 -124 l 583 79 l 601 79 l 601 122 l 276 122 l 192 205 l 192 351 l 519 351 l 619 451 l 619 567 l 513 674 l 261 674 l 149 562 l 149 187 l 256 79 l 547 79 l 356 -124 l 436 -214 m 192 393 l 192 544 l 281 631 l 494 631 l 577 549 l 577 467 l 503 393 l 192 393 m 272 466 l 472 466 l 501 495 l 501 511 l 458 553 l 314 553 l 272 511 l 272 466 z "},"ẽ":{"ha":645,"x_min":66,"x_max":579,"o":"m 436 750 l 579 607 l 579 409 l 436 266 l 263 266 l 263 239 l 305 197 l 569 197 l 569 0 l 209 0 l 66 143 l 66 607 l 209 750 l 436 750 m 376 631 l 459 549 l 459 455 l 385 381 l 179 381 l 179 544 l 267 631 l 376 631 m 395 674 l 249 674 l 136 562 l 136 183 l 244 76 l 488 76 l 488 119 l 263 119 l 179 201 l 179 340 l 401 340 l 501 439 l 501 567 l 395 674 m 340 553 l 305 553 l 263 511 l 263 456 l 354 456 l 383 485 l 383 511 l 340 553 m 128 772 l 128 867 l 206 944 l 330 944 l 369 906 l 381 906 l 381 944 l 515 944 l 515 850 l 437 772 l 313 772 l 274 811 l 262 811 l 262 772 l 128 772 m 183 816 l 215 816 l 215 830 l 248 866 l 293 866 l 340 821 l 409 821 l 464 879 l 464 902 l 432 902 l 432 888 l 399 852 l 349 852 l 303 897 l 238 897 l 183 839 l 183 816 z "},"ə":{"ha":645,"x_min":66,"x_max":579,"o":"m 209 0 l 66 143 l 66 341 l 209 484 l 383 484 l 383 511 l 340 553 l 76 553 l 76 750 l 436 750 l 579 607 l 579 143 l 436 0 l 209 0 m 269 119 l 186 201 l 186 295 l 260 369 l 466 369 l 466 206 l 378 119 l 269 119 m 250 76 l 397 76 l 509 188 l 509 567 l 401 674 l 157 674 l 157 631 l 382 631 l 466 549 l 466 410 l 244 410 l 144 311 l 144 183 l 250 76 m 305 197 l 340 197 l 383 239 l 383 294 l 291 294 l 262 265 l 262 239 l 305 197 z "},"f":{"ha":542,"x_min":42,"x_max":476,"o":"m 158 0 l 158 554 l 42 554 l 42 750 l 158 750 l 158 899 l 301 1042 l 476 1042 l 476 859 l 385 859 l 354 828 l 354 750 l 476 750 l 476 554 l 354 554 l 354 0 l 158 0 m 234 74 l 277 74 l 277 631 l 404 631 l 404 674 l 277 674 l 277 852 l 356 931 l 404 931 l 404 972 l 338 972 l 234 869 l 234 674 l 119 674 l 119 631 l 234 631 l 234 74 z "},"g":{"ha":671,"x_min":66,"x_max":594,"o":"m 101 -278 l 101 -82 l 342 -82 l 399 -26 l 399 14 l 385 0 l 209 0 l 66 143 l 66 607 l 209 750 l 451 750 l 594 607 l 594 -135 l 451 -278 l 101 -278 m 177 -203 l 400 -203 l 522 -78 l 522 564 l 409 676 l 249 676 l 142 570 l 142 191 l 256 78 l 367 78 l 478 190 l 478 -58 l 378 -160 l 177 -160 l 177 -203 m 275 121 l 185 209 l 185 552 l 268 634 l 390 634 l 478 546 l 478 244 l 354 121 l 275 121 m 305 197 l 329 197 l 399 266 l 399 512 l 356 554 l 305 554 l 263 512 l 263 239 l 305 197 z "},"ğ":{"ha":671,"x_min":66,"x_max":594,"o":"m 101 -278 l 101 -82 l 342 -82 l 399 -26 l 399 14 l 385 0 l 209 0 l 66 143 l 66 607 l 209 750 l 451 750 l 594 607 l 594 -135 l 451 -278 l 101 -278 m 177 -203 l 400 -203 l 522 -78 l 522 564 l 409 676 l 249 676 l 142 570 l 142 191 l 256 78 l 367 78 l 478 190 l 478 -58 l 378 -160 l 177 -160 l 177 -203 m 275 121 l 185 209 l 185 552 l 268 634 l 390 634 l 478 546 l 478 244 l 354 121 l 275 121 m 305 197 l 329 197 l 399 266 l 399 512 l 356 554 l 305 554 l 263 512 l 263 239 l 305 197 m 244 772 l 167 850 l 167 958 l 300 958 l 300 906 l 354 906 l 354 958 l 488 958 l 488 850 l 410 772 l 244 772 m 276 821 l 379 821 l 435 879 l 435 908 l 403 908 l 403 888 l 369 852 l 286 852 l 253 888 l 253 908 l 221 908 l 221 879 l 276 821 z "},"ǧ":{"ha":671,"x_min":66,"x_max":594,"o":"m 101 -278 l 101 -82 l 342 -82 l 399 -26 l 399 14 l 385 0 l 209 0 l 66 143 l 66 607 l 209 750 l 451 750 l 594 607 l 594 -135 l 451 -278 l 101 -278 m 177 -203 l 400 -203 l 522 -78 l 522 564 l 409 676 l 249 676 l 142 570 l 142 191 l 256 78 l 367 78 l 478 190 l 478 -58 l 378 -160 l 177 -160 l 177 -203 m 275 121 l 185 209 l 185 552 l 268 634 l 390 634 l 478 546 l 478 244 l 354 121 l 275 121 m 305 197 l 329 197 l 399 266 l 399 512 l 356 554 l 305 554 l 263 512 l 263 239 l 305 197 m 240 772 l 84 969 l 276 969 l 327 894 l 378 969 l 570 969 l 415 772 l 240 772 m 277 821 l 375 821 l 445 914 l 403 914 l 353 844 l 298 844 l 249 914 l 207 914 l 277 821 z "},"ĝ":{"ha":671,"x_min":66,"x_max":594,"o":"m 101 -278 l 101 -82 l 342 -82 l 399 -26 l 399 14 l 385 0 l 209 0 l 66 143 l 66 607 l 209 750 l 451 750 l 594 607 l 594 -135 l 451 -278 l 101 -278 m 177 -203 l 400 -203 l 522 -78 l 522 564 l 409 676 l 249 676 l 142 570 l 142 191 l 256 78 l 367 78 l 478 190 l 478 -58 l 378 -160 l 177 -160 l 177 -203 m 275 121 l 185 209 l 185 552 l 268 634 l 390 634 l 478 546 l 478 244 l 354 121 l 275 121 m 305 197 l 329 197 l 399 266 l 399 512 l 356 554 l 305 554 l 263 512 l 263 239 l 305 197 m 240 969 l 415 969 l 570 772 l 378 772 l 327 847 l 276 772 l 84 772 l 240 969 m 277 921 l 207 828 l 249 828 l 298 897 l 353 897 l 403 828 l 445 828 l 375 921 l 277 921 z "},"ģ":{"ha":671,"x_min":66,"x_max":594,"o":"m 101 -278 l 101 -82 l 342 -82 l 399 -26 l 399 14 l 385 0 l 209 0 l 66 143 l 66 607 l 209 750 l 451 750 l 594 607 l 594 -135 l 451 -278 l 101 -278 m 177 -203 l 400 -203 l 522 -78 l 522 564 l 409 676 l 249 676 l 142 570 l 142 191 l 256 78 l 367 78 l 478 190 l 478 -58 l 378 -160 l 177 -160 l 177 -203 m 275 121 l 185 209 l 185 552 l 268 634 l 390 634 l 478 546 l 478 244 l 354 121 l 275 121 m 305 197 l 329 197 l 399 266 l 399 512 l 356 554 l 305 554 l 263 512 l 263 239 l 305 197 m 480 1089 l 401 771 l 213 771 l 323 1089 l 480 1089 m 398 1024 l 370 1024 l 307 851 l 353 851 l 398 1024 z "},"ġ":{"ha":671,"x_min":66,"x_max":594,"o":"m 101 -278 l 101 -82 l 342 -82 l 399 -26 l 399 14 l 385 0 l 209 0 l 66 143 l 66 607 l 209 750 l 451 750 l 594 607 l 594 -135 l 451 -278 l 101 -278 m 177 -203 l 400 -203 l 522 -78 l 522 564 l 409 676 l 249 676 l 142 570 l 142 191 l 256 78 l 367 78 l 478 190 l 478 -58 l 378 -160 l 177 -160 l 177 -203 m 275 121 l 185 209 l 185 552 l 268 634 l 390 634 l 478 546 l 478 244 l 354 121 l 275 121 m 305 197 l 329 197 l 399 266 l 399 512 l 356 554 l 305 554 l 263 512 l 263 239 l 305 197 m 254 786 l 254 932 l 401 932 l 401 786 l 254 786 m 312 842 l 342 842 l 342 876 l 312 876 l 312 842 z "},"ḡ":{"ha":671,"x_min":66,"x_max":594,"o":"m 101 -278 l 101 -82 l 342 -82 l 399 -26 l 399 14 l 385 0 l 209 0 l 66 143 l 66 607 l 209 750 l 451 750 l 594 607 l 594 -135 l 451 -278 l 101 -278 m 177 -203 l 400 -203 l 522 -78 l 522 564 l 409 676 l 249 676 l 142 570 l 142 191 l 256 78 l 367 78 l 478 190 l 478 -58 l 378 -160 l 177 -160 l 177 -203 m 275 121 l 185 209 l 185 552 l 268 634 l 390 634 l 478 546 l 478 244 l 354 121 l 275 121 m 305 197 l 329 197 l 399 266 l 399 512 l 356 554 l 305 554 l 263 512 l 263 239 l 305 197 m 108 772 l 108 949 l 547 949 l 547 772 l 108 772 m 186 838 l 475 838 l 475 878 l 186 878 l 186 838 z "},"h":{"ha":671,"x_min":76,"x_max":605,"o":"m 76 0 l 76 1041 l 273 1041 l 273 737 l 286 750 l 462 750 l 605 607 l 605 0 l 408 0 l 408 511 l 366 554 l 328 554 l 273 498 l 273 0 l 76 0 m 155 76 l 197 76 l 197 528 l 303 633 l 409 633 l 486 556 l 486 76 l 529 76 l 529 574 l 428 675 l 293 675 l 197 581 l 197 967 l 155 967 l 155 76 z "},"ħ":{"ha":807,"x_min":12,"x_max":728,"o":"m 89 0 l 89 816 l 12 816 l 12 987 l 89 987 l 89 1042 l 285 1042 l 285 987 l 474 987 l 474 816 l 285 816 l 285 737 l 299 750 l 586 750 l 728 607 l 728 0 l 533 0 l 533 511 l 490 554 l 342 554 l 285 498 l 285 0 l 89 0 m 164 65 l 206 65 l 206 520 l 317 633 l 531 633 l 608 556 l 608 65 l 651 65 l 651 574 l 550 676 l 306 676 l 206 572 l 206 883 l 401 883 l 401 922 l 206 922 l 206 978 l 164 978 l 164 922 l 70 922 l 70 883 l 164 883 l 164 65 z "},"ḫ":{"ha":671,"x_min":76,"x_max":605,"o":"m 76 0 l 76 1041 l 273 1041 l 273 737 l 286 750 l 462 750 l 605 607 l 605 0 l 408 0 l 408 511 l 366 554 l 328 554 l 273 498 l 273 0 l 76 0 m 155 76 l 197 76 l 197 528 l 303 633 l 409 633 l 486 556 l 486 76 l 529 76 l 529 574 l 428 675 l 293 675 l 197 581 l 197 967 l 155 967 l 155 76 m 258 -236 l 181 -158 l 181 -50 l 314 -50 l 314 -103 l 368 -103 l 368 -50 l 501 -50 l 501 -158 l 424 -236 l 258 -236 m 290 -187 l 393 -187 l 449 -129 l 449 -101 l 417 -101 l 417 -120 l 383 -156 l 300 -156 l 267 -120 l 267 -101 l 235 -101 l 235 -129 l 290 -187 z "},"ĥ":{"ha":671,"x_min":76,"x_max":605,"o":"m 76 0 l 76 1041 l 273 1041 l 273 737 l 286 750 l 462 750 l 605 607 l 605 0 l 408 0 l 408 511 l 366 554 l 328 554 l 273 498 l 273 0 l 76 0 m 155 76 l 197 76 l 197 528 l 303 633 l 409 633 l 486 556 l 486 76 l 529 76 l 529 574 l 428 675 l 293 675 l 197 581 l 197 967 l 155 967 l 155 76 m 253 1261 l 428 1261 l 584 1064 l 392 1064 l 341 1139 l 290 1064 l 98 1064 l 253 1261 m 291 1213 l 221 1119 l 263 1119 l 312 1189 l 367 1189 l 417 1119 l 459 1119 l 389 1213 l 291 1213 z "},"ḥ":{"ha":671,"x_min":76,"x_max":605,"o":"m 76 0 l 76 1041 l 273 1041 l 273 737 l 286 750 l 462 750 l 605 607 l 605 0 l 408 0 l 408 511 l 366 554 l 328 554 l 273 498 l 273 0 l 76 0 m 155 76 l 197 76 l 197 528 l 303 633 l 409 633 l 486 556 l 486 76 l 529 76 l 529 574 l 428 675 l 293 675 l 197 581 l 197 967 l 155 967 l 155 76 m 267 -188 l 267 -42 l 415 -42 l 415 -188 l 267 -188 m 325 -133 l 355 -133 l 355 -99 l 325 -99 l 325 -133 z "},"i":{"ha":505,"x_min":66,"x_max":484,"o":"m 149 859 l 149 1042 l 373 1042 l 373 859 l 149 859 m 238 928 l 285 928 l 285 981 l 238 981 l 238 928 m 66 0 l 66 197 l 177 197 l 177 553 l 66 553 l 66 750 l 373 750 l 373 197 l 484 197 l 484 0 l 66 0 m 142 76 l 408 76 l 408 119 l 290 119 l 290 675 l 142 675 l 142 633 l 248 633 l 248 119 l 142 119 l 142 76 z "},"ı":{"ha":667,"x_min":69,"x_max":598,"o":"m 69 0 l 69 197 l 235 197 l 235 553 l 69 553 l 69 750 l 431 750 l 431 197 l 598 197 l 598 0 l 69 0 m 139 76 l 528 76 l 528 119 l 349 119 l 349 675 l 139 675 l 139 633 l 306 633 l 306 119 l 139 119 l 139 76 z "},"í":{"ha":667,"x_min":69,"x_max":617,"o":"m 69 0 l 69 197 l 235 197 l 235 553 l 69 553 l 69 750 l 431 750 l 431 197 l 598 197 l 598 0 l 69 0 m 139 76 l 528 76 l 528 119 l 349 119 l 349 675 l 139 675 l 139 633 l 306 633 l 306 119 l 139 119 l 139 76 m 248 772 l 417 956 l 617 956 l 419 772 l 248 772 m 359 815 l 397 815 l 493 912 l 451 912 l 359 815 z "},"ĭ":{"ha":667,"x_min":69,"x_max":598,"o":"m 69 0 l 69 197 l 235 197 l 235 553 l 69 553 l 69 750 l 431 750 l 431 197 l 598 197 l 598 0 l 69 0 m 139 76 l 528 76 l 528 119 l 349 119 l 349 675 l 139 675 l 139 633 l 306 633 l 306 119 l 139 119 l 139 76 m 251 772 l 173 850 l 173 958 l 306 958 l 306 906 l 360 906 l 360 958 l 494 958 l 494 850 l 416 772 l 251 772 m 282 821 l 385 821 l 441 879 l 441 908 l 409 908 l 409 888 l 376 852 l 292 852 l 259 888 l 259 908 l 227 908 l 227 879 l 282 821 z "},"ǐ":{"ha":667,"x_min":69,"x_max":598,"o":"m 69 0 l 69 197 l 235 197 l 235 553 l 69 553 l 69 750 l 431 750 l 431 197 l 598 197 l 598 0 l 69 0 m 139 76 l 528 76 l 528 119 l 349 119 l 349 675 l 139 675 l 139 633 l 306 633 l 306 119 l 139 119 l 139 76 m 246 772 l 90 969 l 283 969 l 333 894 l 384 969 l 576 969 l 421 772 l 246 772 m 283 821 l 381 821 l 451 914 l 410 914 l 360 844 l 304 844 l 255 914 l 213 914 l 283 821 z "},"î":{"ha":667,"x_min":69,"x_max":598,"o":"m 69 0 l 69 197 l 235 197 l 235 553 l 69 553 l 69 750 l 431 750 l 431 197 l 598 197 l 598 0 l 69 0 m 139 76 l 528 76 l 528 119 l 349 119 l 349 675 l 139 675 l 139 633 l 306 633 l 306 119 l 139 119 l 139 76 m 246 969 l 421 969 l 576 772 l 384 772 l 333 847 l 283 772 l 90 772 l 246 969 m 283 921 l 213 828 l 255 828 l 304 897 l 360 897 l 410 828 l 451 828 l 381 921 l 283 921 z "},"ȉ":{"ha":667,"x_min":-80,"x_max":598,"o":"m 69 0 l 69 197 l 235 197 l 235 553 l 69 553 l 69 750 l 431 750 l 431 197 l 598 197 l 598 0 l 69 0 m 139 76 l 528 76 l 528 119 l 349 119 l 349 675 l 139 675 l 139 633 l 306 633 l 306 119 l 139 119 l 139 76 m 561 772 l 390 772 l 192 956 l 392 956 l 561 772 m 450 815 l 358 912 l 317 912 l 413 815 l 450 815 m 289 772 l 117 772 l -80 956 l 119 956 l 289 772 m 178 815 l 86 912 l 44 912 l 141 815 l 178 815 z "},"ï":{"ha":667,"x_min":69,"x_max":598,"o":"m 69 0 l 69 197 l 235 197 l 235 553 l 69 553 l 69 750 l 431 750 l 431 197 l 598 197 l 598 0 l 69 0 m 139 76 l 528 76 l 528 119 l 349 119 l 349 675 l 139 675 l 139 633 l 306 633 l 306 119 l 139 119 l 139 76 m 405 786 l 405 932 l 552 932 l 552 786 l 405 786 m 116 786 l 116 932 l 263 932 l 263 786 l 116 786 m 174 842 l 203 842 l 203 876 l 174 876 l 174 842 m 464 842 l 493 842 l 493 876 l 464 876 l 464 842 z "},"ḯ":{"ha":667,"x_min":69,"x_max":617,"o":"m 69 0 l 69 197 l 235 197 l 235 553 l 69 553 l 69 750 l 431 750 l 431 197 l 598 197 l 598 0 l 69 0 m 139 76 l 528 76 l 528 119 l 349 119 l 349 675 l 139 675 l 139 633 l 306 633 l 306 119 l 139 119 l 139 76 m 405 786 l 405 932 l 552 932 l 552 786 l 405 786 m 116 786 l 116 932 l 263 932 l 263 786 l 116 786 m 174 842 l 203 842 l 203 876 l 174 876 l 174 842 m 464 842 l 493 842 l 493 876 l 464 876 l 464 842 m 248 954 l 417 1138 l 617 1138 l 419 954 l 248 954 m 359 997 l 397 997 l 493 1094 l 451 1094 l 359 997 z "},"ị":{"ha":505,"x_min":66,"x_max":484,"o":"m 149 859 l 149 1042 l 373 1042 l 373 859 l 149 859 m 238 928 l 285 928 l 285 981 l 238 981 l 238 928 m 66 0 l 66 197 l 177 197 l 177 553 l 66 553 l 66 750 l 373 750 l 373 197 l 484 197 l 484 0 l 66 0 m 142 76 l 408 76 l 408 119 l 290 119 l 290 675 l 142 675 l 142 633 l 248 633 l 248 119 l 142 119 l 142 76 m 201 -188 l 201 -42 l 349 -42 l 349 -188 l 201 -188 m 259 -133 l 289 -133 l 289 -99 l 259 -99 l 259 -133 z "},"ì":{"ha":667,"x_min":65,"x_max":598,"o":"m 69 0 l 69 197 l 235 197 l 235 553 l 69 553 l 69 750 l 431 750 l 431 197 l 598 197 l 598 0 l 69 0 m 139 76 l 528 76 l 528 119 l 349 119 l 349 675 l 139 675 l 139 633 l 306 633 l 306 119 l 139 119 l 139 76 m 434 772 l 263 772 l 65 956 l 265 956 l 434 772 m 323 815 l 231 912 l 190 912 l 286 815 l 323 815 z "},"ỉ":{"ha":667,"x_min":69,"x_max":598,"o":"m 69 0 l 69 197 l 235 197 l 235 553 l 69 553 l 69 750 l 431 750 l 431 197 l 598 197 l 598 0 l 69 0 m 139 76 l 528 76 l 528 119 l 349 119 l 349 675 l 139 675 l 139 633 l 306 633 l 306 119 l 139 119 l 139 76 m 167 1029 l 386 1029 l 499 898 l 386 768 l 217 768 l 217 877 l 310 877 l 331 898 l 310 920 l 167 920 l 167 1029 m 220 988 l 220 961 l 340 961 l 397 898 l 340 836 l 270 836 l 270 809 l 357 809 l 438 898 l 357 988 l 220 988 z "},"ȋ":{"ha":667,"x_min":69,"x_max":598,"o":"m 69 0 l 69 197 l 235 197 l 235 553 l 69 553 l 69 750 l 431 750 l 431 197 l 598 197 l 598 0 l 69 0 m 139 76 l 528 76 l 528 119 l 349 119 l 349 675 l 139 675 l 139 633 l 306 633 l 306 119 l 139 119 l 139 76 m 416 958 l 494 880 l 494 772 l 360 772 l 360 824 l 306 824 l 306 772 l 173 772 l 173 880 l 251 958 l 416 958 m 385 909 l 281 909 l 226 851 l 226 822 l 258 822 l 258 842 l 291 878 l 374 878 l 408 842 l 408 822 l 440 822 l 440 851 l 385 909 z "},"ī":{"ha":667,"x_min":69,"x_max":598,"o":"m 69 0 l 69 197 l 235 197 l 235 553 l 69 553 l 69 750 l 431 750 l 431 197 l 598 197 l 598 0 l 69 0 m 139 76 l 528 76 l 528 119 l 349 119 l 349 675 l 139 675 l 139 633 l 306 633 l 306 119 l 139 119 l 139 76 m 114 772 l 114 949 l 553 949 l 553 772 l 114 772 m 192 838 l 481 838 l 481 878 l 192 878 l 192 838 z "},"į":{"ha":667,"x_min":69,"x_max":598,"o":"m 240 -256 l 126 -125 l 239 0 l 69 0 l 69 197 l 235 197 l 235 553 l 69 553 l 69 750 l 431 750 l 431 197 l 598 197 l 598 0 l 392 0 l 267 -125 l 288 -147 l 451 -147 l 451 -256 l 240 -256 m 256 -215 l 408 -215 l 408 -188 l 267 -188 l 210 -125 l 401 76 l 528 76 l 528 119 l 349 119 l 349 675 l 139 675 l 139 633 l 306 633 l 306 119 l 139 119 l 139 76 l 364 76 l 175 -125 l 256 -215 m 208 859 l 208 1042 l 431 1042 l 431 859 l 208 859 m 296 928 l 343 928 l 343 981 l 296 981 l 296 928 z "},"ĩ":{"ha":667,"x_min":69,"x_max":598,"o":"m 69 0 l 69 197 l 235 197 l 235 553 l 69 553 l 69 750 l 431 750 l 431 197 l 598 197 l 598 0 l 69 0 m 139 76 l 528 76 l 528 119 l 349 119 l 349 675 l 139 675 l 139 633 l 306 633 l 306 119 l 139 119 l 139 76 m 140 772 l 140 867 l 217 944 l 341 944 l 380 906 l 392 906 l 392 944 l 526 944 l 526 850 l 448 772 l 324 772 l 285 811 l 273 811 l 273 772 l 140 772 m 194 816 l 226 816 l 226 830 l 259 866 l 304 866 l 351 821 l 420 821 l 475 879 l 475 902 l 443 902 l 443 888 l 410 852 l 360 852 l 314 897 l 249 897 l 194 839 l 194 816 z "},"j":{"ha":426,"x_min":14,"x_max":350,"o":"m 14 -278 l 14 -82 l 98 -82 l 153 -26 l 153 554 l 14 554 l 14 750 l 350 750 l 350 -135 l 207 -278 l 14 -278 m 94 -197 l 169 -197 l 274 -90 l 274 674 l 88 674 l 88 631 l 231 631 l 231 -69 l 148 -154 l 94 -154 l 94 -197 m 153 858 l 153 1042 l 350 1042 l 350 858 l 153 858 m 231 928 l 274 928 l 274 981 l 231 981 l 231 928 z "},"ȷ":{"ha":469,"x_min":7,"x_max":385,"o":"m 7 -278 l 7 -82 l 133 -82 l 188 -26 l 188 554 l 7 554 l 7 750 l 385 750 l 385 -135 l 242 -278 l 7 -278 m 87 -197 l 204 -197 l 308 -90 l 308 674 l 81 674 l 81 631 l 265 631 l 265 -69 l 183 -154 l 87 -154 l 87 -197 z "},"ĵ":{"ha":469,"x_min":-8,"x_max":478,"o":"m 7 -278 l 7 -82 l 133 -82 l 188 -26 l 188 554 l 7 554 l 7 750 l 385 750 l 385 -135 l 242 -278 l 7 -278 m 87 -197 l 204 -197 l 308 -90 l 308 674 l 81 674 l 81 631 l 265 631 l 265 -69 l 183 -154 l 87 -154 l 87 -197 m 147 969 l 322 969 l 478 772 l 285 772 l 235 847 l 184 772 l -8 772 l 147 969 m 185 921 l 115 828 l 156 828 l 206 897 l 261 897 l 311 828 l 353 828 l 283 921 l 185 921 z "},"k":{"ha":640,"x_min":76,"x_max":564,"o":"m 76 0 l 76 972 l 273 972 l 273 471 l 285 471 l 367 553 l 367 750 l 564 750 l 564 471 l 466 374 l 564 274 l 564 0 l 367 0 l 367 192 l 285 274 l 273 274 l 273 0 l 76 0 m 153 77 l 196 77 l 196 354 l 324 354 l 444 231 l 444 77 l 486 77 l 486 247 l 363 374 l 486 497 l 486 677 l 444 677 l 444 513 l 326 397 l 196 397 l 196 897 l 153 897 l 153 77 z "},"ķ":{"ha":640,"x_min":76,"x_max":564,"o":"m 76 0 l 76 972 l 273 972 l 273 471 l 285 471 l 367 553 l 367 750 l 564 750 l 564 471 l 466 374 l 564 274 l 564 0 l 367 0 l 367 192 l 285 274 l 273 274 l 273 0 l 76 0 m 153 77 l 196 77 l 196 354 l 324 354 l 444 231 l 444 77 l 486 77 l 486 247 l 363 374 l 486 497 l 486 677 l 444 677 l 444 513 l 326 397 l 196 397 l 196 897 l 153 897 l 153 77 m 141 -368 l 220 -50 l 408 -50 l 298 -368 l 141 -368 m 223 -303 l 251 -303 l 314 -130 l 268 -130 l 223 -303 z "},"ĸ":{"ha":738,"x_min":76,"x_max":661,"o":"m 76 0 l 76 750 l 273 750 l 273 471 l 382 471 l 465 553 l 465 750 l 661 750 l 661 471 l 563 374 l 661 274 l 661 0 l 465 0 l 465 192 l 382 274 l 273 274 l 273 0 l 76 0 m 153 77 l 196 77 l 196 354 l 421 354 l 541 231 l 541 77 l 583 77 l 583 247 l 460 374 l 583 497 l 583 677 l 541 677 l 541 513 l 423 397 l 196 397 l 196 675 l 153 675 l 153 77 z "},"l":{"ha":446,"x_min":21,"x_max":425,"o":"m 21 0 l 21 197 l 125 197 l 125 845 l 21 845 l 21 1042 l 321 1042 l 321 197 l 425 197 l 425 0 l 21 0 m 97 76 l 349 76 l 349 119 l 242 119 l 242 967 l 97 967 l 97 924 l 199 924 l 199 119 l 97 119 l 97 76 z "}}}
